<?xml version="1.0" encoding="UTF-8" standalone="no"?>
<svg
   xmlns:dc="http://purl.org/dc/elements/1.1/"
   xmlns:cc="http://creativecommons.org/ns#"
   xmlns:rdf="http://www.w3.org/1999/02/22-rdf-syntax-ns#"
   xmlns:svg="http://www.w3.org/2000/svg"
   xmlns="http://www.w3.org/2000/svg"
   xmlns:sodipodi="http://sodipodi.sourceforge.net/DTD/sodipodi-0.dtd"
   xmlns:inkscape="http://www.inkscape.org/namespaces/inkscape"
   version="1.1"
   id="svg2"
   xml:space="preserve"
   width="1706.2"
   height="1109.1733"
   viewBox="0 0 1706.2 1109.1733"
   sodipodi:docname="16320.eps"><metadata
     id="metadata8"><rdf:RDF><cc:Work
         rdf:about=""><dc:format>image/svg+xml</dc:format><dc:type
           rdf:resource="http://purl.org/dc/dcmitype/StillImage" /></cc:Work></rdf:RDF></metadata><defs
     id="defs6" /><sodipodi:namedview
     pagecolor="#ffffff"
     bordercolor="#666666"
     borderopacity="1"
     objecttolerance="10"
     gridtolerance="10"
     guidetolerance="10"
     inkscape:pageopacity="0"
     inkscape:pageshadow="2"
     inkscape:window-width="640"
     inkscape:window-height="480"
     id="namedview4" /><g
     id="g10"
     inkscape:groupmode="layer"
     inkscape:label="ink_ext_XXXXXX"
     transform="matrix(1.3333333,0,0,-1.3333333,0,1109.1733)"><g
       id="g12"
       transform="scale(0.1)"><path
         d="m 0,-124.219 h 12800 v 8682.53 H 0 Z"
         style="fill:#dcfdff;fill-opacity:1;fill-rule:nonzero;stroke:none"
         id="path14" /><path
         d="M 12422.3,7960.71 H 0 v 358.1 c 2125.6,-59.7 12422.3,-358.1 12422.3,-358.1"
         style="fill:#e8fdfe;fill-opacity:1;fill-rule:nonzero;stroke:none"
         id="path16" /><path
         d="M 11460.2,7360.61 H 0 v 362.1 l 11460.2,-362.1"
         style="fill:#e8fdfe;fill-opacity:1;fill-rule:nonzero;stroke:none"
         id="path18" /><path
         d="m 0,6611.21 v 504.4 l 11091,-145 L 0,6611.21"
         style="fill:#e8fdfe;fill-opacity:1;fill-rule:nonzero;stroke:none"
         id="path20" /><path
         d="M 12796.5,6589.11 H 2065.3 l 10731.2,242.82 v -242.82"
         style="fill:#e8fdfe;fill-opacity:1;fill-rule:nonzero;stroke:none"
         id="path22" /><path
         d="m 12796.5,5922.39 -440.1,23.21 c 59.1,23.95 81,78.06 55.4,125.04 -12.7,23.22 -38.2,30.9 -66.4,30.9 -55.1,0 -120.5,-29.29 -120.5,-29.29 0,0 2.8,0.16 7.3,0.16 24.7,0 101.7,-4.51 75.6,-62.41 -10.2,-22.85 -27.5,-30.47 -45.9,-30.47 -36.8,-0.01 -78.4,30.47 -78.4,30.47 0,0 -150.4,110.64 -298.6,110.64 -2.4,0 -4.8,-0.03 -7.2,-0.09 -150.5,-3.74 -144.9,-44.43 -144.9,-44.43 0,0 -78.8,76.74 -216.7,84.09 -5.3,0.28 -10.3,0.42 -15.1,0.42 -119.8,0 -84.3,-84.51 -84.3,-84.51 0,0 -45,59.6 -215.6,84.09 -23.3,3.33 -43,4.78 -59.7,4.78 -106,0 -91.3,-57.84 -91.3,-57.84 -14.6,5.37 -29.6,7.86 -44.1,7.86 -46.9,0 -89.8,-25.77 -106.3,-64.23 -18.8,15.86 -44.9,29.46 -78.8,29.46 -10.4,0 -21.5,-1.27 -33.3,-4.12 -42.3,-10.2 -56.4,-27.61 -58.1,-44.76 l -21.7,1.14 c -15.5,7.98 -36.4,13.64 -64.3,13.64 -10.5,0 -22.1,-0.8 -34.7,-2.59 -9.1,-1.28 -17.2,-2.81 -24.3,-4.54 l -108.4,5.71 c -13.4,5.01 -25.8,7.27 -37.2,7.27 -9,0 -17.4,-1.42 -24.9,-4 l -5548.8,292.52 7931.3,-147.24 v -270.88"
         style="fill:#e8fdfe;fill-opacity:1;fill-rule:nonzero;stroke:none"
         id="path24" /><path
         d="m 12584.8,5381.71 -5949.83,312.68 c -116.48,33.65 -236.24,65.08 -359.52,93.82 h 6521.05 v -289.7 l -211.7,-116.8"
         style="fill:#e8fdfe;fill-opacity:1;fill-rule:nonzero;stroke:none"
         id="path26" /><path
         d="M 0,978.109 V 4558.01 L 0.0390625,3233.11 C 0,3233.11 0,3233.11 0,3233.11 v -179.32 0 V 978.109 M 8095.83,4057.46 4449.84,5320.44 2342.12,4364.62 l -653.11,356.29 -105.99,719.08 c 729.5,284.54 1628.82,495.39 2719.28,531.82 96.9,3.24 192.21,4.81 285.64,4.81 634.1,0 1189.76,-72.38 1687.51,-188.41 H 4849.6 l 1785.37,-93.82 c 596.99,-172.5 1108.53,-403.82 1576.54,-635.16 686.99,-339.59 1280.01,-679.18 1910.69,-832.65 l -123.5,-37.89 c -106.76,-32.76 -216.85,-49 -326.67,-49 -166.77,0 -332.87,37.46 -485.49,111.39 l -566.28,274.29 -524.43,-467.91 m -6536.77,734.35 -12.76,6.96 52.9,42.74 -40.14,-49.7 m -83.32,45.45 -466.3,254.39 -521.643,-253.89 -50.352,25.05 c 315.391,200.06 686.015,395.65 1116.515,565.76 l -78.22,-591.31"
         style="fill:#e7feff;fill-opacity:1;fill-rule:nonzero;stroke:none"
         id="path28" /><path
         d="m 6634.97,5694.39 -1785.37,93.82 h 1425.85 c 123.28,-28.74 243.04,-60.17 359.52,-93.82"
         style="fill:#effefe;fill-opacity:1;fill-rule:nonzero;stroke:none"
         id="path30" /><path
         d="M 0.0390625,4600.37 1009.44,5091.65 4329.83,3280.24 l 2701.83,-172.26 1588.6,1417.39 566.28,-274.29 c 253.12,-122.61 543.27,-144.9 812.16,-62.39 L 11095.9,4525.37 12800,2740.19 V -319.762 H 0.0390625 V 4600.37"
         style="fill:#f0eeff;fill-opacity:1;fill-rule:nonzero;stroke:none"
         id="path32" /><path
         d="M 0.0390625,5080.42 1869.59,4150.33 4449.84,5320.44 9040.31,3730.29 l 1349.19,333.77 1051,686.33 1359.5,750.07 V 4660.38 -319.762 H 0.0390625 V 5080.42"
         style="fill:#f6f5fc;fill-opacity:1;fill-rule:nonzero;stroke:none"
         id="path34" /><path
         d="m 0,5056.51 1299.5,-1266.2 570.1,360 L 0,5056.51"
         style="fill:#fce9d0;fill-opacity:1;fill-rule:nonzero;stroke:none"
         id="path36" /><path
         d="m 4449.84,5320.45 1380.15,-960.1 161.31,240.02 3049.01,-870.08 -4590.47,1590.16"
         style="fill:#fce9d0;fill-opacity:1;fill-rule:nonzero;stroke:none"
         id="path38" /><path
         d="M 5041.5,3520.27 4449.84,5320.44 5829.98,4360.35 5991.3,4600.37 9040.31,3730.29 6580.06,4090.32 5991.3,3730.29 5319.93,4000.31 5041.5,3520.27"
         style="fill:#ffffff;fill-opacity:1;fill-rule:nonzero;stroke:none"
         id="path40" /><path
         d="m 7308.54,2543.9 c -1813.91,0.02 -3312.62,442.22 -3867.04,497.46 -299.9,29.89 -835.15,39.85 -1415.67,39.85 -31.5,0 -63.23,-0.03 -94.98,-0.09 l -21.81,147.93 653.38,139.49 539.97,151.73 479.98,478.23 518.83,314.99 v -135 h 141.14 l 89.99,-388.18 560.35,-545.96 148.82,-264.14 338.44,540.06 450.04,-240.03 476.27,188 -256.1,298.04 61.49,37.59 326.4,-283.6 220.58,87.07 -405.82,282.86 121.02,74 500.13,-271.86 96.14,37.95 2580.27,-450.05 552.44,142.07 -266.3,-361.36 324.8,376.38 93.7,24.1 -458.5,-542.32 520,535 73.1,24.56 -193.1,-367.72 250,378.16 1204.1,331.19 1145.9,1046.86 v -795.34 l -21.4,-242.65 c -18.3,-2.44 -36.9,-5.03 -55.5,-7.75 l -13.1,108.16 -13.6,-112.14 c -18.6,-2.83 -37.3,-5.8 -56.2,-8.91 l -24.9,206.05 -19.7,-162.54 -27.7,323.43 -33,-385.51 c -12.6,-2.36 -25.2,-4.77 -37.9,-7.26 l -23.8,196.88 -25,-206.66 c -13.2,-2.73 -26.6,-5.52 -39.9,-8.38 l -29.8,300.04 -31.2,-313.42 c -18.4,-4.17 -37,-8.47 -55.7,-12.89 l -7.9,64.97 -8.3,-68.82 c -21.7,-5.21 -43.7,-10.61 -65.8,-16.18 l -20.6,170 -19.6,-162.53 -27.8,323.44 -30.5,-356.6 c -14.4,-3.88 -28.8,-7.83 -43.3,-11.85 l -20.9,172.54 -22.3,-184.69 c -14.7,-4.18 -29.5,-8.46 -44.3,-12.8 l -28.1,282.49 -29.8,-299.69 c -99.1,-29.96 -201.4,-63.33 -306.9,-100.32 l -9.7,110.44 -10.3,-117.51 c -56,-19.81 -113,-40.64 -170.8,-62.53 l -8.3,69.13 -9.2,-75.78 c -5.7,-2.19 -11.6,-4.42 -17.3,-6.63 l -20.9,243.32 -22.3,-259.98 c -20.4,-7.97 -41.1,-16.09 -61.7,-24.32 l -10.7,88.39 -11.8,-97.35 c -20.7,-8.29 -41.4,-16.7 -62.3,-25.25 l -20.6,207.6 -22.4,-225.32 c -77.9,-32.3 -157.2,-66.4 -238.2,-102.42 C 9692.16,2715.66 8439.16,2543.89 7308.54,2543.9 m -6342.11,528.6 -2.215,20.1 -29.113,377.02 343.838,-119.6 -33.04,-249.67 -18.41,95.6 -23.16,-120.22 c -13.61,-0.17 -27.44,-0.34 -41.01,-0.51 l -30.56,158.68 -30.72,-159.48 c -45.59,-0.61 -90.79,-1.25 -135.61,-1.92 m 778.9,7.99 -93.76,93.6 36.06,7.69 162,-100.86 c -34.65,-0.12 -69.5,-0.26 -104.3,-0.43 m -869.627,5.17 c -1.476,0.28 -2.879,0.54 -4.355,0.82 l -45.735,378.33 -43.711,-361.61 c -161.988,29.95 -311.152,55.68 -444.386,77.5 l -32.887,272.06 -31.621,-261.59 c -93.266,14.98 -177.8049,27.91 -252.3869,38.91 l 288.8129,980.25 480.043,-480.04 v -210.02 l 116.878,-40.65 -29.886,-387.02 -0.766,-6.94 m 992.377,421.16 -18.49,125.37 2450.24,1459.46 150.01,-566.28 -745.84,-332.51 45,175 -52.2,-175.57 -36.55,-18.18 60,212.5 -76.08,-211.43 -56.01,-26.07 163.34,493.33 c 0,0 -186.6,-494.02 -196.2,-497.82 -125.84,-49.99 -221.12,-84.3 -245.57,-84.3 l -27.35,88.18 -170.47,180.17 -1243.83,-821.85"
         style="fill:#f0e5df;fill-opacity:1;fill-rule:nonzero;stroke:none"
         id="path42" /><path
         d="m 6050.15,3766.28 -308.65,359.19 370.14,-321.6 -61.49,-37.59 m 202.65,123.92 -911.3,635.17 1032.32,-561.17 -121.02,-74"
         style="fill:#f5eae1;fill-opacity:1;fill-rule:nonzero;stroke:none"
         id="path44" /><path
         d="m 3309.73,4060.32 c 24.45,0 119.73,34.31 245.57,84.3 9.6,3.8 196.2,497.82 196.2,497.82 l -163.34,-493.33 56.01,26.07 76.08,211.43 -60,-212.5 36.55,18.18 52.2,175.57 -45,-175 745.84,332.51 v -166.88 -328.17 l 135.23,-240.01 152.15,-270.04 155.46,-275.92 -560.35,545.96 -89.99,388.18 H 4101.2 v 135 l -518.83,-314.99 -479.98,-478.23 -539.97,-151.73 -1334.93,-284.99 1884.42,1245.12 170.47,-180.17 27.35,-88.18"
         style="fill:#ead4c1;fill-opacity:1;fill-rule:nonzero;stroke:none"
         id="path46" /><path
         d="m 4406.79,2036.63 h -43.06 l 43.06,391.82 43.05,-391.82 h -43.05"
         style="fill:#067c4f;fill-opacity:1;fill-rule:nonzero;stroke:none"
         id="path48" /><path
         d="m 4193.18,2152.09 h -43.06 l 43.06,391.8 43.06,-391.8 h -43.06"
         style="fill:#067c4f;fill-opacity:1;fill-rule:nonzero;stroke:none"
         id="path50" /><path
         d="m 4527.35,2099.06 h -43.06 l 43.06,473.77 43.06,-473.77 h -43.06"
         style="fill:#067c4f;fill-opacity:1;fill-rule:nonzero;stroke:none"
         id="path52" /><path
         d="m 4699.58,1944.13 h -43.06 l 43.06,391.81 43.05,-391.81 h -43.05"
         style="fill:#067c4f;fill-opacity:1;fill-rule:nonzero;stroke:none"
         id="path54" /><path
         d="m 4613.46,2029.13 h -43.05 l 43.05,391.81 43.06,-391.81 h -43.06"
         style="fill:#067c4f;fill-opacity:1;fill-rule:nonzero;stroke:none"
         id="path56" /><path
         d="m 4892.68,2020.04 h -43.07 l 43.07,537.72 43.05,-537.72 h -43.05"
         style="fill:#067c4f;fill-opacity:1;fill-rule:nonzero;stroke:none"
         id="path58" /><path
         d="m 5023.97,1912.17 h -43.06 l 43.06,391.81 43.06,-391.81 h -43.06"
         style="fill:#067c4f;fill-opacity:1;fill-rule:nonzero;stroke:none"
         id="path60" /><path
         d="m 8795.01,1921.18 h -47.36 l 47.36,391.81 47.37,-391.81 h -47.37"
         style="fill:#55682b;fill-opacity:1;fill-rule:nonzero;stroke:none"
         id="path62" /><path
         d="m 8700.29,1921.18 h -47.37 l 47.37,476.81 47.36,-476.81 h -47.36"
         style="fill:#55682b;fill-opacity:1;fill-rule:nonzero;stroke:none"
         id="path64" /><path
         d="m 8889.74,1956.18 h -47.36 l 47.36,552.71 47.36,-552.71 h -47.36"
         style="fill:#55682b;fill-opacity:1;fill-rule:nonzero;stroke:none"
         id="path66" /><path
         d="m 9031.83,1871.18 h -47.36 l 47.36,391.81 47.37,-391.81 h -47.37"
         style="fill:#55682b;fill-opacity:1;fill-rule:nonzero;stroke:none"
         id="path68" /><path
         d="m 8937.1,1956.18 h -47.36 l 47.36,391.81 47.37,-391.81 h -47.37"
         style="fill:#55682b;fill-opacity:1;fill-rule:nonzero;stroke:none"
         id="path70" /><path
         d="m 9126.55,1921.18 h -47.35 l 47.35,537.71 47.36,-537.71 h -47.36"
         style="fill:#55682b;fill-opacity:1;fill-rule:nonzero;stroke:none"
         id="path72" /><path
         d="m 9126.55,1897.09 h -47.35 l 47.35,391.8 47.36,-391.8 h -47.36"
         style="fill:#55682b;fill-opacity:1;fill-rule:nonzero;stroke:none"
         id="path74" /><path
         d="m 12469.7,3587.76 h -47.4 l 47.4,391.82 47.3,-391.82 h -47.3"
         style="fill:#486e87;fill-opacity:1;fill-rule:nonzero;stroke:none"
         id="path76" /><path
         d="m 12375,3587.76 h -47.4 l 47.4,476.82 47.3,-476.82 h -47.3"
         style="fill:#486e87;fill-opacity:1;fill-rule:nonzero;stroke:none"
         id="path78" /><path
         d="m 12564.4,3622.76 h -47.4 l 47.4,552.71 47.4,-552.71 h -47.4"
         style="fill:#486e87;fill-opacity:1;fill-rule:nonzero;stroke:none"
         id="path80" /><path
         d="m 12706.5,3537.76 h -47.4 l 47.4,391.82 47.4,-391.82 h -47.4"
         style="fill:#486e87;fill-opacity:1;fill-rule:nonzero;stroke:none"
         id="path82" /><path
         d="m 12611.8,3622.76 h -47.4 l 47.4,391.82 47.3,-391.82 h -47.3"
         style="fill:#486e87;fill-opacity:1;fill-rule:nonzero;stroke:none"
         id="path84" /><path
         d="m 12801.2,3587.76 h -47.3 l 47.3,537.71 47.4,-537.71 h -47.4"
         style="fill:#486e87;fill-opacity:1;fill-rule:nonzero;stroke:none"
         id="path86" /><path
         d="m 12801.2,3563.67 h -47.3 l 47.3,391.81 47.4,-391.81 h -47.4"
         style="fill:#486e87;fill-opacity:1;fill-rule:nonzero;stroke:none"
         id="path88" /><path
         d="m 12043.4,3461.43 h -47.3 l 47.3,391.81 47.4,-391.81 h -47.4"
         style="fill:#486e87;fill-opacity:1;fill-rule:nonzero;stroke:none"
         id="path90" /><path
         d="m 11948.7,3461.43 h -47.4 l 47.4,476.81 47.4,-476.81 h -47.4"
         style="fill:#486e87;fill-opacity:1;fill-rule:nonzero;stroke:none"
         id="path92" /><path
         d="m 12138.1,3496.43 h -47.3 l 47.3,552.72 47.4,-552.72 h -47.4"
         style="fill:#486e87;fill-opacity:1;fill-rule:nonzero;stroke:none"
         id="path94" /><path
         d="m 12280.2,3411.43 h -47.3 l 47.3,391.81 47.4,-391.81 h -47.4"
         style="fill:#486e87;fill-opacity:1;fill-rule:nonzero;stroke:none"
         id="path96" /><path
         d="m 12185.5,3496.43 h -47.4 l 47.4,391.81 47.4,-391.81 h -47.4"
         style="fill:#486e87;fill-opacity:1;fill-rule:nonzero;stroke:none"
         id="path98" /><path
         d="m 12375,3461.43 h -47.4 l 47.4,537.72 47.3,-537.72 h -47.3"
         style="fill:#486e87;fill-opacity:1;fill-rule:nonzero;stroke:none"
         id="path100" /><path
         d="m 12375,3437.33 h -47.4 l 47.4,391.82 47.3,-391.82 h -47.3"
         style="fill:#486e87;fill-opacity:1;fill-rule:nonzero;stroke:none"
         id="path102" /><path
         d="m 588.805,3122.99 h -47.364 l 47.364,391.82 47.363,-391.82 h -47.363"
         style="fill:#8b86d1;fill-opacity:1;fill-rule:nonzero;stroke:none"
         id="path104" /><path
         d="m 494.078,3154.46 h -47.363 l 47.363,445.35 49.145,-462.09 -49.145,16.74"
         style="fill:#8b86d1;fill-opacity:1;fill-rule:nonzero;stroke:none"
         id="path106" /><path
         d="m 683.531,3083.55 h -47.363 l 47.363,627.16 47.364,-627.16 h -47.364"
         style="fill:#8b86d1;fill-opacity:1;fill-rule:nonzero;stroke:none"
         id="path108" /><path
         d="M 825.613,3073 H 778.25 L 825.613,3464.81 872.98,3073 h -47.367"
         style="fill:#8b86d1;fill-opacity:1;fill-rule:nonzero;stroke:none"
         id="path110" /><path
         d="m 730.895,3083.55 h -47.364 l 47.364,466.26 47.359,-466.26 h -47.359"
         style="fill:#8b86d1;fill-opacity:1;fill-rule:nonzero;stroke:none"
         id="path112" /><path
         d="M 920.344,3047.44 H 872.98 l 47.364,613.27 47.359,-613.27 h -47.359"
         style="fill:#8b86d1;fill-opacity:1;fill-rule:nonzero;stroke:none"
         id="path114" /><path
         d="M 920.344,3060.95 H 872.98 l 47.364,429.77 47.359,-429.77 h -47.359"
         style="fill:#8b86d1;fill-opacity:1;fill-rule:nonzero;stroke:none"
         id="path116" /><path
         d="M 44.1328,3133.67 H -3.22656 L 44.1328,3600.34 91.4922,3133.67 H 44.1328"
         style="fill:#8b86d1;fill-opacity:1;fill-rule:nonzero;stroke:none"
         id="path118" /><path
         d="M 138.855,3199.81 H 91.4922 l 47.3628,633.86 47.368,-633.86 h -47.368"
         style="fill:#8b86d1;fill-opacity:1;fill-rule:nonzero;stroke:none"
         id="path120" /><path
         d="m 280.945,3074.12 h -47.359 l 47.359,466.67 47.368,-466.67 h -47.368"
         style="fill:#8b86d1;fill-opacity:1;fill-rule:nonzero;stroke:none"
         id="path122" /><path
         d="m 186.223,3175.36 h -47.368 l 47.368,466.66 47.363,-466.66 h -47.363"
         style="fill:#8b86d1;fill-opacity:1;fill-rule:nonzero;stroke:none"
         id="path124" /><path
         d="m 375.676,3133.67 h -47.363 l 47.363,640.45 47.355,-640.45 h -47.355"
         style="fill:#8b86d1;fill-opacity:1;fill-rule:nonzero;stroke:none"
         id="path126" /><path
         d="m 375.676,3104.98 h -47.363 l 47.363,466.66 47.355,-466.66 h -47.355"
         style="fill:#8b86d1;fill-opacity:1;fill-rule:nonzero;stroke:none"
         id="path128" /><path
         d="m 1227.49,2950.05 h -47.37 l 47.37,245.9 47.36,-245.9 h -47.36"
         style="fill:#067c4f;fill-opacity:1;fill-rule:nonzero;stroke:none"
         id="path130" /><path
         d="m 1387.48,2938 h -47.36 l 47.36,245.9 47.37,-245.9 h -47.37"
         style="fill:#067c4f;fill-opacity:1;fill-rule:nonzero;stroke:none"
         id="path132" /><path
         d="m 1132.76,2988 h -47.36 l 47.36,245.9 47.36,-245.9 h -47.36"
         style="fill:#067c4f;fill-opacity:1;fill-rule:nonzero;stroke:none"
         id="path134" /><path
         d="m 11270.8,3110.95 h -47.4 l 47.4,391.81 47.3,-391.81 h -47.3"
         style="fill:#55682b;fill-opacity:1;fill-rule:nonzero;stroke:none"
         id="path136" /><path
         d="m 11176.1,3110.95 h -47.4 l 47.4,476.81 47.3,-476.81 h -47.3"
         style="fill:#55682b;fill-opacity:1;fill-rule:nonzero;stroke:none"
         id="path138" /><path
         d="m 11365.5,3145.96 h -47.4 l 47.4,552.71 47.4,-552.71 h -47.4"
         style="fill:#55682b;fill-opacity:1;fill-rule:nonzero;stroke:none"
         id="path140" /><path
         d="m 11507.6,3060.95 h -47.4 l 47.4,391.81 47.4,-391.81 h -47.4"
         style="fill:#55682b;fill-opacity:1;fill-rule:nonzero;stroke:none"
         id="path142" /><path
         d="m 11412.9,3145.96 h -47.4 l 47.4,391.8 47.3,-391.8 h -47.3"
         style="fill:#55682b;fill-opacity:1;fill-rule:nonzero;stroke:none"
         id="path144" /><path
         d="m 11602.3,3110.94 h -47.3 l 47.3,537.73 47.4,-537.73 h -47.4"
         style="fill:#55682b;fill-opacity:1;fill-rule:nonzero;stroke:none"
         id="path146" /><path
         d="m 11602.3,3086.85 h -47.3 l 47.3,391.82 47.4,-391.82 h -47.4"
         style="fill:#55682b;fill-opacity:1;fill-rule:nonzero;stroke:none"
         id="path148" /><path
         d="M 67.8164,3110.95 H 20.4531 l 47.3633,391.81 47.3596,-391.81 H 67.8164"
         style="fill:#067c4f;fill-opacity:1;fill-rule:nonzero;stroke:none"
         id="path150" /><path
         d="m -26.9102,3195.95 h -47.3632 l 47.3632,391.81 47.3633,-391.81 h -47.3633"
         style="fill:#067c4f;fill-opacity:1;fill-rule:nonzero;stroke:none"
         id="path152" /><path
         d="m 164.836,3202.44 -51.391,5.14 49.094,491.09 49.77,-497.84 -47.473,1.61"
         style="fill:#067c4f;fill-opacity:1;fill-rule:nonzero;stroke:none"
         id="path154" /><path
         d="m 304.629,3060.95 h -47.363 l 47.363,391.81 47.363,-391.81 h -47.363"
         style="fill:#067c4f;fill-opacity:1;fill-rule:nonzero;stroke:none"
         id="path156" /><path
         d="m 209.902,3145.95 h -47.363 l 47.363,391.81 47.364,-391.81 h -47.364"
         style="fill:#067c4f;fill-opacity:1;fill-rule:nonzero;stroke:none"
         id="path158" /><path
         d="m 399.352,3110.94 h -47.36 l 47.36,537.73 47.363,-537.73 h -47.363"
         style="fill:#067c4f;fill-opacity:1;fill-rule:nonzero;stroke:none"
         id="path160" /><path
         d="m 399.352,3086.85 h -47.36 l 47.36,391.82 47.363,-391.82 h -47.363"
         style="fill:#067c4f;fill-opacity:1;fill-rule:nonzero;stroke:none"
         id="path162" /><path
         d="m 7271.44,1866.1 c -678.63,0 -1462.45,45.16 -2217.04,160.97 l -30.43,276.91 -29.4,-267.57 c -20.26,3.22 -40.73,6.53 -60.94,9.85 l -40.95,511.5 -39.88,-497.91 c -41.87,7.2 -83.74,14.65 -125.34,22.31 l -27.88,253.78 -26.77,-243.56 c -7.92,1.5 -15.83,3.01 -23.74,4.53 l -35.61,324.03 -34.1,-310.38 c -3.42,0.69 -6.78,1.36 -10.18,2.04 l -41.83,460.23 -40.3,-443.38 c -16.28,3.42 -32.32,6.83 -48.54,10.32 l -31.72,288.68 -30.23,-275.12 c -48.42,10.78 -96.37,21.87 -144.13,33.35 l -39.25,357.21 -37.19,-338.44 c -210.55,52.76 -413.88,112.71 -606.19,180.45 -534.85,188.44 -1079.28,341.83 -1585.06,464.94 l -1.84,12.47 -217.57,217.18 c 34.8,0.17 69.65,0.31 104.3,0.43 l 89.47,-55.71 -8.25,55.91 c 31.75,0.06 63.48,0.09 94.98,0.09 580.52,0 1115.77,-9.96 1415.67,-39.85 554.42,-55.24 2053.13,-497.44 3867.04,-497.46 1130.62,-0.01 2383.62,171.76 3606.96,716.12 81,36.02 160.3,70.12 238.2,102.42 l -25,-251.49 h 37.6 c -113.4,-56.84 -223.7,-113.32 -330.6,-168.92 v 25.41 h -78.7 v -66.53 C 10051.8,2531.26 9500.11,2205.45 9161.24,2065.05 l -34.69,393.84 -37.16,-421.95 c -9.92,-3.63 -19.53,-7.02 -29,-10.23 l -28.56,236.28 -30.76,-254.49 c -7.22,-1.99 -14.58,-3.95 -22.21,-5.92 l -41.76,345.41 -19.64,-162.53 -27.72,323.43 -45.91,-535.81 c -2.5,-0.46 -5.03,-0.94 -7.56,-1.4 l -41.26,341.31 -43,-355.74 c -2.58,-0.41 -5.22,-0.83 -7.82,-1.24 l -43.9,441.98 -45.2,-455 c -341.6,-46.58 -827.27,-76.9 -1383.65,-76.89"
         style="fill:#d9d4cd;fill-opacity:1;fill-rule:nonzero;stroke:none"
         id="path164" /><path
         d="m 4438.51,2139.77 c -20.64,4.44 -41.43,8.99 -61.95,13.56 l 30.23,275.12 31.72,-288.68"
         style="fill:#197d57;fill-opacity:1;fill-rule:nonzero;stroke:none"
         id="path166" /><path
         d="m 4232.43,2186.68 c -25.59,6.15 -51.06,12.4 -76.44,18.77 l 37.19,338.44 39.25,-357.21"
         style="fill:#197d57;fill-opacity:1;fill-rule:nonzero;stroke:none"
         id="path168" /><path
         d="m 4569.18,2112.6 c -27.4,5.5 -54.89,11.14 -82.13,16.85 l 40.3,443.38 41.83,-460.23"
         style="fill:#197d57;fill-opacity:1;fill-rule:nonzero;stroke:none"
         id="path170" /><path
         d="m 4727.46,2082.16 c -18.27,3.36 -36.43,6.76 -54.65,10.22 l 26.77,243.56 27.88,-253.78"
         style="fill:#197d57;fill-opacity:1;fill-rule:nonzero;stroke:none"
         id="path172" /><path
         d="m 4649.07,2096.91 c -23.33,4.48 -46.49,9.02 -69.71,13.65 l 34.1,310.38 35.61,-324.03"
         style="fill:#197d57;fill-opacity:1;fill-rule:nonzero;stroke:none"
         id="path174" /><path
         d="m 4933.63,2046.26 c -27.03,4.44 -53.89,8.96 -80.83,13.59 l 39.88,497.91 40.95,-511.5"
         style="fill:#197d57;fill-opacity:1;fill-rule:nonzero;stroke:none"
         id="path176" /><path
         d="m 5054.4,2027.07 c -20.03,3.08 -39.84,6.17 -59.83,9.34 l 29.4,267.57 30.43,-276.91"
         style="fill:#197d57;fill-opacity:1;fill-rule:nonzero;stroke:none"
         id="path178" /><path
         d="m 8752.01,1957.25 43,355.74 41.26,-341.31 c -26.71,-4.94 -54.79,-9.75 -84.26,-14.43"
         style="fill:#5a6d39;fill-opacity:1;fill-rule:nonzero;stroke:none"
         id="path180" /><path
         d="m 8655.09,1942.99 45.2,455 43.9,-441.98 c -28.47,-4.46 -58.21,-8.81 -89.1,-13.02"
         style="fill:#5a6d39;fill-opacity:1;fill-rule:nonzero;stroke:none"
         id="path182" /><path
         d="m 8843.83,1973.08 45.91,535.81 27.72,-323.43 -24.51,-202.69 c -15.81,-3.28 -32.12,-6.5 -49.12,-9.69"
         style="fill:#5a6d39;fill-opacity:1;fill-rule:nonzero;stroke:none"
         id="path184" /><path
         d="m 9001.07,2008.5 30.76,254.49 28.56,-236.28 c -6.8,-2.3 -13.53,-4.52 -20.09,-6.61 -12.29,-3.91 -25.39,-7.78 -39.23,-11.6"
         style="fill:#5a6d39;fill-opacity:1;fill-rule:nonzero;stroke:none"
         id="path186" /><path
         d="m 8892.95,1982.77 24.51,202.69 19.64,162.53 41.76,-345.41 c -26.21,-6.76 -54.96,-13.38 -85.91,-19.81"
         style="fill:#5a6d39;fill-opacity:1;fill-rule:nonzero;stroke:none"
         id="path188" /><path
         d="m 9089.39,2036.94 37.16,421.95 34.69,-393.84 c -2.44,-1.01 -4.86,-2.01 -7.27,-3 l -27.42,226.84 -30.14,-249.37 c -2.34,-0.87 -4.71,-1.74 -7.02,-2.58"
         style="fill:#5a6d39;fill-opacity:1;fill-rule:nonzero;stroke:none"
         id="path190" /><path
         d="m 9096.41,2039.52 30.14,249.37 27.42,-226.84 c -19.94,-8.17 -39.14,-15.7 -57.56,-22.53"
         style="fill:#5a6d39;fill-opacity:1;fill-rule:nonzero;stroke:none"
         id="path192" /><path
         d="m 1194.17,3023 c -7.19,1.47 -14.48,2.96 -21.64,4.41 l -9.21,47.81 c 13.57,0.17 27.4,0.34 41.01,0.51 L 1194.17,3023 m -98.21,19.84 c -43.72,8.72 -86.72,17.17 -129.054,25.36 l -0.476,4.3 c 44.82,0.67 90.02,1.31 135.61,1.92 l -6.08,-31.58 m 10124.74,95.3 -24,242.02 c 20.9,8.55 41.6,16.96 62.3,25.25 l -31.9,-264.1 c -2.1,-1.06 -4.3,-2.12 -6.4,-3.17 m 88.8,43.96 -28,232.27 c 20.6,8.23 41.3,16.35 61.7,24.32 l -21.4,-250.58 c -4.1,-2.02 -8.2,-3.99 -12.3,-6.01"
         style="fill:#d9d4cd;fill-opacity:1;fill-rule:nonzero;stroke:none"
         id="path194" /><path
         d="m 966.906,3068.2 c -6.886,1.34 -13.867,2.68 -20.715,4 6.762,0.1 13.457,0.2 20.239,0.3 l 0.476,-4.3"
         style="fill:#8686c1;fill-opacity:1;fill-rule:nonzero;stroke:none"
         id="path196" /><path
         d="m 1234.57,3014.71 c -13.56,2.8 -26.95,5.55 -40.4,8.29 l 10.16,52.73 c 12.81,0.16 25.52,0.31 38.37,0.46 l -8.13,-61.48"
         style="fill:#197d57;fill-opacity:1;fill-rule:nonzero;stroke:none"
         id="path198" /><path
         d="m 1172.53,3027.41 c -25.75,5.24 -51.26,10.37 -76.57,15.43 l 6.08,31.58 c 20.38,0.27 40.78,0.54 61.28,0.8 l 9.21,-47.81"
         style="fill:#197d57;fill-opacity:1;fill-rule:nonzero;stroke:none"
         id="path200" /><path
         d="m 11227.1,3141.31 31.9,264.1 c 7.5,3.01 15,5.99 22.5,8.96 l 28,-232.27 c -27.6,-13.61 -55.1,-27.21 -82.4,-40.79"
         style="fill:#5a6d39;fill-opacity:1;fill-rule:nonzero;stroke:none"
         id="path202" /><path
         d="m 11166.3,3110.95 h -37.6 l 25,251.49 c 14.3,5.96 28.7,11.88 43,17.72 l 24,-242.02 c -18.2,-9.05 -36.4,-18.16 -54.4,-27.19"
         style="fill:#5a6d39;fill-opacity:1;fill-rule:nonzero;stroke:none"
         id="path204" /><path
         d="m 11447.7,3249.46 -26.5,219.17 c 57.8,21.89 114.8,42.72 170.8,62.53 l -19.6,-222.05 c -15,-7.11 -30,-14.23 -44.9,-21.34 l -19.9,164.99 -22.4,-185.26 c -12.5,-6.01 -25,-12.03 -37.5,-18.04 m 182.1,86.75 -17.8,202.02 c 105.5,36.99 207.8,70.36 306.9,100.32 l -17.6,-177.12 h 0.8 c -92.2,-41.46 -183.1,-83.32 -272.3,-125.22 m 362.3,165.35 -15.3,154.19 c 14.8,4.34 29.6,8.62 44.3,12.8 l -19.7,-162.86 c -3.2,-1.4 -6.2,-2.73 -9.3,-4.13 m 89.1,39.14 -16.9,140 c 14.5,4.02 28.9,7.97 43.3,11.85 l -12.5,-145.8 c -4.6,-2.02 -9.3,-4.03 -13.9,-6.05 m 139.1,59.81 -14.2,117.73 c 22.1,5.57 44.1,10.97 65.8,16.18 l -14.3,-118.12 c -12.4,-5.25 -24.9,-10.52 -37.3,-15.79 m 80.3,33.84 -12.5,103.92 c 18.7,4.42 37.3,8.72 55.7,12.89 l -10.2,-103.09 c -11,-4.56 -22,-9.15 -33,-13.72 m 112.5,46.45 -8.3,83.74 c 13.3,2.86 26.7,5.65 39.9,8.38 l -10.1,-83.34 c -7.1,-2.9 -14.4,-5.87 -21.5,-8.78 m 88.4,35.77 -8,66.13 c 12.7,2.49 25.3,4.9 37.9,7.26 l -5.5,-63.61 c -8.1,-3.26 -16.3,-6.51 -24.4,-9.78 m 139.6,55.15 -4.4,36.81 c 18.9,3.11 37.6,6.08 56.2,8.91 l -3.2,-26.94 c -16.3,-6.25 -32.4,-12.48 -48.6,-18.78 m 80.7,31.1 -2.2,18.6 c 18.6,2.72 37.2,5.31 55.5,7.75 l -0.5,-6.34 c -17.6,-6.62 -35.3,-13.33 -52.8,-20.01"
         style="fill:#d9d4cd;fill-opacity:1;fill-rule:nonzero;stroke:none"
         id="path206" /><path
         d="m 12434.6,3689.58 10.1,83.34 c 16.4,3.36 32.6,6.62 48.8,9.78 l 8,-66.13 c -22.4,-8.99 -44.6,-17.93 -66.9,-26.99"
         style="fill:#4f7284;fill-opacity:1;fill-rule:nonzero;stroke:none"
         id="path208" /><path
         d="m 12333.6,3648.07 10.2,103.09 c 3.2,0.71 6.3,1.42 9.5,2.13 l -8.9,-100.73 c -3.6,-1.48 -7.2,-3 -10.8,-4.49 m 69.7,28.75 -7.5,85.8 c 3,0.64 6,1.28 9,1.92 l 8.3,-83.74 c -3.3,-1.35 -6.5,-2.63 -9.8,-3.98"
         style="fill:#4f7284;fill-opacity:1;fill-rule:nonzero;stroke:none"
         id="path210" /><path
         d="m 12525.9,3726.35 5.5,63.61 c 18.3,3.43 36.4,6.73 54.4,9.9 l -6.3,-52.27 c -17.8,-7.03 -35.8,-14.17 -53.6,-21.24"
         style="fill:#4f7284;fill-opacity:1;fill-rule:nonzero;stroke:none"
         id="path212" /><path
         d="m 12689.7,3790.5 3.2,26.94 c 9,1.36 17.8,2.68 26.7,3.98 l 2.2,-18.6 c -10.7,-4.09 -21.4,-8.21 -32.1,-12.32"
         style="fill:#4f7284;fill-opacity:1;fill-rule:nonzero;stroke:none"
         id="path214" /><path
         d="m 12579.5,3747.59 6.3,52.27 c 17.1,3 34.1,5.89 50.9,8.67 l 4.4,-36.81 c -20.6,-8.02 -41.1,-16.04 -61.6,-24.13"
         style="fill:#4f7284;fill-opacity:1;fill-rule:nonzero;stroke:none"
         id="path216" /><path
         d="m 12774.6,3822.83 0.5,6.34 c 3.7,0.5 7.3,0.97 11,1.45 l -0.4,-3.59 c -3.7,-1.41 -7.4,-2.79 -11.1,-4.2"
         style="fill:#4f7284;fill-opacity:1;fill-rule:nonzero;stroke:none"
         id="path218" /><path
         d="m 12785.7,3827.03 0.4,3.59 c 3.5,0.45 7,0.9 10.4,1.34 v -0.87 c -3.6,-1.37 -7.2,-2.7 -10.8,-4.06"
         style="fill:#4f7284;fill-opacity:1;fill-rule:nonzero;stroke:none"
         id="path220" /><path
         d="m 12001.4,3505.69 19.7,162.86 c 14.5,4.13 28.9,8.17 43.2,12.15 l 16.9,-140 c -26.7,-11.65 -53.3,-23.3 -79.8,-35.01"
         style="fill:#4f7284;fill-opacity:1;fill-rule:nonzero;stroke:none"
         id="path222" /><path
         d="m 11902.1,3461.43 h -0.8 l 17.6,177.12 c 19.4,5.87 38.7,11.6 57.9,17.2 l 15.3,-154.19 c -30.2,-13.34 -60.1,-26.72 -90,-40.13"
         style="fill:#4f7284;fill-opacity:1;fill-rule:nonzero;stroke:none"
         id="path224" /><path
         d="m 12095.1,3546.75 12.5,145.8 c 18.8,5.07 37.5,10.02 56.1,14.84 l -16.8,-138.23 c -17.3,-7.44 -34.6,-14.94 -51.8,-22.41"
         style="fill:#4f7284;fill-opacity:1;fill-rule:nonzero;stroke:none"
         id="path226" /><path
         d="m 12257.6,3616.3 14.3,118.12 c 5.4,1.3 10.8,2.58 16.2,3.85 l 12.5,-103.92 c -14.4,-6.02 -28.6,-12 -43,-18.05"
         style="fill:#4f7284;fill-opacity:1;fill-rule:nonzero;stroke:none"
         id="path228" /><path
         d="m 12146.9,3569.16 16.8,138.23 c 14.2,3.69 28.3,7.3 42.4,10.85 l 14.2,-117.73 c -24.5,-10.4 -49,-20.87 -73.4,-31.35"
         style="fill:#4f7284;fill-opacity:1;fill-rule:nonzero;stroke:none"
         id="path230" /><path
         d="m 12344.4,3652.56 8.9,100.73 c 4.3,0.96 8.6,1.91 12.8,2.85 l -12,-99.58 c -3.2,-1.31 -6.5,-2.68 -9.7,-4 m 49.4,20.37 -10.5,86.99 c 4.2,0.9 8.4,1.81 12.5,2.7 l 7.5,-85.8 c -3,-1.26 -6.4,-2.63 -9.5,-3.89"
         style="fill:#4f7284;fill-opacity:1;fill-rule:nonzero;stroke:none"
         id="path232" /><path
         d="m 12354.1,3656.56 12,99.58 c 5.8,1.27 11.5,2.53 17.2,3.78 l 10.5,-86.99 c -13.3,-5.49 -26.4,-10.86 -39.7,-16.37"
         style="fill:#4f7284;fill-opacity:1;fill-rule:nonzero;stroke:none"
         id="path234" /><path
         d="m 11393.2,3375.23 -6.8,80.12 c 5.7,2.21 11.6,4.44 17.3,6.63 l -10.5,-86.75"
         style="fill:#d9d4cd;fill-opacity:1;fill-rule:nonzero;stroke:none"
         id="path236" /><path
         d="m 11321.8,3188.11 21.4,250.58 c 14.5,5.63 28.8,11.16 43.2,16.66 l 6.8,-80.12 -19.5,-161.71 c -17.4,-8.48 -34.7,-16.94 -51.9,-25.41"
         style="fill:#5a6d39;fill-opacity:1;fill-rule:nonzero;stroke:none"
         id="path238" /><path
         d="m 11485.2,3267.5 22.4,185.26 19.9,-164.99 c -14.1,-6.74 -28.2,-13.52 -42.3,-20.27"
         style="fill:#5a6d39;fill-opacity:1;fill-rule:nonzero;stroke:none"
         id="path240" /><path
         d="m 11373.7,3213.52 19.5,161.71 10.5,86.75 c 5.9,2.24 11.7,4.44 17.5,6.65 l 26.5,-219.17 c -24.8,-11.98 -49.5,-23.97 -74,-35.94"
         style="fill:#5a6d39;fill-opacity:1;fill-rule:nonzero;stroke:none"
         id="path242" /><path
         d="m 11572.4,3309.11 19.6,222.05 c 6.7,2.37 13.4,4.73 20,7.07 l 17.8,-202.02 c -3.3,-1.55 -6.4,-3.02 -9.7,-4.58 l -17.8,147.04 -19.9,-164.83 c -3.4,-1.61 -6.6,-3.13 -10,-4.73"
         style="fill:#5a6d39;fill-opacity:1;fill-rule:nonzero;stroke:none"
         id="path244" /><path
         d="m 11582.4,3313.84 19.9,164.83 17.8,-147.04 c -12.6,-5.91 -25.2,-11.88 -37.7,-17.79"
         style="fill:#5a6d39;fill-opacity:1;fill-rule:nonzero;stroke:none"
         id="path246" /><path
         d="m 12801.2,3832.86 8.6,-4152.649 H 0 V 3233.11 c 657.5,-96.2 2137.1,-349.5 3549.8,-847.21 1890.1,-665.79 4830.4,-575.8 5490.5,-365.8 554.5,176.41 1957.2,1136.76 3760.9,1812.76"
         style="fill:#aedb58;fill-opacity:1;fill-rule:nonzero;stroke:none"
         id="path248" /><path
         d="M 12800,3280.21 V -319.789 H 0 V 3132.71 c 987,-308.9 2257.2,-731.5 2709.7,-992.61 l -318.2,318.79 c 0,0 2388.4,-948.78 2838.4,-1008.79 450.1,-60.09 1770.2,-30.09 2460.3,0 690,30 1861.3,802.81 1861.3,802.81 0,0 1979.1,1027.3 2879.1,1027.3 h 369.4"
         style="fill:#6d9e18;fill-opacity:1;fill-rule:nonzero;stroke:none"
         id="path250" /><path
         d="M 12801.2,3379.72 12800,-319.789 H 0.0390625 V 3132.71 L 1449.54,2230.1 l 1290.2,-749.89 1710.1,-240.2 h 3870.4 l 820.48,405.78 780.78,-16.68 -704.62,54.34 53.21,26.31 1011.41,-50.65 -943.18,84.4 113.02,55.9 h 685.16 l -629.05,27.76 1543.05,763.14 c 0,0 600.1,359.9 1050.1,329.9 l -268.6,-328.3 c 27.3,31.09 464.4,522.81 969.2,787.81"
         style="fill:#598712;fill-opacity:1;fill-rule:nonzero;stroke:none"
         id="path252" /><path
         d="m 12800,-274.691 v -45.098 H 0 V 2142.2 C 687.797,2078 1736.2,1982.71 3060.1,1870.1 4460.8,1751.01 7460.3,1062.71 9794.61,489.109 11207.2,141.91 12376.2,-163.199 12800,-274.691"
         style="fill:#bce870;fill-opacity:1;fill-rule:nonzero;stroke:none"
         id="path254" /><path
         d="M 9182.87,224.859 7167.2,800.211 6920.73,827.031 5545.5,244.109 6856.49,834.02 l -63.7,6.941 -631.29,-246.852 555.54,255.09 -75.73,8.242 -1299.81,-313.332 1214.74,322.59 -78.53,8.539 L 4096.5,434.109 6400,883.699 6147.2,911.211 c 0,0 -255.04,7.199 -770.41,46.937 -0.06,0 -0.14,0.012 -0.24,0.012 -25.5,0 -1370.66,-140.449 -1370.66,-140.449 0,0 1137.32,158.09 1125.42,159.027 -35.45,2.832 -71.27,5.762 -107.33,8.762 -0.04,0.008 -0.08,0.008 -0.13,0.008 -21.35,0 -1482.35,-245.699 -1482.35,-245.699 0,0 1290.3,253.332 1391.06,253.332 1.23,0 2.3,-0.039 3.17,-0.121 14.66,-1.29 21.23,-1.872 21.4,-1.872 1.05,0 -251.14,22.712 -343.67,32.102 -0.05,0.01 -0.1,0.01 -0.17,0.01 -19.77,0 -831.79,-214.151 -831.79,-214.151 0,0 760.18,221.551 745.85,223.071 -269.47,28.62 -528.11,62.4 -734.95,101.43 -29.5,5.57 -62.64,11.84 -99.22,18.79 v 304.59 c 240.96,-63.63 586.19,-154.93 1287.72,-216.98 1140.6,-100.9 2000.4,-160.9 2280.5,-240.901 280.1,-80 1147.1,-440 1533.6,-580 87.96,-31.839 260.6,-87.48 482.98,-154.398 -31.72,-13.383 -63.42,-26.66 -95.11,-39.852 M 0,978.109 V 1920.1 c 201.402,-73.19 429.695,-120.69 683.5,-120.69 283.664,-0.08 570.12,-16.76 845.11,-41.79 V 1568.07 C 945.418,1680.48 381.551,1789.33 0,1863.01 v -703.9 -181.001 m 3552.1,201.141 c -284.12,54.17 -693.94,132.84 -1144.52,219.53 v 252.36 c 413.84,-59.86 739.01,-116.17 893.92,-121.13 86.72,-2.78 164.27,-16.45 250.6,-36.94 v -313.82 m -1285.6,246.68 c -195.24,37.57 -396.45,76.33 -596.81,114.94 v 203.1 c 209.38,-21.4 410.47,-46.94 596.81,-72.82 v -245.22"
         style="fill:#9abe5e;fill-opacity:1;fill-rule:nonzero;stroke:none"
         id="path256" /><path
         d="m 11251.1,1409.61 c 0,0 687.2,174.5 1548.9,389.8 V -319.789 H 7261.4 c 264.2,60.797 491.9,105.699 638.8,119.699 366.7,34.899 1211.2,384.899 1894.41,689.199 490.59,218.5 898.09,413.301 985.89,450.903 210,89.998 470.6,469.598 470.6,469.598"
         style="fill:#ddf9a7;fill-opacity:1;fill-rule:nonzero;stroke:none"
         id="path258" /><path
         d="M 12800,1570.9 V -319.789 H 8585.5 c 311.6,177.699 641.1,335.4999 916,398.8984 73.3,16.8984 144.8,36.4996 214.3,58.0896 669.6,208.012 1145.7,602.61 1145.7,602.61 0,0 676.4,479.301 788.2,479.301 56,0 610.6,176.1 1150.3,351.79"
         style="fill:#bad188;fill-opacity:1;fill-rule:nonzero;stroke:none"
         id="path260" /><path
         d="M 12800,596.309 V -319.789 H 8912.9 c 191.2,143.398 354,238.8984 448.6,238.8984 156.4,0 410.1,51.3008 684.7,126.8984 214.9,59.1832 442.7,133.2732 646.5,209.3012 5.8,2.14 128.8,270.472 128.8,270.472 l -90.3,-255.98 c 0,0 8.5,3.379 23,9.269 2.9,1.2 310.5,519.692 314,521.09 2,0.82 -256.2,-507.691 -254.1,-506.808 82.9,33.738 232.2,105.527 314.6,147.148 23.7,11.969 403.5,665.24 403.5,665.24 l -348.2,-652.881 19.3,5.379 399,545.872 -379.6,-543.751 c 0,0 1112.6,125.45 1577.3,135.95"
         style="fill:#95a568;fill-opacity:1;fill-rule:nonzero;stroke:none"
         id="path262" /><path
         d="m 7734.7,1696.82 400.13,59.49 h -800 l 753.34,43.1 h -860 l 1415.83,103.87 570.83,155.83 -760,-340 -720.13,-22.29"
         style="fill:#96bd51;fill-opacity:1;fill-rule:nonzero;stroke:none"
         id="path264" /><path
         d="M 11091,-319.789 H 0 V 1863.01 c 984,-190.01 3181.3,-614.1 3792.4,-729.4 206.84,-39.03 465.48,-72.81 734.95,-101.43 14.33,-1.52 -745.85,-223.071 -745.85,-223.071 0,0 817.59,215.591 831.96,214.141 107.26,-10.88 429.01,-39.66 322.27,-30.23 -72.15,6.378 -1394.23,-253.211 -1394.23,-253.211 0,0 1468.16,246.902 1482.48,245.691 36.06,-3 71.88,-5.93 107.33,-8.762 11.9,-0.937 -1125.42,-159.027 -1125.42,-159.027 0,0 1356.07,141.578 1370.9,140.437 515.37,-39.738 770.41,-46.937 770.41,-46.937 l 252.8,-27.512 -2303.5,-449.59 2381.21,441.129 78.53,-8.539 -1214.74,-322.59 1299.81,313.332 75.73,-8.242 -555.54,-255.09 631.29,246.852 63.7,-6.941 -1310.99,-589.911 1375.23,582.922 246.47,-26.82 3923.8,-1120"
         style="fill:#7b9b49;fill-opacity:1;fill-rule:nonzero;stroke:none"
         id="path266" /><path
         d="m 10061.8,4739.11 c -53.6,0 -108.63,9.86 -167.06,33.13 -239.38,95.32 -300.87,179.33 -545.46,179.33 -23.68,0 -49.08,-0.79 -76.51,-2.43 -208.52,-12.47 -364.1,-57.57 -501.28,-57.57 -67.33,0 -130.24,10.87 -192.77,41.8 -165.3,81.77 -127.91,301.99 -6.56,301.99 18.08,0 38.06,-4.91 59.48,-15.88 40.03,-20.51 66.59,-40.3 83.9,-58.52 12.48,24.37 43.2,46.85 108.04,58.52 18.71,3.37 35.79,4.88 51.38,4.88 67.03,0 106.53,-28.01 129.52,-57.25 -8.57,40.12 1.74,88.52 83.72,113.65 17.53,5.37 33.94,7.76 49.28,7.76 50.21,0 88.78,-25.58 116.71,-55.42 24.37,72.35 87.93,120.85 157.26,120.85 21.55,0 43.66,-4.69 65.31,-14.79 0,0 -21.73,108.82 135.04,108.82 24.75,0 53.95,-2.71 88.39,-8.99 252.57,-46.07 319.01,-158.23 319.01,-158.23 0,0 -52.45,159.02 124.8,159.02 7.1,0 14.6,-0.26 22.5,-0.79 204,-13.81 320.6,-158.23 320.6,-158.23 0,0 -8.3,76.57 214.4,83.61 3.6,0.11 7.2,0.17 10.8,0.17 219.2,0 441.8,-208.18 441.8,-208.18 0,0 61.6,-57.35 116.1,-57.35 27.2,0 52.8,14.34 68,57.35 38.5,108.95 -75.5,117.42 -111.9,117.42 -6.7,0 -10.8,-0.28 -10.8,-0.28 0,0 96.7,55.11 178.3,55.11 41.7,0 79.5,-14.46 98.2,-58.15 50.3,-117.56 -23.5,-258.87 -186.1,-258.86 -15.9,0 -32.6,1.34 -50.1,4.19 -23.2,3.76 -84.7,13.69 -172.3,13.69 -110.7,0 -262.9,-15.9 -431.1,-80.34 -234.3,-89.69 -403.5,-210.03 -590.6,-210.03"
         style="fill:#e6feff;fill-opacity:1;fill-rule:nonzero;stroke:none"
         id="path268" /><path
         d="m 11445.4,5788.26 c -36.2,0 -73.4,5.24 -112.9,17.6 -161.7,50.66 -203.2,95.31 -368.5,95.31 -16,0 -33.2,-0.42 -51.7,-1.29 -140.9,-6.63 -246,-30.6 -338.7,-30.6 -45.5,0 -88,5.78 -130.3,22.22 -99.4,38.67 -90.3,135.64 -29.3,156.49 l 62.1,-3.27 c 1,-0.38 2,-0.77 3,-1.17 27,-10.9 45,-21.42 56.7,-31.1 6.7,10.27 21.1,19.91 48.7,26.56 l 123.3,-6.51 c 9.7,-4.96 17.2,-10.83 23.2,-16.78 -1.4,5.04 -2,10.33 -1.5,15.64 l 1626.9,-85.76 c -19.6,-7.91 -43.1,-12.53 -70.4,-12.53 -10.7,0 -22,0.72 -33.8,2.23 -15.7,2 -57.3,7.28 -116.4,7.28 -74.8,0 -177.6,-8.46 -291.4,-42.7 -158.2,-47.67 -272.6,-111.62 -399,-111.62"
         style="fill:#e6feff;fill-opacity:1;fill-rule:nonzero;stroke:none"
         id="path270" /><path
         d="m 12356.4,5945.6 -1626.9,85.76 c 1.7,17.15 15.8,34.56 58.1,44.76 11.8,2.85 22.9,4.12 33.3,4.12 33.9,0 60,-13.6 78.8,-29.46 16.5,38.46 59.4,64.23 106.3,64.23 14.5,0 29.5,-2.49 44.1,-7.86 0,0 -14.7,57.84 91.3,57.84 16.7,0 36.4,-1.45 59.7,-4.78 170.6,-24.49 215.6,-84.09 215.6,-84.09 0,0 -35.5,84.51 84.3,84.51 4.8,0 9.8,-0.14 15.1,-0.42 137.9,-7.35 216.7,-84.09 216.7,-84.09 0,0 -5.6,40.69 144.9,44.43 2.4,0.06 4.8,0.09 7.2,0.09 148.2,0 298.6,-110.64 298.6,-110.64 0,0 41.6,-30.48 78.4,-30.47 18.4,0 35.7,7.62 45.9,30.47 26.1,57.9 -50.9,62.41 -75.6,62.41 -4.5,0 -7.3,-0.16 -7.3,-0.16 0,0 65.4,29.29 120.5,29.29 28.2,0 53.7,-7.68 66.4,-30.9 25.6,-46.98 3.7,-101.09 -55.4,-125.04 m -1648.6,86.9 -123.3,6.51 c 7.1,1.73 15.2,3.26 24.3,4.54 12.6,1.79 24.2,2.59 34.7,2.59 27.9,0 48.8,-5.66 64.3,-13.64 m -231.7,12.22 -62.1,3.27 c 7.5,2.58 15.9,4 24.9,4 11.4,0 23.8,-2.26 37.2,-7.27"
         style="fill:#effefe;fill-opacity:1;fill-rule:nonzero;stroke:none"
         id="path272" /><path
         d="m 2266.5,1319.11 h 141.082 v 710.02 H 2266.5 Z"
         style="fill:#33241a;fill-opacity:1;fill-rule:nonzero;stroke:none"
         id="path274" /><path
         d="m 1528.61,1401.3 h 141.082 v 479.059 H 1528.61 Z"
         style="fill:#33241a;fill-opacity:1;fill-rule:nonzero;stroke:none"
         id="path276" /><path
         d="m 3552.1,964.102 h 141.078 v 710.02 H 3552.1 Z"
         style="fill:#33241a;fill-opacity:1;fill-rule:nonzero;stroke:none"
         id="path278" /><path
         d="m 2110.4,1863.01 -576.4,13.6 -217.4,5.1 -231.2,5.39 53.8,406.51 264.1,347.9 101,133.19 c -4.8,-4.2 -42.6,-37.29 -94.9,-82.5 -70.6,-60.99 -167.4,-144.39 -245.2,-209.19 l 120.5,910.5 213.3,331.4 -197.2,-209.6 151.4,1144.2 147,182 -137.6,-111.2 106.9,808.2 121,-820.9 28.3,-192.2 0.1,-0.4 38.3,-260 -54.7,25.8 -72.8,34.4 -29.5,13.9 28.5,-20.5 72.1,-51.9 62.9,-45.3 176.4,-1196.2 -311.9,194.2 -55.9,34.8 54.5,-54.4 337.1,-336.5 147.5,-1000.3"
         style="fill:#60936c;fill-opacity:1;fill-rule:nonzero;stroke:none"
         id="path280" /><path
         d="m 1756.2,4265.01 -54.7,25.8 16.3,234.6 0.1,-0.4 38.3,-260"
         style="fill:#4b6445;fill-opacity:1;fill-rule:nonzero;stroke:none"
         id="path282" /><path
         d="m 1939.1,3025.21 -251.47,156.57 -60.43,37.63 72.6,1047.3 62.9,-45.3 176.4,-1196.2"
         style="fill:#4b6445;fill-opacity:1;fill-rule:nonzero;stroke:none"
         id="path284" /><path
         d="m 2110.4,1863.01 -440.71,10.39 -135.69,3.21 91.8,1323.2 337.1,-336.5 147.5,-1000.3"
         style="fill:#4b6445;fill-opacity:1;fill-rule:nonzero;stroke:none"
         id="path286" /><path
         d="m 1316.6,1881.71 v 0 l -231.2,5.39 53.8,406.51 264.1,347.9 c -36.1,-301.4 -65.3,-562.21 -86.7,-759.8"
         style="fill:#83af7c;fill-opacity:1;fill-rule:nonzero;stroke:none"
         id="path288" /><path
         d="m 1627.7,4318.61 v 0 l -28.5,20.5 29.5,-13.9 v 0 c -0.4,-2.2 -0.7,-4.4 -1,-6.6"
         style="fill:#ebf1e6;fill-opacity:1;fill-rule:nonzero;stroke:none"
         id="path290" /><path
         d="m 1164.2,2483.01 120.5,910.5 213.3,331.4 -197.2,-209.6 151.4,1144.2 147,182 -137.6,-111.2 106.9,808.2 121,-820.9 c -20.9,-130.7 -41.2,-261.8 -60.8,-392.4 v 0 l -29.5,13.9 28.5,-20.5 v 0 c -87.2,-580.4 -161,-1150.9 -218.3,-1626.41 v 0 c -70.6,-60.99 -167.4,-144.39 -245.2,-209.19"
         style="fill:#83af7c;fill-opacity:1;fill-rule:nonzero;stroke:none"
         id="path292" /><path
         d="m 2940.8,2042.81 -313.2,-8.6 -151.4,-4.2 -556.9,-15.4 -264.9,-7.41 104.3,593.7 266,359.31 205.7,277.9 -196.2,-201.4 -242.7,-249.2 202.4,1152.4 c 63.2,62.8 134.2,133.09 198.6,196.8 105.8,104.7 193.6,191.6 199.4,197.3 l -191.3,-147.9 -189.2,-146.41 207,1178.61 153,111.4 -144.4,-62.5 154.6,880.4 77.6,441.5 81,-764.7 v -0.2 l 116.1,-1095.5 -67.1,13.6 -67.3,13.7 68.5,-34.1 70.3,-34.9 102.5,-967.5 -126.9,64.4 -186.4,94.49 189.2,-170 138.4,-124.39 163.3,-1541.2"
         style="fill:#6b8744;fill-opacity:1;fill-rule:nonzero;stroke:none"
         id="path294" /><path
         d="m 2476.2,2030.01 -556.9,-15.4 -264.9,-7.41 104.3,593.7 266,359.31 205.7,277.9 -196.2,-201.4 -242.7,-249.2 202.4,1152.4 c 63.2,62.8 134.2,133.09 198.6,196.8 105.8,104.7 193.6,191.6 199.4,197.3 l -191.3,-147.9 -189.2,-146.41 207,1178.61 153,111.4 -144.4,-62.5 154.6,880.4 c 41.7,-1211.9 88,-3230.41 94.6,-4117.6"
         style="fill:#4b5e2a;fill-opacity:1;fill-rule:nonzero;stroke:none"
         id="path296" /><path
         d="m 2656.3,4728.71 -67.1,13.6 c -57.5,994.2 -130,1846.8 -130,1846.8 l 81,-764.7 v -0.2 l 116.1,-1095.5"
         style="fill:#bad188;fill-opacity:1;fill-rule:nonzero;stroke:none"
         id="path298" /><path
         d="m 2636.3,3783.91 c -12.1,311.8 -28.3,631.4 -45.9,938 l 70.3,-34.9 102.5,-967.5 -126.9,64.4"
         style="fill:#bad188;fill-opacity:1;fill-rule:nonzero;stroke:none"
         id="path300" /><path
         d="m 2940.8,2042.81 -313.2,-8.6 c 41.2,372.59 36.3,1001.1 11.5,1674.19 l 138.4,-124.39 163.3,-1541.2"
         style="fill:#bad188;fill-opacity:1;fill-rule:nonzero;stroke:none"
         id="path302" /><path
         d="m 4136.4,1530.01 -218.9,8.7 -808.6,32.19 53.8,406.51 365.4,481.4 c -6.2,-5.41 -203.1,-177.5 -340.4,-292.01 l 120.5,910.51 213.3,331.4 -197.2,-209.5 151.4,1144.1 48.7,60.3 98.2,121.8 -106.3,-86 -31.3,-25.3 13.7,103.3 93.3,704.9 187.7,-1273.5 -157.1,74.1 163.6,-117.7 176.3,-1196.2 -130.8,81.4 -236.9,147.59 251.7,-251.29 139.9,-139.6 150,-1017.1"
         style="fill:#6b8744;fill-opacity:1;fill-rule:nonzero;stroke:none"
         id="path304" /><path
         d="m 3962.5,2709.01 -130.8,81.4 c -76.8,523.7 -191.7,1095.49 -307.3,1613.2 -2.8,12 -5.4,23.9 -8.1,35.8 -5.9,26.2 -11.8,52.2 -17.6,78 l 93.3,704.9 187.7,-1273.5 -157.1,74.1 163.6,-117.7 176.3,-1196.2"
         style="fill:#bad188;fill-opacity:1;fill-rule:nonzero;stroke:none"
         id="path306" /><path
         d="m 3917.5,1538.71 c 22.3,298.49 -9.3,702.9 -71,1148 l 139.9,-139.6 150,-1017.1 -218.9,8.7"
         style="fill:#bad188;fill-opacity:1;fill-rule:nonzero;stroke:none"
         id="path308" /><path
         d="m 10757,2397.99 h 78.699 v 569.453 H 10757 Z"
         style="fill:#42372d;fill-opacity:1;fill-rule:nonzero;stroke:none"
         id="path310" /><path
         d="m 11162.9,2938 -366.6,-34.79 -366.5,-34.7 c 2.8,70.6 5.3,143.29 7.7,217.39 l 358.8,220.9 -356.5,-145.29 c 4.7,164.1 8.4,334.6 11.2,505.9 0.2,11.7 0.4,23.49 0.6,35.19 l 5.5,6.7 339.1,416.11 c -5.1,-3.3 -157.8,-102.3 -307.6,-187.1 -11.4,-6.4 -22.7,-12.81 -34,-19.01 3.8,319.91 4.9,633.11 4.9,903.21 l 104.6,192 22.9,42 -24.4,-24 -103.2,-101.2 c -0.7,423.8 -4.2,717.1 -4.2,717.1 l 0.1,-0.2 0.1,-0.2 v -0.1 c 235.7,-373.9 392.8,-816.8 497.8,-1235.1 l -175.8,-7.6 -14.1,-0.6 -70.6,-3 78.2,-38.3 15.1,-7.4 204.5,-100 c 70.7,-314.9 112.6,-608.31 137.3,-838 l -258.2,79.69 -4.8,1.51 -68.5,21.2 68.2,-56.3 5.7,-4.7 275.3,-227.11 c 15.2,-183.09 17.4,-294.2 17.4,-294.2"
         style="fill:#6b8744;fill-opacity:1;fill-rule:nonzero;stroke:none"
         id="path312" /><path
         d="m 11145.5,3232.2 -281,231.81 -68.2,56.3 331.5,-102.4 c -24.7,229.69 -66.6,523.1 -137.3,838 l -219.6,107.4 -78.2,38.3 84.7,3.61 175.8,7.59 c -105,418.4 -262.2,861.5 -497.9,1235.4 l 0.4,-1.31 -0.1,0.31 c 5.1,-18.2 79.3,-288.1 107,-614.7 l 24.4,24 -22.9,-42 c 7.2,-91 10.6,-186 7.9,-281 -4.8,-167.4 -40.3,-473.9 -83.4,-795.2 149.8,84.8 302.5,183.8 307.6,187.1 l -339.1,-416.11 c -2.1,-13.99 -4,-27.99 -6.1,-41.89 -2.8,-171.3 -6.5,-341.8 -11.2,-505.9 l 356.5,145.29 -358.8,-220.9 c -2.4,-74.1 -4.9,-146.79 -7.7,-217.39 l 366.5,34.7 366.6,34.79 c 0,0 -2.2,111.11 -17.4,294.2"
         style="fill:#4b5e2a;fill-opacity:1;fill-rule:nonzero;stroke:none"
         id="path314" /><path
         d="M 0,316.59 V 978.109 L 1528.61,1401.3 h 141.08 L 0,316.59"
         style="fill:#739045;fill-opacity:1;fill-rule:nonzero;stroke:none"
         id="path316" /><path
         d="M 469.805,0 H 0 V 311.078 L 2266.5,1319.11 h 141.08 L 469.805,0"
         style="fill:#739045;fill-opacity:1;fill-rule:nonzero;stroke:none"
         id="path318" /><path
         d="m 2120.72,0 h -722.7 L 3552.1,964.102 h 141.08 L 2120.72,0"
         style="fill:#739045;fill-opacity:1;fill-rule:nonzero;stroke:none"
         id="path320" /><path
         d="m 12375,1696.82 -1618,701.17 h 78.7 l 1960.8,-597.51 v -1.91 L 12375,1696.82"
         style="fill:#567f16;fill-opacity:1;fill-rule:nonzero;stroke:none"
         id="path322" /><path
         d="m 12442.6,0 1.7,20.0586 L 12449.7,0 Z m -434.5,0 54.3,172.691 L 12112.3,0 Z m -47.6,33.5078 65.4,265.6522 27.2,-94.332 -86.5,-186.7772 z M 11855.3,0 11854,6.35938 c 1.6,-2.12891 3.2,-4.23047 4.8,-6.35938 z M 11634.6,39.0586 11615.8,0 h -64.8 l -0.1,0.75 86.5,127.219 z M 11633.4,0 h -2.3 l 2.5,6.48828 z m -408.1,0 -10.8,15.7891 54.4,105.3399 c 15.1,-22.5587 30.6,-45.0587 46.7,-67.4181 13,-18.0312 26.7,-35.9218 40.9,-53.7109 z m -77.2,0 -104.7,179.75 c 7,11.578 13.9,23.18 20.7,34.801 23.3,-44.93 47.6,-89.653 73.3,-134.0119 15.8,-27.0508 32.2,-53.9375 49.7,-80.5391 z m -207.5,0 -5.3,15.0117 c 22.9,30.6094 43.8,61.7578 63.9,93.1093 13.4,20.988 26.4,42.078 39.2,63.207 L 11130.9,0 Z m -46.1,129.871 63.2,191 70.5,-130.609 -105.4,-140.094 z M 10885,0 h -33.5 l 32.2,97.3711 21.3,-70.8398 z m -162.7,0 -43.2,85.9102 -0.1,4.9609 L 10733,0 Z m -41.8,0 -0.9,55.1406 L 10701.7,0 Z m -177.9,0 4.5,24.1797 L 10513.5,0 Z m -33.8,0 18.4,99.0391 17.6,-66.418 L 10497.6,0 Z m -132.4,0 -84.8,211.852 34.8,102.039 L 10350.3,0 Z m -97.9,0 -40.9,53.168 45.2,132.672 L 10292.1,0 Z m -59,0 15,43.9102 L 10225.9,0 Z m -33.7,120.59 59.8,205.672 29.7,-112.153 -51.1,-105.929 2.5,13.308 -3.3,-15.058 -10.3,-21.348 z M 10132.1,0 h -21.4 l 33.3,114.43 25.8,-36.0902 z m -59.2,0 38.2,120.789 8.6,27.5 6.4,-8.859 L 10073.5,0 Z M 9923.76,0 9919.45,5.60156 9904.82,83.3008 9979.7,303.34 10041.5,0 Z m -93.14,37.0313 -69,172.5587 87.17,-121.7306 c -6.18,-17.2305 -12.25,-34.25 -18.17,-50.8281 z M 9539.02,0 9561.23,70.4805 9566.32,0 Z m -26.88,0 -69.27,94.7109 100.62,220.8201 14.11,-195.062 C 9542.76,79.1484 9528.05,38 9514.51,0 Z m -90.01,0 -8.28,31.0586 26.17,57.4297 L 9497.87,0 Z M 8960.01,0 8946.77,73.3789 9004.37,8.51953 9006.26,0 Z M 3951.86,0 3953.15,4.12891 3954.49,0 Z m -30.56,0 h -34.2 l 29.3,118.879 24.49,-76.6095 z m -181.54,213.949 59.6,-186.4373 0.68,-2.0898 c 1.32,-8.6406 2.6,-17.11331 3.83,-25.4219 h -59.04 v 85.7813 c 0,0 -1.81,-47.0196 -4.09,-85.7813 H 3672.5 Z M 3277.45,0 h -40.91 l 43.5,63.9805 z m -696.59,11.7305 c 22.91,38.5508 43.83,77.789 63.97,117.2575 4.85,9.551 9.51,19.172 14.27,28.742 L 2744.23,0 H 2584.17 Z M 1506.77,0 1513.49,21.3203 1515.03,0 Z M 1114.07,0 1088.46,35.0117 1203.2,286.77 1223.94,0 Z M 1072.5,0 1085.63,28.7891 1104.44,0 Z m 11556,0 c 13.6,103.371 32.4,239.852 32.4,239.852 L 12597.4,0 h -125.5 c -7.5,24.5117 -15.1,49.6211 -22.8,74.7813 l 54.7,631.1367 -17.9,-114.098 c 1.5,470.59 -147.2,790.51 -149.3,794.89 -2.3,4.99 -8.3,7.1 -13.3,4.73 -5,-2.37 -7.1,-8.34 -4.7,-13.33 2.3,-4.85 186.4,-401.34 139.8,-960.669 l -38.8,-246.73 c -40.4,130.73 -75.9,241.957 -80.8,246.289 l 75.1,-282.461 -5,-31.59 c -7.7,-33.0701 -16.2,-66.4802 -25.8,-100.23025 -0.3,-0.91797 -0.2,-1.820312 -0.2,-2.71875 h -51.9 c -38.6,337.43 -190.2,577.379 -315.3,722.512 -145.5,168.758 -287.9,249.519 -289.3,250.308 -4.9,2.719 -10.9,0.989 -13.6,-3.832 -2.7,-4.816 -1,-10.918 3.8,-13.609 5.4,-3.008 518.2,-297.801 594.2,-955.379 h -159.6 l -8.8,21.2383 117.5,172.7497 -120.6,-165.3161 -69.6,167.0271 43.7,139.153 -53.6,-115.594 -33.7,80.82 19.1,77.402 -97.7,-310.8511 -36.6,94.0901 -90,232.992 75.6,-236.352 38.1,-118.1285 2.2,-6.7305 -10.2,-32.5 h -12.2 l -136.7,424.641 94.9,-389.2894 -36.2,52.75 -15.5,70.8394 11.8,-65.5816 -164.2,239.1096 c 0,0 0.9,-1.75 2.5,-4.957 34.3,-69.403 70.6,-138.352 110.1,-206.512 20.4,-34.8594 41.5,-69.5312 65,-103.5391 l 0.4,-0.4609 2.9,-17 h -191 l -2,65.1094 37.8,97.3596 -38.4,-79.4768 -2.1,68.9958 58.1,85.434 -58.3,-78.141 -7.6,245.93 -8.2,-267.102 -89.5,-119.9176 -44.7,291.9106 V 0 h -99.9 l 156.5,501.148 -178.2,-486.9371 -104.8,122.8281 130.5,252.461 -136.5,-245.398 -68.1,79.878 c 0,0 0.8,-1.41 2.5,-3.992 18.5,-30.218 37.7,-60.32 57.6,-90.269 l -56.7,-102.0901 -136,197.9021 c 15.2,26.219 30.1,52.5 44.6,78.887 1.7,3.07 2.6,4.754 2.6,4.754 l -54.7,-72.703 -38.1,55.543 c 0,0 0.8,-1.75 2.5,-4.961 9.6,-19.59 19.5,-39.129 29.6,-58.641 l -23.6,-31.289 -74.3,127.68 10.9,33.058 -4.6,0.661 4.6,-0.54 -4.6,0.668 -10,-27.609 -43.1,74.172 41.9,-77.672 -65.4,-181.32 L 10762,503.148 10878,116.551 10836,0 h -27.9 l 6,293.352 L 10767,0 h -21.1 l -67.1,102.582 -4.9,296.918 -15.4,-265.949 -14.7,22.527 -22.9,45.551 10.9,-27.211 -27.6,42.133 32.8,-55.02 20.2,-50.601 L 10650.8,0 h -113.5 l -6.1,15.2188 23.2,124.7692 -25.9,-117.8396 -14.9,37.1524 15.6,83.9372 -17.5,-79.2771 -21.1,52.9881 2.8,15.071 v 0.019 l -3.2,-14.258 -23.6,59.117 20,-75.519 L 10464.3,0 h -50 L 10542.8,441.879 10376.2,0 l 0.8,2.42969 40.8,128.89831 80.9,257.953 -95.3,-254.062 -38.7,-102.5979 -76.2,287.4379 5,14.793 -5.8,-11.981 -13.7,51.68 11.5,-56.321 -41.8,-86.601 -38,95.109 30.4,104.59 -108.3,-287.359 -6.7,8.691 70.9,226.07 -80.2,-213.972 -55.9,72.664 54.6,-76.192 -13.7,-36.57 -38.8,-102.5897 -76.2,287.4417 5.03,14.777 -5.77,-11.969 -13.7,51.668 11.46,-56.32 -83.6,-173.398 -3.95,20.96 90.33,286.649 c -5.42,-4.211 -49.18,-122.219 -96.6,-253.348 l -63.19,335.598 37.34,-407.399 c -2.69,-7.468 -5.36,-14.91 -8.01,-22.3198 L 9760.62,212.07 9727.76,294.25 9805.78,0 h -74.17 l -75.71,284.25 c 0,0 25.43,-198.4102 35.03,-284.25 h -70.82 l -26.09,174.551 80.92,256.777 c -5.02,-3.887 -42.76,-104.93 -85.87,-223.719 l -23.41,156.571 90.24,198 -91.76,-187.77 -48.24,322.59 26.55,-366.969 -108.83,-222.691 -55.56,75.961 53.03,-81.141 -23.41,-47.91 -58.45,219.461 c 0,0 22.95,-178.9922 33.48,-270.54303 L 9381.16,0 h -82.59 L 9378.06,562.18 9253.9,0 h -54.01 L 9289.2,334.852 9176.55,17.2109 9097.74,214.281 9154.56,0 h -63.18 L 9021.93,221.898 9077.56,0 h -25.49 L 8986.44,165.699 9041.4,0 h -12.74 l -11.08,11.2891 -52.36,173.5699 34.49,-155.359 -55.15,56.2109 -63.04,349.4371 34.68,-320.539 -63.47,64.672 64.3,-72.41 L 8928.59,0 H 8764.5 L 8713.48,457.699 8752.15,0 h -77.6 L 8652.74,230.07 8661.56,0 H 8419.8 L 8351.5,349.109 8387.52,0 H 8254.58 L 8201.04,160.781 8248.38,0 h -130.94 c -0.55,24.2891 -1.6,48.5078 -2.98,72.6914 -3.24,54.7776 -7.69,109.4106 -12.96,163.9496 1.94,-54.75 3.07,-109.52 2.96,-164.2308 C 8104.38,48.2305 8103.95,24.0781 8103.02,0 H 5201.09 l 9.82,34.2305 41.04,135.1875 L 5202.61,34.8516 5190.42,0 h -6.41 L 5182.45,8.57813 5159.63,146.59 5174.45,6.71094 5175.26,0 h -68.45 L 5096.29,58.0117 5073.47,196.02 5088.29,56.1406 5095.1,0 h -114.58 l 2.03,7.07031 L 5023.58,142.27 4974.25,7.69922 4971.55,0 h -4.72 l 49,155.891 L 4943.59,0 h -28.25 l -0.16,0.890625 -6.58,33.781275 -14.03,67.3981 -29.37,134.571 v -0.02 L 4889.62,101.43 4901.18,33.7813 4906.5,0 H 4593.21 L 4801.5,349.109 4574.52,0 H 4409.89 L 4477.55,215.219 4377.82,0 h -31.99 L 4409.37,257.852 4328.31,0 h -37.28 l -16,41.1016 L 4185.05,274.09 4260.61,37.7305 4272.79,0 h -51.84 l -8.96,43.0391 -29.37,134.5699 v -0.007 -0.012 L 4207.05,42.4102 4214.29,0 H 4098.11 L 4162.55,205.012 4067.55,0 h -34.2 L 4094.37,247.621 4016.52,0 h -44.47 l -11.17,28.6992 55.42,176.3128 -67.37,-145.3909 -28.77,74.5079 27.96,113.492 -32.22,-102.48 -45.85,118.718 41.94,-131.168 -38.1,-121.191 -3.84,17.5898 3.42,-18.9218 L 3870.27,0 H 3825.8 L 3823.14,6.82031 3759,275.148 c 0,0 15.17,-87.238 30.17,-180.5269 L 3741.25,218.691 3759,275.148 3737.43,228.59 3723.8,263.859 3736.04,225.59 3631.49,0 h -18.97 l 78.3,317.77 L 3593.1,6.92969 3575.13,53.0781 3552.09,574.109 V 112.371 l -85.59,221.641 75.56,-236.3636 10.03,-31.0976 V 0 h -34.26 l -1.35,7.58203 -6.58,33.78907 -14.04,67.4099 -29.36,134.571 24.42,-135.211 11.56,-67.6605 5.33,-33.83987 L 3508.75,0 h -203.2 l -3.89,95.7695 55.72,81.9495 -56,-75.051 -9.88,242.84 L 3280.48,74.6602 3224.77,0 h -37.33 l -38.35,250.41 V 0 h -79.49 l -126.48,436.141 -4.67,-0.7 L 3018.25,0 h -239.29 l 79.2,412.441 L 2757.2,2.96875 2662.77,165.141 c 34.5,69.789 66.95,140.199 97.79,211.07 1.72,3.859 2.64,5.969 2.64,5.969 l -114.85,-192.27 -90.6,155.598 87.12,-161.43 L 2568.38,56.0078 2407.58,626.488 2550.6,26.25 2543.87,14.9805 2368.16,349.109 2527.68,0 h -83.34 C 2399.17,110.012 2311.5,349.109 2311.5,349.109 L 2418.25,0 h -80.4 L 2266.5,141.93 2323.35,0 h -236.69 l -3.87,13.7383 1.42,10.0937 104.14,358.348 -85.69,-227.391 56.93,404.141 -90.36,-492.8206 -0.69,-1.8399 L 1929.42,557.84 2055.36,29.2813 2044.32,0 H 1845.46 L 1939.1,275.148 1818.69,25.3906 1701.5,177.719 1815.43,18.6406 1806.44,0 h -241.41 l -18.75,125.398 80.92,256.782 c -5.01,-3.891 -42.75,-104.93 -85.86,-223.719 l -73.18,489.391 41.71,-576.5434 C 1501.24,47.2891 1492.65,23.332 1484.31,0 H 1361.3 l -59.8,224.559 c 0,0 16.6,-129.5082 28.04,-224.559 h -59.16 l -48.89,326.93 80.01,175.55 -81.36,-166.492 -39.72,265.653 21.86,-302.192 L 1079.22,47.6406 1023.66,123.59 1076.68,42.4688 1055.93,0 H 952.613 L 1023.66,502.48 912.68,0 H 861.406 L 934.801,275.148 837.211,0 H 740.012 L 683.531,345.508 700.941,0 H 506.094 L 636.168,382.18 464.332,0 h -50.91 c 14.805,82.9492 29.754,165.891 45.039,248.77 12.332,66.761 24.852,133.488 37.852,200.16 l 12.453,61.82 32.675,137.102 c -0.628,-0.672 -1.418,-2.09 -2.339,-4.223 -3.286,-6.371 -5.356,-13.129 -7.907,-19.711 l -8.129,-24.469 c -5.285,-16.347 -10.253,-32.75 -15.195,-49.16 L 479.137,451.648 C 460.391,385.832 442.129,319.91 424.047,253.961 407.262,192.66 390.66,131.34 374.145,70 L 375.676,647.852 309.727,0 h -71.618 c 8.114,44.8008 16.188,89.6211 24.45,134.398 12.328,66.762 24.847,133.5 37.851,200.172 l 12.449,61.801 32.684,137.109 c -0.637,-0.66 -1.422,-2.089 -2.344,-4.222 -3.289,-6.36 -5.355,-13.117 -7.906,-19.699 l -8.129,-24.481 c -5.285,-16.34 -10.254,-32.75 -15.195,-49.168 L 283.23,337.281 C 264.488,271.449 246.227,205.539 228.148,139.602 215.41,93.0898 202.953,46.5313 190.395,0 H 162.539 V 850.199 L 106.93,0 H 92.8086 L -74.2734,611.449 9.26953,0 H 0.0390625 V -341.898 H 8965.57 l 2.71,-24.993 11.86,24.993 H 12801.2 V 0 h -172.7"
         style="fill:#46542d;fill-opacity:1;fill-rule:nonzero;stroke:none"
         id="path324" /><path
         d="m 12324.7,1743.51 c -35,-25.05 -60.5,-103.3 -60.5,-196 0,-92.71 25.5,-170.95 60.5,-196.01 38.3,25.06 66.3,103.3 66.3,196.01 0,92.7 -28,170.95 -66.3,196"
         style="fill:#46542d;fill-opacity:1;fill-rule:nonzero;stroke:none"
         id="path326" /><path
         d="m 12036,1512.15 c 1.4,-40.84 46.6,-95.22 114.9,-133.21 68.3,-37.99 138.3,-47.74 173.8,-27.44 0.2,43.79 -43.8,100.31 -112.1,138.3 -68.3,37.99 -139.5,45.6 -176.6,22.35"
         style="fill:#46542d;fill-opacity:1;fill-rule:nonzero;stroke:none"
         id="path328" /><path
         d="m 12603.1,1529.32 c -36.6,18.13 -105.9,4.15 -171.8,-37.9 -65.8,-42.05 -107.6,-99.06 -106.6,-139.92 38.4,-20.96 109.1,-9.05 174.9,33 65.9,42.05 106.4,101.13 103.5,144.82"
         style="fill:#46542d;fill-opacity:1;fill-rule:nonzero;stroke:none"
         id="path330" /><path
         d="m 12503.1,522.258 c -34.2,-8.727 -77,-60.918 -104.6,-131.75 -27.6,-70.828 -31.4,-138.207 -12.1,-167.758 36.8,7.73 81.4,59.18 109,130.012 27.6,70.828 29.5,138.949 7.7,169.496"
         style="fill:#46542d;fill-opacity:1;fill-rule:nonzero;stroke:none"
         id="path332" /><path
         d="m 12213.6,431.398 c -11,-31.628 7.3,-86.628 48.2,-135.968 40.9,-49.352 91.5,-77.641 124.6,-72.68 13.2,33.391 -3.6,89.68 -44.5,139.02 -40.9,49.351 -93,76.359 -128.3,69.628"
         style="fill:#46542d;fill-opacity:1;fill-rule:nonzero;stroke:none"
         id="path334" /><path
         d="m 12652.1,275.75 c -22.6,24.738 -79.7,34.699 -142.6,22.172 -62.8,-12.543 -111.7,-43.652 -123.1,-75.172 23.1,-27.449 80.7,-39.379 143.5,-26.852 62.8,12.532 111.3,45.622 122.2,79.852"
         style="fill:#46542d;fill-opacity:1;fill-rule:nonzero;stroke:none"
         id="path336" /><path
         d="m 11589.2,1185.81 c -11.3,-30.46 5.9,-90.11 45.2,-147.97 39.2,-57.852 88.3,-95.879 120.7,-96.711 13.4,31.871 -2.3,92.571 -41.5,150.431 -39.3,57.86 -89.9,94.84 -124.4,94.25"
         style="fill:#46542d;fill-opacity:1;fill-rule:nonzero;stroke:none"
         id="path338" /><path
         d="m 11506.9,919.172 c 18.2,-24.891 69.5,-39.692 128.2,-34.504 58.7,5.211 106.5,28.773 120,56.461 -18.4,27.41 -69.8,44.051 -128.5,38.859 -58.7,-5.199 -106.4,-30.609 -119.7,-60.816"
         style="fill:#46542d;fill-opacity:1;fill-rule:nonzero;stroke:none"
         id="path340" /><path
         d="m 11853.6,1170.02 c -30.5,-4.2 -67.8,-42.27 -91.1,-96.4 -23.3,-54.13 -25.3,-107.421 -7.4,-132.491 32.9,3.191 72,40.543 95.3,94.661 23.2,54.13 23.5,108.16 3.2,134.23"
         style="fill:#46542d;fill-opacity:1;fill-rule:nonzero;stroke:none"
         id="path342" /><path
         d="m 11672.8,775.969 c 18.2,-24.867 69.4,-39.668 128.1,-34.481 58.7,5.203 106.6,28.774 120.1,56.461 -18.4,27.41 -69.8,44.051 -128.5,38.852 -58.7,-5.192 -106.4,-30.602 -119.7,-60.832"
         style="fill:#46542d;fill-opacity:1;fill-rule:nonzero;stroke:none"
         id="path344" /><path
         d="m 12019.5,1026.83 c -30.5,-4.2 -67.9,-42.271 -91.2,-96.389 -23.3,-54.132 -25.2,-107.441 -7.3,-132.492 32.9,3.192 71.9,40.52 95.2,94.653 23.3,54.128 23.6,108.168 3.3,134.228"
         style="fill:#46542d;fill-opacity:1;fill-rule:nonzero;stroke:none"
         id="path346" /><path
         d="m 11805.8,632.789 c 18.2,-24.879 69.4,-39.68 128.1,-34.48 58.7,5.191 106.5,28.773 120.1,56.449 -18.4,27.41 -69.8,44.051 -128.5,38.863 -58.7,-5.203 -106.4,-30.613 -119.7,-60.832"
         style="fill:#46542d;fill-opacity:1;fill-rule:nonzero;stroke:none"
         id="path348" /><path
         d="m 12152.5,883.641 c -30.6,-4.192 -67.9,-42.27 -91.2,-96.391 -23.3,-54.129 -25.3,-107.43 -7.3,-132.492 32.8,3.203 71.9,40.531 95.2,94.66 23.3,54.133 23.6,108.16 3.3,134.223"
         style="fill:#46542d;fill-opacity:1;fill-rule:nonzero;stroke:none"
         id="path350" /><path
         d="m 12539.1,637.98 c -15,-22.539 -19,-69.5 -8.2,-116.652 10.8,-47.148 33,-79.789 54,-82.738 16.8,23.5 22,71.129 11.2,118.281 -10.8,47.149 -34.3,79.109 -57,81.109"
         style="fill:#46542d;fill-opacity:1;fill-rule:nonzero;stroke:none"
         id="path352" /><path
         d="m 12756.1,425.391 c -6.6,24.078 -37.7,43.679 -78.2,46.789 -40.5,3.129 -77.8,-11.2 -93,-33.59 6.2,-26.309 37,-47.539 77.5,-50.649 40.5,-3.132 78.1,12.821 93.7,37.45"
         style="fill:#46542d;fill-opacity:1;fill-rule:nonzero;stroke:none"
         id="path354" /><path
         d="m 12634.1,711.309 c -15,-22.539 -19,-69.5 -8.2,-116.649 10.8,-47.14 33,-79.789 54,-82.73 16.8,23.492 22,71.121 11.2,118.269 -10.8,47.16 -34.3,79.11 -57,81.11"
         style="fill:#46542d;fill-opacity:1;fill-rule:nonzero;stroke:none"
         id="path356" /><path
         d="m 12851.1,498.73 c -6.6,24.071 -37.7,43.668 -78.2,46.79 -40.5,3.121 -77.8,-11.2 -93,-33.59 6.2,-26.321 37,-47.539 77.5,-50.66 40.5,-3.129 78.1,12.832 93.7,37.46"
         style="fill:#46542d;fill-opacity:1;fill-rule:nonzero;stroke:none"
         id="path358" /><path
         d="m 12749.8,797.84 c -15,-22.539 -19.1,-69.488 -8.2,-116.649 10.8,-47.152 33,-79.8 54,-82.742 16.8,23.492 22,71.141 11.2,118.281 -10.8,47.149 -34.3,79.11 -57,81.11"
         style="fill:#46542d;fill-opacity:1;fill-rule:nonzero;stroke:none"
         id="path360" /><path
         d="m 12966.8,585.25 c -6.6,24.078 -37.7,43.668 -78.2,46.801 -40.5,3.117 -77.8,-11.199 -93,-33.602 6.2,-26.308 37,-47.539 77.5,-50.66 40.5,-3.121 78.1,12.832 93.7,37.461"
         style="fill:#46542d;fill-opacity:1;fill-rule:nonzero;stroke:none"
         id="path362" /><path
         d="m 12163.1,1296.47 c 1.2,-40.84 39.2,-95.21 96.7,-133.2 57.4,-38 116.4,-47.75 146.2,-27.44 0.2,43.78 -36.9,100.3 -94.3,138.3 -57.5,37.99 -117.4,45.59 -148.6,22.34"
         style="fill:#46542d;fill-opacity:1;fill-rule:nonzero;stroke:none"
         id="path364" /><path
         d="m 12640.3,1313.64 c -30.8,18.12 -89.1,4.15 -144.5,-37.9 -55.4,-42.04 -90.6,-99.06 -89.8,-139.91 32.4,-20.96 91.8,-9.07 147.2,32.99 55.4,42.06 89.5,101.14 87.1,144.82"
         style="fill:#46542d;fill-opacity:1;fill-rule:nonzero;stroke:none"
         id="path366" /><path
         d="m 12224.5,1055.11 c 2.9,-34.89 39.8,-82.942 93.5,-117.84 53.8,-34.911 107.7,-45.801 133.9,-29.782 -1.8,37.34 -37.8,87.16 -91.6,122.082 -53.8,34.9 -108.5,44.01 -135.8,25.54"
         style="fill:#46542d;fill-opacity:1;fill-rule:nonzero;stroke:none"
         id="path368" /><path
         d="m 12255.8,748.059 c -3.4,-46.27 28.2,-103.707 81.1,-140.321 52.8,-36.617 110.3,-40.988 142.3,-14.508 5.1,49.75 -25.3,109.75 -78.1,146.379 -52.8,36.61 -111.6,38.422 -145.3,8.45"
         style="fill:#46542d;fill-opacity:1;fill-rule:nonzero;stroke:none"
         id="path370" /><path
         d="m 12692.7,1135.36 c -30.8,18.12 -138.3,-21.7 -193.7,-63.75 -55.4,-42.05 -53.8,-110.61 -53,-151.462 32.4,-20.957 91.8,-9.058 147.2,32.993 55.4,42.05 101.9,138.529 99.5,182.219"
         style="fill:#46542d;fill-opacity:1;fill-rule:nonzero;stroke:none"
         id="path372" /><path
         d="m 12726.7,801.621 c -30.8,18.117 -138.3,-21.699 -193.7,-63.75 -55.4,-42.051 -53.9,-110.613 -53,-151.461 32.3,-20.961 91.8,-9.058 147.2,32.988 55.4,42.051 101.9,138.532 99.5,182.223"
         style="fill:#46542d;fill-opacity:1;fill-rule:nonzero;stroke:none"
         id="path374" /><path
         d="m 12310.8,-10 -2.4,0.28906 c -5.3,1.3125 -8.6,6.73047 -7.3,12.08985 0.7,2.9414 74.7,295.90209 304.6,470.35909 l 229.8,174.344 c 4.4,3.348 10.6,2.457 14,-1.934 3.3,-4.386 2.4,-10.668 -2,-14.007 l -229.7,-174.34 C 12393.7,286.73 12321.2,0.480469 12320.5,-2.39063 12319.4,-6.94922 12315.3,-10 12310.8,-10"
         style="fill:#46542d;fill-opacity:1;fill-rule:nonzero;stroke:none"
         id="path376" /></g></g></svg>
