<svg width="55" height="82" viewBox="0 0 55 82" fill="none" xmlns="http://www.w3.org/2000/svg">
<path d="M29.0271 2.07313L29.0272 2.07319L34.8034 16.1952C34.8034 16.1953 34.8034 16.1953 34.8034 16.1953C35.3239 17.4682 36.4845 18.366 37.8491 18.4956L37.8495 18.4957L52.4729 19.8787L52.4729 19.8787C53.8766 20.0113 54.5918 21.9476 53.4085 23.0301L42.3547 33.1397L42.3545 33.1398C41.3455 34.0629 40.9153 35.4739 41.2067 36.8138L41.2068 36.8142L44.4695 51.7909C44.83 53.4458 43.1655 54.4738 42.0052 53.7486L42.0049 53.7485L29.3983 45.8753C29.3981 45.8752 29.398 45.8751 29.3979 45.8751C28.2307 45.1457 26.769 45.1457 25.6018 45.8751C25.6017 45.8751 25.6015 45.8752 25.6014 45.8753L12.9948 53.7485L12.9945 53.7486C11.8342 54.4738 10.1697 53.4458 10.5302 51.791L9.55314 51.5781L10.5302 51.7909L13.7929 36.8142L13.7929 36.8141C14.0845 35.4754 13.6542 34.063 12.6451 33.1398L12.645 33.1397L1.59118 23.0301C1.59114 23.0301 1.5911 23.0301 1.59106 23.03C0.408345 21.9478 1.12386 20.0113 2.52682 19.8787L17.1502 18.4957L17.1506 18.4956C18.5152 18.366 19.6758 17.4682 20.1963 16.1953C20.1963 16.1953 20.1963 16.1953 20.1963 16.1952L25.9725 2.07319L25.9731 2.07175C26.5543 0.644511 28.4413 0.64053 29.0271 2.07313Z" stroke="black" stroke-width="2"/>
<path d="M19.884 72.668C20.356 72.756 20.756 72.996 21.084 73.388C21.412 73.78 21.576 74.236 21.576 74.756C21.576 75.18 21.468 75.564 21.252 75.908C21.044 76.244 20.736 76.512 20.328 76.712C19.92 76.904 19.432 77 18.864 77H15.96V68.612H18.78C19.628 68.612 20.272 68.808 20.712 69.2C21.16 69.592 21.384 70.1 21.384 70.724C21.384 71.244 21.244 71.668 20.964 71.996C20.684 72.316 20.324 72.54 19.884 72.668ZM16.8 72.32H18.756C19.324 72.32 19.76 72.188 20.064 71.924C20.376 71.652 20.532 71.28 20.532 70.808C20.532 70.344 20.376 69.98 20.064 69.716C19.76 69.452 19.312 69.32 18.72 69.32H16.8V72.32ZM18.804 76.292C19.412 76.292 19.884 76.148 20.22 75.86C20.564 75.572 20.736 75.176 20.736 74.672C20.736 74.168 20.556 73.768 20.196 73.472C19.844 73.168 19.368 73.016 18.768 73.016H16.8V76.292H18.804ZM22.7362 72.8C22.7362 71.976 22.9162 71.24 23.2762 70.592C23.6362 69.936 24.1282 69.428 24.7522 69.068C25.3762 68.7 26.0722 68.516 26.8402 68.516C27.7762 68.516 28.5762 68.74 29.2402 69.188C29.9122 69.628 30.4002 70.252 30.7042 71.06H29.7202C29.4802 70.492 29.1122 70.048 28.6162 69.728C28.1282 69.408 27.5362 69.248 26.8402 69.248C26.2242 69.248 25.6682 69.392 25.1722 69.68C24.6842 69.968 24.3002 70.384 24.0202 70.928C23.7402 71.464 23.6002 72.088 23.6002 72.8C23.6002 73.512 23.7402 74.136 24.0202 74.672C24.3002 75.208 24.6842 75.62 25.1722 75.908C25.6682 76.196 26.2242 76.34 26.8402 76.34C27.5362 76.34 28.1282 76.184 28.6162 75.872C29.1122 75.552 29.4802 75.112 29.7202 74.552H30.7042C30.4002 75.352 29.9122 75.972 29.2402 76.412C28.5682 76.852 27.7682 77.072 26.8402 77.072C26.0722 77.072 25.3762 76.892 24.7522 76.532C24.1282 76.164 23.6362 75.656 23.2762 75.008C22.9162 74.36 22.7362 73.624 22.7362 72.8ZM38.606 68.612V77H37.766V73.076H33.218V77H32.378V68.612H33.218V72.38H37.766V68.612H38.606Z" fill="black"/>
</svg>
