<svg width="64" height="64" viewBox="0 0 64 64" fill="none" xmlns="http://www.w3.org/2000/svg">
<path d="M33.9285 2.35043L33.9285 2.35049L40.6499 18.7834C40.6499 18.7835 40.6499 18.7835 40.65 18.7835C41.2337 20.2109 42.5335 21.2145 44.0581 21.3593L44.0585 21.3593L61.0747 22.9686L61.0748 22.9686C62.8614 23.1375 63.7312 25.5722 62.2585 26.9194L49.3959 38.6833L49.3957 38.6834C48.2659 39.7171 47.7824 41.2992 48.1095 42.8031L48.1096 42.8035L51.9062 60.231L52.8832 60.0181L51.9062 60.231C52.3521 62.2779 50.2823 63.614 48.792 62.6826L48.7918 62.6825L34.1221 53.5209C34.122 53.5208 34.1219 53.5208 34.1218 53.5207C32.8166 52.705 31.183 52.705 29.8778 53.5207C29.8777 53.5208 29.8776 53.5208 29.8775 53.5209L15.2079 62.6825L15.2076 62.6826C13.7174 63.614 11.6475 62.2779 12.0935 60.231L11.1164 60.0181L12.0935 60.231L15.89 42.8035L15.8901 42.8034C16.2173 41.301 15.7338 39.7172 14.6039 38.6834L14.6038 38.6833L1.7411 26.9194C1.74106 26.9194 1.74102 26.9194 1.74099 26.9193C0.268894 25.5724 1.13925 23.1375 2.9249 22.9686L19.9411 21.3593L19.9415 21.3593C21.4661 21.2145 22.766 20.2109 23.3497 18.7835C23.3497 18.7835 23.3497 18.7835 23.3497 18.7834L30.0711 2.35049L30.0717 2.34905C30.8034 0.552078 33.1914 0.548095 33.9285 2.35043Z" stroke="black" stroke-width="2"/>
</svg>
