<svg width="64" height="64" viewBox="0 0 64 64" fill="none" xmlns="http://www.w3.org/2000/svg">
<path d="M32 44.1825C31.8483 44.1827 31.6991 44.143 31.5676 44.0674L21.7661 38.4086C21.6345 38.3326 21.5252 38.2233 21.4493 38.0917C21.3734 37.9601 21.3335 37.8107 21.3336 37.6588V26.3412C21.3335 26.1892 21.3734 26.0399 21.4493 25.9083C21.5252 25.7766 21.6345 25.6673 21.7661 25.5913L31.5676 19.9325C31.699 19.8566 31.8482 19.8167 32 19.8167C32.1518 19.8167 32.301 19.8566 32.4324 19.9325L42.2339 25.5913C42.3655 25.6673 42.4748 25.7766 42.5507 25.9083C42.6266 26.0399 42.6665 26.1892 42.6664 26.3412V37.6588C42.6665 37.8107 42.6266 37.9601 42.5507 38.0917C42.4748 38.2233 42.3655 38.3326 42.2339 38.4086L32.4324 44.0674C32.3009 44.143 32.1517 44.1827 32 44.1825ZM23.0634 37.1598L32 42.3195L40.9367 37.1598V26.8402L32 21.6804L23.0634 26.8402V37.1598Z" fill="black"/>
<path d="M51.6039 44.1825C51.4521 44.1827 51.303 44.143 51.1715 44.0674L41.3691 38.4086C41.2375 38.3326 41.1282 38.2233 41.0523 38.0917C40.9764 37.9601 40.9365 37.8107 40.9366 37.6588V26.3412C40.9365 26.1892 40.9764 26.0399 41.0523 25.9083C41.1282 25.7766 41.2375 25.6673 41.3691 25.5913L51.1715 19.9325C51.3029 19.8566 51.4521 19.8167 51.6039 19.8167C51.7557 19.8167 51.9048 19.8566 52.0363 19.9325L61.8378 25.5913C61.9694 25.6673 62.0787 25.7766 62.1546 25.9083C62.2305 26.0399 62.2704 26.1892 62.2703 26.3412V37.6588C62.2704 37.8107 62.2305 37.9601 62.1546 38.0917C62.0787 38.2233 61.9694 38.3326 61.8378 38.4086L52.0363 44.0674C51.9048 44.143 51.7556 44.1827 51.6039 44.1825ZM42.6664 37.1598L51.6039 42.3195L60.5405 37.1598V26.8402L51.6039 21.6804L42.6664 26.8402V37.1598Z" fill="black"/>
<path d="M12.3961 44.1825C12.2444 44.1827 12.0952 44.143 11.9637 44.0674L2.16217 38.4086C2.03057 38.3326 1.92131 38.2233 1.8454 38.0917C1.76948 37.9601 1.72959 37.8107 1.72974 37.6588V26.3412C1.72959 26.1892 1.76948 26.0399 1.8454 25.9083C1.92131 25.7766 2.03057 25.6673 2.16217 25.5913L11.9637 19.9325C12.0952 19.8566 12.2443 19.8167 12.3961 19.8167C12.5479 19.8167 12.6971 19.8566 12.8285 19.9325L22.6309 25.5913C22.7625 25.6673 22.8718 25.7766 22.9477 25.9083C23.0236 26.0399 23.0635 26.1892 23.0634 26.3412V37.6588C23.0635 37.8107 23.0236 37.9601 22.9477 38.0917C22.8718 38.2233 22.7625 38.3326 22.6309 38.4086L12.8285 44.0674C12.697 44.143 12.5479 44.1827 12.3961 44.1825ZM3.45947 37.1598L12.3961 42.3195L21.3336 37.1598V26.8402L12.3961 21.6804L3.45947 26.8402V37.1598Z" fill="black"/>
<path d="M41.8015 27.206C41.6496 27.2064 41.5004 27.1664 41.3691 27.0901L31.5676 21.4313C31.4361 21.3554 31.3269 21.2462 31.251 21.1148C31.1751 20.9833 31.1351 20.8342 31.1351 20.6823V9.36386C31.1351 9.21205 31.1751 9.06291 31.251 8.93144C31.3269 8.79997 31.4361 8.6908 31.5676 8.61489L41.3691 2.95608C41.5006 2.88017 41.6497 2.84021 41.8015 2.84021C41.9533 2.84021 42.1025 2.88017 42.2339 2.95608L52.0363 8.61489C52.1678 8.6908 52.277 8.79997 52.3529 8.93144C52.4288 9.06291 52.4687 9.21205 52.4687 9.36386V20.6823C52.4687 20.8342 52.4288 20.9833 52.3529 21.1148C52.277 21.2462 52.1678 21.3554 52.0363 21.4313L42.2339 27.0901C42.1026 27.1664 41.9534 27.2064 41.8015 27.206ZM32.8649 20.1833L41.8015 25.3405L50.739 20.1816V9.85943L41.8015 4.70397L32.8649 9.85943V20.1833Z" fill="black"/>
<path d="M22.1985 27.206C22.0466 27.2064 21.8974 27.1664 21.766 27.0901L11.9637 21.4313C11.8322 21.3554 11.723 21.2462 11.6471 21.1148C11.5712 20.9833 11.5312 20.8342 11.5312 20.6823V9.36386C11.5312 9.21205 11.5712 9.06291 11.6471 8.93144C11.723 8.79997 11.8322 8.6908 11.9637 8.61489L21.766 2.95608C21.8975 2.88017 22.0467 2.84021 22.1985 2.84021C22.3503 2.84021 22.4994 2.88017 22.6309 2.95608L32.4324 8.61489C32.5639 8.6908 32.6731 8.79997 32.749 8.93144C32.8249 9.06291 32.8649 9.21205 32.8649 9.36386V20.6823C32.8649 20.8342 32.8249 20.9833 32.749 21.1148C32.6731 21.2462 32.5639 21.3554 32.4324 21.4313L22.6309 27.0901C22.4996 27.1664 22.3504 27.2064 22.1985 27.206ZM13.261 20.1833L22.1985 25.3405L31.1351 20.1833V9.85943L22.1985 4.70397L13.261 9.85943V20.1833Z" fill="black"/>
<path d="M41.8015 61.1598C41.6497 61.1597 41.5005 61.1198 41.3691 61.0439L31.5676 55.3851C31.4361 55.3091 31.3269 55.2 31.251 55.0685C31.1751 54.937 31.1351 54.7879 31.1351 54.6361V43.3176C31.1351 43.1658 31.1751 43.0166 31.251 42.8852C31.3269 42.7537 31.4361 42.6445 31.5676 42.5686L41.3691 36.9098C41.5006 36.8339 41.6497 36.7939 41.8015 36.7939C41.9533 36.7939 42.1025 36.8339 42.2339 36.9098L52.0363 42.5686C52.1678 42.6445 52.277 42.7537 52.3529 42.8852C52.4288 43.0166 52.4687 43.1658 52.4687 43.3176V54.6361C52.4687 54.7879 52.4288 54.937 52.3529 55.0685C52.277 55.2 52.1678 55.3091 52.0363 55.3851L42.2339 61.0439C42.1025 61.1198 41.9533 61.1597 41.8015 61.1598ZM32.8649 54.1405L41.8015 59.2994L50.739 54.1405V43.8166L41.8015 38.6594L32.8649 43.8166V54.1405Z" fill="black"/>
<path d="M22.1985 61.1598C22.0467 61.1597 21.8975 61.1198 21.766 61.0439L11.9637 55.3851C11.8322 55.3091 11.723 55.2 11.6471 55.0685C11.5712 54.937 11.5312 54.7879 11.5312 54.6361V43.3176C11.5312 43.1658 11.5712 43.0166 11.6471 42.8852C11.723 42.7537 11.8322 42.6445 11.9637 42.5686L21.766 36.9098C21.8975 36.8339 22.0467 36.7939 22.1985 36.7939C22.3503 36.7939 22.4994 36.8339 22.6309 36.9098L32.4324 42.5686C32.5639 42.6445 32.6731 42.7537 32.749 42.8852C32.8249 43.0166 32.8649 43.1658 32.8649 43.3176V54.6361C32.8649 54.7879 32.8249 54.937 32.749 55.0685C32.6731 55.2 32.5639 55.3091 32.4324 55.3851L22.6309 61.0439C22.4994 61.1198 22.3503 61.1597 22.1985 61.1598ZM13.261 54.1405L22.1985 59.2994L31.1351 54.1405V43.8166L22.1985 38.6594L13.261 43.8166V54.1405Z" fill="black"/>
</svg>
