<svg width="64" height="64" viewBox="0 0 64 64" fill="none" xmlns="http://www.w3.org/2000/svg">
<path d="M51.027 62.2703H12.973C12.7436 62.2703 12.5236 62.1792 12.3614 62.017C12.1992 61.8548 12.1081 61.6348 12.1081 61.4055V12.973C12.1081 12.7436 12.1992 12.5237 12.3614 12.3615C12.5236 12.1993 12.7436 12.1082 12.973 12.1082H19.8919C20.1213 12.1082 20.3412 12.1993 20.5034 12.3615C20.6656 12.5237 20.7568 12.7436 20.7568 12.973C20.7568 13.2024 20.6656 13.4224 20.5034 13.5846C20.3412 13.7468 20.1213 13.8379 19.8919 13.8379H13.8378V60.5406H50.1622V13.8379H44.1081C43.8787 13.8379 43.6587 13.7468 43.4965 13.5846C43.3344 13.4224 43.2432 13.2024 43.2432 12.973C43.2432 12.7436 43.3344 12.5237 43.4965 12.3615C43.6587 12.1993 43.8787 12.1082 44.1081 12.1082H51.027C51.2564 12.1082 51.4764 12.1993 51.6386 12.3615C51.8008 12.5237 51.8919 12.7436 51.8919 12.973V61.4055C51.8919 61.6348 51.8008 61.8548 51.6386 62.017C51.4764 62.1792 51.2564 62.2703 51.027 62.2703Z" fill="black"/>
<path d="M44.1081 17.2973H19.8919C19.6625 17.2973 19.4425 17.2062 19.2803 17.044C19.1181 16.8818 19.027 16.6618 19.027 16.4324V9.51352C19.027 9.28414 19.1181 9.06416 19.2803 8.90197C19.4425 8.73978 19.6625 8.64866 19.8919 8.64866H25.0811C25.0811 6.81364 25.81 5.05379 27.1076 3.75624C28.4051 2.45869 30.165 1.72974 32 1.72974C33.835 1.72974 35.5949 2.45869 36.8924 3.75624C38.19 5.05379 38.9189 6.81364 38.9189 8.64866H44.1081C44.3375 8.64866 44.5575 8.73978 44.7197 8.90197C44.8819 9.06416 44.973 9.28414 44.973 9.51352V16.4324C44.973 16.6618 44.8819 16.8818 44.7197 17.044C44.5575 17.2062 44.3375 17.2973 44.1081 17.2973ZM20.7568 15.5676H43.2432V10.3784H38.0541C37.8247 10.3784 37.6047 10.2873 37.4425 10.1251C37.2803 9.96288 37.1892 9.7429 37.1892 9.51352V8.64866C37.1892 7.2724 36.6425 5.95251 35.6693 4.97934C34.6961 4.00618 33.3763 3.45947 32 3.45947C30.6237 3.45947 29.3039 4.00618 28.3307 4.97934C27.3575 5.95251 26.8108 7.2724 26.8108 8.64866V9.51352C26.8108 9.7429 26.7197 9.96288 26.5575 10.1251C26.3953 10.2873 26.1753 10.3784 25.9459 10.3784H20.7568V15.5676Z" fill="black"/>
<path d="M32 11.3884C31.3717 11.3884 30.7576 11.2021 30.2353 10.853C29.7129 10.5039 29.3059 10.0077 29.0656 9.42717C28.8254 8.84667 28.7627 8.20795 28.8855 7.59181C29.0083 6.97568 29.3111 6.40981 29.7556 5.96581C30.2001 5.52181 30.7663 5.21961 31.3826 5.09747C31.9988 4.97532 32.6375 5.0387 33.2177 5.2796C33.798 5.5205 34.2937 5.92809 34.6422 6.4508C34.9908 6.97351 35.1765 7.58785 35.1758 8.21611C35.1739 9.0575 34.8387 9.86385 34.2434 10.4585C33.6481 11.0531 32.8414 11.3875 32 11.3884ZM32 6.76746C31.7141 6.76746 31.4346 6.85221 31.1969 7.01099C30.9591 7.16977 30.7738 7.39546 30.6643 7.65954C30.5547 7.92362 30.526 8.21424 30.5815 8.49467C30.6371 8.77511 30.7746 9.03277 30.9766 9.23511C31.1785 9.43745 31.436 9.57538 31.7163 9.63146C31.9966 9.68755 32.2873 9.65929 32.5516 9.55024C32.8159 9.44119 33.0419 9.25625 33.2011 9.01878C33.3603 8.78132 33.4455 8.502 33.4461 8.21611C33.4463 7.83228 33.2941 7.46407 33.0229 7.19242C32.7518 6.92077 32.3838 6.76792 32 6.76746Z" fill="black"/>
<path d="M32 34.6196C30.8814 34.618 29.8092 34.1729 29.0183 33.3819C28.2275 32.5909 27.7826 31.5185 27.7812 30.3999C27.7812 28.4246 30.6655 23.1126 31.2407 22.0678C31.3222 21.9413 31.4342 21.8372 31.5664 21.7651C31.6987 21.693 31.8468 21.6553 31.9974 21.6553C32.148 21.6553 32.2962 21.693 32.4284 21.7651C32.5606 21.8372 32.6726 21.9413 32.7542 22.0678C33.3319 23.1126 36.2136 28.4246 36.2136 30.3999C36.2123 31.5176 35.7681 32.5892 34.9783 33.38C34.1886 34.1709 33.1177 34.6166 32 34.6196ZM32 24.3217C30.7944 26.6508 29.5109 29.4771 29.5109 30.3999C29.5109 31.0601 29.7732 31.6932 30.24 32.16C30.7067 32.6268 31.3399 32.889 32 32.889C32.6601 32.889 33.2933 32.6268 33.76 32.16C34.2268 31.6932 34.4891 31.0601 34.4891 30.3999C34.4891 29.4763 33.2056 26.6508 32 24.3217Z" fill="black"/>
<path d="M29.3189 39.487C28.8529 39.4889 28.3913 39.398 27.9607 39.2199C27.5301 39.0417 27.1393 38.7797 26.8108 38.4492C25.6657 37.3041 24.2819 32.6382 24.0164 31.7145C23.9738 31.566 23.9717 31.4088 24.0104 31.2592C24.049 31.1096 24.1271 30.9731 24.2364 30.8639C24.3457 30.7547 24.4822 30.6768 24.6318 30.6382C24.7815 30.5996 24.9387 30.6019 25.0871 30.6446C26.0099 30.9102 30.6759 32.2931 31.821 33.439C32.3151 33.9353 32.6512 34.5667 32.787 35.2537C32.9227 35.9407 32.852 36.6526 32.5838 37.2994C32.3155 37.9463 31.8617 38.4993 31.2796 38.8886C30.6975 39.2779 30.0132 39.4861 29.3129 39.487H29.3189ZM26.1587 32.7783C26.7736 34.6741 27.5641 36.748 28.0398 37.2237C28.3852 37.5534 28.8444 37.7374 29.3219 37.7374C29.7995 37.7374 30.2587 37.5534 30.6041 37.2237C30.9434 36.8833 31.134 36.4222 31.134 35.9415C31.134 35.4609 30.9434 34.9998 30.6041 34.6594C30.1284 34.1863 28.0545 33.3958 26.1587 32.7783Z" fill="black"/>
<path d="M34.6811 39.487C33.9808 39.4861 33.2964 39.2779 32.7143 38.8886C32.1322 38.4993 31.6784 37.9463 31.4102 37.2994C31.1419 36.6526 31.0712 35.9407 31.2069 35.2537C31.3427 34.5667 31.6788 33.9353 32.173 33.439C33.3181 32.2931 37.984 30.9102 38.9068 30.6446C39.0553 30.6019 39.2125 30.5996 39.3621 30.6382C39.5117 30.6768 39.6483 30.7547 39.7576 30.8639C39.8668 30.9731 39.9449 31.1096 39.9836 31.2592C40.0223 31.4088 40.0202 31.566 39.9775 31.7145C39.712 32.6382 38.3282 37.3041 37.1831 38.4492C36.8554 38.779 36.4655 39.0406 36.036 39.2187C35.6066 39.3968 35.146 39.4881 34.6811 39.487ZM37.8413 32.7783C35.9455 33.3932 33.8716 34.1837 33.3959 34.6594C33.0568 34.9998 32.8665 35.4606 32.8665 35.9411C32.8665 36.4215 33.0568 36.8824 33.3959 37.2228C33.7412 37.5528 34.2004 37.7369 34.678 37.7369C35.1557 37.7369 35.6149 37.5528 35.9602 37.2228C36.4359 36.7506 37.2264 34.6758 37.8413 32.7783Z" fill="black"/>
<path d="M31.9135 42.3783C31.6841 42.3783 31.4642 42.2872 31.302 42.125C31.1398 41.9628 31.0487 41.7428 31.0487 41.5134V35.9471C31.0487 35.7178 31.1398 35.4978 31.302 35.3356C31.4642 35.1734 31.6841 35.0823 31.9135 35.0823C32.1429 35.0823 32.3629 35.1734 32.5251 35.3356C32.6873 35.4978 32.7784 35.7178 32.7784 35.9471V41.5134C32.7784 41.7428 32.6873 41.9628 32.5251 42.125C32.3629 42.2872 32.1429 42.3783 31.9135 42.3783Z" fill="black"/>
<path d="M45.8378 48.4324H18.1622C17.9328 48.4324 17.7128 48.3412 17.5506 48.1791C17.3884 48.0169 17.2973 47.7969 17.2973 47.5675C17.2973 47.3381 17.3884 47.1181 17.5506 46.9559C17.7128 46.7938 17.9328 46.7026 18.1622 46.7026H45.8378C46.0672 46.7026 46.2872 46.7938 46.4494 46.9559C46.6116 47.1181 46.7027 47.3381 46.7027 47.5675C46.7027 47.7969 46.6116 48.0169 46.4494 48.1791C46.2872 48.3412 46.0672 48.4324 45.8378 48.4324Z" fill="black"/>
<path d="M45.8378 54.4866H18.1622C17.9328 54.4866 17.7128 54.3954 17.5506 54.2333C17.3884 54.0711 17.2973 53.8511 17.2973 53.6217C17.2973 53.3923 17.3884 53.1723 17.5506 53.0101C17.7128 52.848 17.9328 52.7568 18.1622 52.7568H45.8378C46.0672 52.7568 46.2872 52.848 46.4494 53.0101C46.6116 53.1723 46.7027 53.3923 46.7027 53.6217C46.7027 53.8511 46.6116 54.0711 46.4494 54.2333C46.2872 54.3954 46.0672 54.4866 45.8378 54.4866Z" fill="black"/>
</svg>
