<svg width="85" height="89" viewBox="0 0 85 89" fill="none" xmlns="http://www.w3.org/2000/svg">
<path d="M62.4145 47.4645C63.2667 47.1368 64.1103 46.8273 64.9281 46.4905C67.433 45.48 69.7314 44.2966 71.3755 42.1755C71.7887 41.6384 72.1674 41.0467 72.4859 40.3821C72.7442 39.8632 72.968 39.2988 73.166 38.6798C72.9508 38.8619 72.727 39.0348 72.4859 39.1987C72.133 39.4445 71.7629 39.6721 71.3755 39.8906C69.5678 40.8919 67.3297 41.6657 64.9281 42.394C64.1017 42.6398 63.2581 42.8855 62.4145 43.1404C61.8722 43.2952 61.3299 43.459 60.7876 43.6229C61.2524 42.7581 61.7947 41.8387 62.4145 40.9101C63.1462 39.8177 63.9812 38.7253 64.9281 37.6875C65.9352 36.586 67.0715 35.5483 68.3455 34.6652C67.2178 35.084 66.0729 35.7394 64.9281 36.5587C64.0845 37.1687 63.2409 37.8605 62.4145 38.6161C61.7861 39.1896 61.1577 39.7995 60.5466 40.4276C59.1004 41.9206 57.7403 43.5228 56.5094 45.0521L56.2597 45.1523C53.2125 46.3266 50.4579 47.8377 48.6244 50.1045C47.996 50.8783 47.4795 51.734 47.0922 52.6989C47.0319 49.449 47.6172 46.7271 48.6244 44.4149C50.303 40.5642 53.1694 37.8605 56.2597 35.8214C57.6715 34.8928 59.1348 34.0917 60.5466 33.3908C61.1835 33.0722 61.8033 32.7809 62.4145 32.4987C63.3011 32.089 64.1447 31.7067 64.9281 31.3334C67.7515 30.0135 69.7658 28.9029 69.7658 27.3826C68.3196 28.6571 66.6497 29.2761 64.9281 29.6675C64.0931 29.8587 63.2409 29.9952 62.4145 30.1318C61.7775 30.2319 61.1577 30.3321 60.5466 30.4504C59.8579 30.587 59.1865 30.7508 58.5581 30.9693C60.2108 25.7258 60.7962 23.3498 59.2381 18.3976C59.2381 24.7426 58.4978 28.0927 56.2597 30.8601C55.726 31.5155 55.1149 32.1345 54.4004 32.7627C52.8423 34.1191 50.6301 35.3844 48.6244 37.114C47.8238 37.8059 47.0577 38.5706 46.3691 39.4445C46.24 39.6084 46.1108 39.7813 45.9903 39.9543C45.9903 38.871 46.128 37.8423 46.3691 36.8409C46.8425 34.8564 47.7033 32.9993 48.6244 31.1332C50.9227 26.445 53.531 21.693 51.0863 14.638C50.7936 18.9165 49.7951 21.9297 48.6244 24.3876C47.8927 25.917 47.1008 27.2278 46.3691 28.4932C45.5083 29.9861 44.7422 31.4154 44.2859 33.054L44.0965 32.8901C43.1152 32.0526 42.2802 31.2333 41.5916 30.4322C37.2876 25.4618 38.0967 20.983 39.0178 14.1009C33.5861 31.3243 41.5658 28.4932 41.5658 41.7658C38.9575 38.1791 36.5387 35.6393 34.5846 33.0813C31.6149 29.2033 29.6867 25.2706 29.6867 17.5146C28.0253 26.2538 31.0726 31.0694 34.5846 36.2765C37.2876 40.2729 40.2574 44.4877 41.5916 50.8691C41.8412 52.0617 42.0306 53.327 42.1597 54.6743C41.9704 54.4468 41.781 54.2192 41.5916 54.0007C39.2846 51.297 37.0121 49.2488 34.5846 47.4463C34.1887 47.155 33.7927 46.8637 33.3881 46.5815C31.1414 42.0389 30.7627 36.759 26.9149 32.3985C26.6308 32.0799 26.3295 31.7613 26.0024 31.4518C26.3381 31.9798 26.6394 32.5078 26.9149 33.0358C28.9636 37.0048 29.3423 41.0558 30.6852 44.7699C29.4887 44.0052 28.2405 43.2406 26.9149 42.4304C25.9938 41.866 25.0383 41.2834 24.0398 40.6643C22.2923 39.581 20.4158 38.3976 18.3843 37.0321C17.8075 36.6407 17.2222 36.2401 16.6196 35.8214C16.6454 36.9411 17.3255 37.9971 18.3843 39.0257C19.8218 40.4367 21.9566 41.8113 24.0398 43.277C25.0383 43.9779 26.0196 44.6971 26.9149 45.4618C28.12 46.4813 29.1702 47.5646 29.8502 48.7481C29.3079 48.5569 28.2749 48.302 26.9149 48.0289C26.0627 47.856 25.09 47.683 24.0398 47.51C22.3096 47.2369 20.3641 46.9911 18.3843 46.8273C17.5923 46.7636 16.8004 46.7089 16.0171 46.6725C15.2423 46.6361 14.4676 46.6179 13.7187 46.627C10.5682 46.6452 7.75332 47.0275 6.15222 48.0562C6.07475 48.1108 5.99728 48.1564 5.91981 48.211H6.15222C8.73464 48.2201 11.274 48.3293 13.7187 48.5842C14.4934 48.6661 15.2596 48.7572 16.0171 48.8664C16.8176 48.9757 17.6095 49.1122 18.3843 49.2579C20.3641 49.6311 22.2579 50.1136 24.0398 50.7235C25.0383 51.0603 25.9938 51.4427 26.9149 51.8614C29.9535 53.2542 32.5618 55.0931 34.5933 57.4873C36.3321 59.5537 37.6405 62.0207 38.4152 64.9702C38.9317 66.9547 39.0953 75.1113 37.4856 77.5419H51.2585C49.95 75.6302 48.9085 70.1864 48.633 66.9365C48.5555 66.008 48.5383 65.2615 48.59 64.8245C48.6072 64.7244 48.6158 64.6243 48.633 64.5241C49.709 56.6953 52.696 52.799 56.2683 50.4322C57.637 49.5219 59.0918 48.83 60.5552 48.2292C61.1749 47.9379 61.7947 47.7012 62.4145 47.4645Z" fill="#929292"/>
<path d="M34.5932 24.6519C34.2575 24.3788 33.8788 24.1603 33.4742 24.0056C32.9491 25.0706 32.8458 26.3542 33.2848 27.5558C33.5603 28.3114 34.0165 28.9304 34.5846 29.3947C34.9203 29.6678 35.2991 29.8863 35.6951 30.0411C36.2201 28.9851 36.3234 27.6924 35.8844 26.4908C35.609 25.7352 35.1528 25.1162 34.5932 24.6519Z" fill="#FFF804"/>
<path d="M45.0176 6.43604C45.5943 6.01729 46.0592 5.44378 46.3777 4.77013C46.567 4.34228 46.7048 3.87801 46.7564 3.38643C46.8511 2.53982 46.7048 1.72963 46.3777 1.01047C46.2055 0.637232 45.9903 0.300409 45.7321 0C44.9573 0.564405 44.3806 1.39281 44.1137 2.38507C44.0535 2.60355 44.0104 2.82203 43.9846 3.04961C43.9244 3.62312 43.976 4.17842 44.1137 4.70641C44.2859 5.35275 44.5958 5.94446 45.0176 6.43604Z" fill="#FFF804"/>
<path d="M55.6399 8.4206C56.165 7.36462 56.2769 6.07195 55.8293 4.87031C55.3817 3.66867 54.4779 2.79475 53.4104 2.3851C52.8854 3.45019 52.7821 4.73376 53.2297 5.9445C53.6773 7.14614 54.5725 8.02006 55.6399 8.4206Z" fill="#FFF804"/>
<path d="M37.5027 7.17336C37.563 5.88979 37.081 4.70636 36.2632 3.87796C35.3766 4.61533 34.7826 5.75324 34.731 7.0277C34.6621 8.32947 35.1527 9.5038 35.9705 10.3413C36.8571 9.60393 37.4511 8.46602 37.5027 7.17336Z" fill="#FFF804"/>
<path d="M26.9149 11.3973C27.4055 12.2439 28.1544 12.8539 28.998 13.1816C29.5231 12.1256 29.6264 10.8329 29.1874 9.63129C28.7656 8.47516 27.9134 7.63766 26.9149 7.2098C26.8718 7.1916 26.8202 7.17339 26.7685 7.15518C26.2434 8.20206 26.1401 9.49473 26.5791 10.7055C26.6824 10.9422 26.7943 11.1788 26.9149 11.3973Z" fill="#FFF804"/>
<path d="M72.4945 19.8633C72.0469 20.5734 71.8145 21.4109 71.8145 22.2393C72.0383 22.2757 72.2621 22.2848 72.4945 22.2757C73.407 22.2484 74.3108 21.9025 75.0425 21.2197C75.9636 20.3822 76.4284 19.1806 76.4284 17.9881C75.3094 17.8242 74.1301 18.161 73.209 19.0076C72.9335 19.2625 72.6925 19.5538 72.4945 19.8633Z" fill="#FFF804"/>
<path d="M78.589 30.3778C78.9592 30.6782 79.381 30.9058 79.8286 31.0514C80.4742 31.2608 81.1714 31.3063 81.8687 31.1516C83.0652 30.8967 84.0293 30.0956 84.5802 29.0578C83.685 28.3387 82.5057 28.0109 81.3006 28.2749C80.7583 28.3933 80.259 28.6209 79.82 28.9395C79.3121 29.3127 78.8903 29.8134 78.589 30.3778Z" fill="#FFF804"/>
<path d="M71.3841 16.1946C71.7628 16.1491 72.133 16.0581 72.4945 15.8942C72.6495 15.8305 72.7958 15.7486 72.9421 15.6667C74.0095 15.0294 74.6896 13.9643 74.922 12.79C74.1473 12.4987 73.3037 12.4532 72.4945 12.6899C72.1846 12.7809 71.8747 12.9084 71.5821 13.0904C71.5132 13.1268 71.4443 13.1724 71.3841 13.2179C70.4286 13.8642 69.8088 14.8656 69.5936 15.9671C70.1617 16.1764 70.7729 16.2584 71.3841 16.1946Z" fill="#FFF804"/>
<path d="M60.6498 10.1318C61.3299 9.86784 61.9496 9.40357 62.4145 8.78455C62.6727 8.44772 62.8879 8.05628 63.0429 7.62843C63.4732 6.42679 63.3613 5.13411 62.8363 4.07812C62.6985 4.13274 62.5522 4.19647 62.4231 4.26929C61.6225 4.68805 60.9597 5.389 60.5552 6.29023C60.5121 6.38127 60.4777 6.4814 60.4432 6.57244C60.0387 7.70125 60.1075 8.90289 60.5552 9.92246C60.581 9.99529 60.6154 10.0681 60.6498 10.1318Z" fill="#FFF804"/>
<path d="M12.8751 19.4992C13.142 19.7086 13.426 19.8907 13.7187 20.0181C14.4504 20.3549 15.2509 20.446 16.0171 20.3185C16.0601 20.3094 16.1031 20.3003 16.1548 20.2912C16.1376 19.9999 16.0945 19.7086 16.0171 19.4264C15.7932 18.5525 15.3026 17.7423 14.5709 17.1506C14.3041 16.9321 14.02 16.7591 13.7187 16.6226C12.944 16.2676 12.0918 16.1765 11.2912 16.3586C11.3601 17.542 11.9024 18.7072 12.8751 19.4992Z" fill="#FFF804"/>
<path d="M61.5365 53.3452C61.2352 53.0357 60.9081 52.7717 60.5465 52.5805C59.8751 52.2073 59.1176 52.0434 58.3773 52.0981C58.2998 53.2997 58.6872 54.5196 59.5566 55.4299C59.8579 55.7485 60.185 56.0034 60.5379 56.1946C61.1233 56.5223 61.7603 56.6861 62.4059 56.6861C62.5092 56.6861 62.6038 56.6861 62.7071 56.677C62.7502 56.0125 62.6469 55.348 62.4059 54.7289C62.2165 54.2282 61.9238 53.7549 61.5365 53.3452Z" fill="#FFF804"/>
<path d="M18.3842 51.5063C18.2293 51.5428 18.0743 51.5883 17.9108 51.652C17.1188 51.9524 16.4732 52.4895 16.0084 53.154C15.8018 53.4545 15.6297 53.7913 15.5005 54.1372C15.6641 54.2373 15.8362 54.3193 16.0084 54.3921C16.7487 54.6925 17.5665 54.7744 18.3756 54.5833C18.5306 54.5469 18.6941 54.4922 18.8491 54.4376C19.9939 54.0006 20.8461 53.0721 21.2593 51.9524C20.4157 51.4426 19.3914 51.2697 18.3842 51.5063Z" fill="#FFF804"/>
<path d="M77.8573 51.1699C76.7555 50.6146 75.5332 50.6328 74.4916 51.1152C74.8015 52.2714 75.559 53.2818 76.6608 53.8371C77.6938 54.356 78.8301 54.3742 79.82 53.9828C79.8888 53.9555 79.9577 53.9282 80.0266 53.9009C79.9749 53.7006 79.9061 53.5003 79.82 53.3091C79.4498 52.3988 78.7698 51.6341 77.8573 51.1699Z" fill="#FFF804"/>
<path d="M79.8286 38.6252C79.6478 38.5615 79.4584 38.516 79.2604 38.4795C78.0553 38.2793 76.8846 38.6616 76.0152 39.4263C76.6264 40.4459 77.6163 41.1832 78.83 41.3926C79.1658 41.4472 79.5015 41.4563 79.8286 41.429C80.6636 41.3471 81.4469 40.9921 82.0667 40.4459C81.5674 39.5993 80.7841 38.9438 79.8286 38.6252Z" fill="#FFF804"/>
<path d="M81.533 33.7277C80.9046 33.7914 80.3279 34.0099 79.8286 34.3285C79.3551 34.638 78.942 35.0385 78.6235 35.5119C78.9764 35.8669 79.381 36.1491 79.8286 36.3494C80.4398 36.6225 81.1112 36.7409 81.8084 36.668C83.0222 36.5406 84.0637 35.8487 84.718 34.8747C83.9002 34.0463 82.7467 33.6002 81.533 33.7277Z" fill="#FFF804"/>
<path d="M16.1548 15.7214C16.5766 16.8502 17.4029 17.6968 18.3929 18.1247C18.4531 18.152 18.5134 18.1702 18.5736 18.1975C19.0987 17.1415 19.202 15.8489 18.763 14.6472C18.6597 14.3741 18.5392 14.1101 18.3929 13.8734C17.9022 13.0632 17.1705 12.4715 16.3528 12.162C16.215 12.4442 16.1031 12.7446 16.0257 13.0632C15.8449 13.7733 15.8363 14.538 16.0257 15.2754C16.0515 15.4301 16.0945 15.5758 16.1548 15.7214Z" fill="#FFF804"/>
<path d="M6.15221 44.67C6.23829 44.5517 6.31576 44.4333 6.38462 44.3059C6.30715 44.2422 6.22968 44.1784 6.15221 44.1238C5.30001 43.4957 4.224 43.2226 3.12217 43.432C1.91704 43.6687 0.935724 44.4333 0.358984 45.4711C1.24561 46.2176 2.41631 46.5635 3.62144 46.3359C4.68023 46.1265 5.55825 45.5075 6.15221 44.67Z" fill="#FFF804"/>
<path d="M4.70602 40.0728C5.2139 40.1183 5.69595 40.0637 6.15218 39.9272C6.80639 39.7269 7.39174 39.3628 7.86518 38.8712C7.43478 38.2521 6.84082 37.7515 6.15218 37.442C5.77342 37.2781 5.36023 37.1689 4.92122 37.1324C3.7161 37.0232 2.57122 37.5057 1.75346 38.3432C2.43349 39.299 3.49229 39.9636 4.70602 40.0728Z" fill="#FFF804"/>
<path d="M45.5685 17.2416C45.0434 17.5147 44.5528 17.8516 44.1051 18.243C42.9861 19.2262 42.1339 20.5734 41.7293 22.1665C41.6777 22.3668 41.6346 22.5671 41.6002 22.7673C41.4366 23.7141 41.4452 24.6608 41.6002 25.5621C41.781 26.6089 42.1683 27.5921 42.7192 28.466C43.2099 28.2111 43.6747 27.9016 44.1051 27.5284C45.1123 26.6727 45.9128 25.5256 46.3777 24.1693C46.4465 23.9599 46.5154 23.7505 46.567 23.5411C46.9716 21.9572 46.8683 20.3459 46.3777 18.9166C46.1711 18.3249 45.9042 17.7605 45.5685 17.2416Z" fill="#386B52"/>
<path d="M41.6002 15.1207C42.0392 15.503 42.5126 15.8216 43.0205 16.0856C43.537 15.2663 43.9071 14.3469 44.1051 13.3819C44.3117 12.3533 44.3203 11.27 44.1051 10.1776C44.0793 10.0501 44.0535 9.91359 44.019 9.78614C43.6059 8.16575 42.7365 6.80935 41.6002 5.81709C41.1612 5.43475 40.6791 5.11614 40.1799 4.85214C39.0522 6.63639 38.6218 8.90312 39.19 11.1516C39.5945 12.772 40.4639 14.1375 41.6002 15.1207Z" fill="#386B52"/>
<path d="M46.2141 9.78614C45.8182 11.3428 45.9042 12.9268 46.3777 14.3469C46.5843 14.9659 46.8597 15.5485 47.2041 16.0856C47.7119 15.8216 48.1854 15.503 48.6244 15.1207C49.7607 14.1375 50.6301 12.772 51.0433 11.1516C51.6114 8.91222 51.181 6.63639 50.0533 4.85214C49.5454 5.11614 49.072 5.43475 48.6244 5.81709C47.6172 6.69101 46.8253 7.84713 46.3691 9.22173C46.3174 9.4129 46.2658 9.60407 46.2141 9.78614Z" fill="#386B52"/>
<path d="M33.9649 22.5579C34.1887 22.3394 34.3953 22.1118 34.5932 21.866C35.7037 20.4732 36.3579 18.6526 36.2976 16.6772C36.246 14.8747 35.6176 13.2361 34.5932 11.9525C34.3006 11.5884 33.9821 11.2516 33.6291 10.9512C32.1399 12.4259 31.2361 14.5288 31.2964 16.841C31.3652 19.1533 32.3896 21.2015 33.9649 22.5579Z" fill="#386B52"/>
<path d="M72.4945 25.9446C72.0297 26.7366 71.7026 27.6105 71.5304 28.5208C71.8489 28.6392 72.1674 28.7302 72.4945 28.803C74.1645 29.1581 75.955 28.8941 77.5388 27.9382C78.4685 27.3738 79.2432 26.6273 79.8286 25.7625C80.4398 24.8613 80.8616 23.8326 81.0681 22.7584C80.6636 22.6128 80.2504 22.4944 79.8286 22.4307C78.2447 22.1576 76.5661 22.4398 75.0511 23.3501C73.9751 23.9874 73.1057 24.8977 72.4945 25.9446Z" fill="#386B52"/>
<path d="M72.4945 32.4079C72.2707 32.5172 72.0469 32.6355 71.8317 32.763C71.6768 32.854 71.5218 32.9541 71.3841 33.0543C69.74 34.2195 68.6726 36.0037 68.311 37.9337C69.2923 38.2978 70.3425 38.4343 71.3841 38.3342C71.7542 38.2978 72.133 38.2341 72.4945 38.1339C73.1143 37.961 73.7255 37.7061 74.3108 37.351C76.2218 36.204 77.4442 34.2741 77.8401 32.1713C76.1443 31.5431 74.2334 31.5886 72.4945 32.4079Z" fill="#386B52"/>
<path d="M53.8495 14.8111C53.2813 17.0505 53.7117 19.3263 54.848 21.1106C55.3559 20.8466 55.8293 20.5279 56.2683 20.1456C57.4132 19.1625 58.274 17.797 58.6872 16.1857C59.2554 13.9462 58.825 11.6704 57.6973 9.88617C57.1894 10.1502 56.7074 10.4779 56.2683 10.8511C55.1235 11.8343 54.2627 13.1907 53.8495 14.8111Z" fill="#386B52"/>
<path d="M62.4145 12.6081C61.5279 14.3104 61.3213 16.2585 61.7172 18.0518C61.9497 18.0336 62.1821 17.9972 62.4145 17.9517C63.3011 17.7696 64.1619 17.4237 64.9281 16.9048C65.6942 16.395 66.3914 15.7214 66.951 14.893C68.2336 13.0177 68.6037 10.7328 68.1475 8.62991C67.0112 8.73915 65.9094 9.13059 64.9281 9.77693C64.1619 10.2867 63.4647 10.9604 62.8966 11.7888C62.7244 12.0528 62.5608 12.3259 62.4145 12.6081Z" fill="#386B52"/>
<path d="M64.9367 20.6827C64.7301 20.8648 64.5321 21.0468 64.3427 21.2562C63.3614 22.294 62.7244 23.5593 62.4231 24.8884C62.2509 25.6622 62.1907 26.4542 62.2423 27.2371C62.3026 27.2371 62.3628 27.2462 62.4231 27.2462C63.2753 27.2826 64.1275 27.1643 64.9367 26.8912C66.0213 26.527 67.0284 25.8898 67.8892 24.9795C69.4387 23.3409 70.136 21.1379 69.9896 18.9895C68.2077 18.8711 66.3914 19.4355 64.9367 20.6827Z" fill="#386B52"/>
<path d="M71.3841 49.6129C70.1703 48.6662 68.6725 48.1018 67.0542 48.1018C66.3139 48.1018 65.5995 48.2201 64.928 48.4295C63.9984 48.7299 63.1462 49.2215 62.4145 49.8587C62.1046 50.1318 61.8119 50.4322 61.5537 50.7508C61.8205 51.0695 62.1046 51.3699 62.4145 51.6339C63.1462 52.2711 63.9984 52.7627 64.928 53.054C65.5995 53.2725 66.3139 53.3817 67.0542 53.3817C68.6725 53.3817 70.1703 52.8264 71.3841 51.8797C71.7887 51.561 72.1674 51.206 72.4945 50.8055L72.5462 50.7417L72.4945 50.678C72.1588 50.2957 71.7887 49.9315 71.3841 49.6129Z" fill="#386B52"/>
<path d="M24.0398 19.6266C24.9264 20.2001 25.9077 20.5642 26.9149 20.7008C27.0698 20.719 27.2161 20.7372 27.3711 20.7463C27.6637 19.2078 27.526 17.5874 26.9149 16.1127C26.6824 15.5574 26.3898 15.0203 26.0282 14.5196C25.4687 13.7367 24.7887 13.0995 24.0398 12.6079C23.024 11.9525 21.8791 11.5701 20.7084 11.4973C20.2953 13.6002 20.7171 15.876 22.0513 17.7149C22.6108 18.5069 23.2909 19.1441 24.0398 19.6266Z" fill="#386B52"/>
<path d="M76.1615 42.9582C74.724 43.2586 73.4758 43.9777 72.4945 44.9791C72.0727 45.4161 71.694 45.9076 71.3841 46.4447C71.341 46.5267 71.298 46.5995 71.255 46.6814C71.298 46.7178 71.341 46.7542 71.3841 46.7907C71.737 47.0638 72.1072 47.3004 72.4945 47.5098C73.8804 48.229 75.4901 48.5021 77.1256 48.1562C78.1242 47.9468 79.0366 47.5371 79.8286 46.9636C80.741 46.3082 81.4899 45.4434 82.0322 44.4511C81.378 43.914 80.6291 43.4862 79.8286 43.2131C78.6837 42.7943 77.4269 42.6942 76.1615 42.9582Z" fill="#386B52"/>
<path d="M13.7187 51.4976C12.4188 50.2232 10.68 49.4494 8.76902 49.4494C7.84796 49.4494 6.96993 49.6314 6.15217 49.9592C5.03312 50.4143 4.04319 51.1517 3.27707 52.0893C4.0518 53.027 5.03312 53.7644 6.15217 54.2195C6.96133 54.5563 7.84796 54.7384 8.76902 54.7384C10.68 54.7384 12.4188 53.9555 13.7187 52.6902C13.908 52.499 14.0974 52.2987 14.2696 52.0893C14.0974 51.8891 13.9166 51.6888 13.7187 51.4976Z" fill="#386B52"/>
<path d="M12.109 27.9015C12.6254 28.2747 13.1678 28.566 13.7273 28.7845C14.4762 29.0758 15.2509 29.2306 16.0256 29.2579C16.7143 29.2761 17.3943 29.1942 18.0571 29.0212C17.8764 27.3462 17.1791 25.744 16.0256 24.4969C15.6985 24.1509 15.3456 23.8323 14.9496 23.541C14.5623 23.2588 14.1491 23.0221 13.7273 22.8219C12.2123 22.1209 10.5423 22.0026 9.00145 22.4213C9.22526 24.5606 10.3013 26.5906 12.109 27.9015Z" fill="#386B52"/>
<path d="M18.3843 31.452C18.3326 31.4611 18.2896 31.4793 18.2379 31.4884C18.2723 31.7888 18.3154 32.0892 18.3843 32.3805C18.7802 34.183 19.796 35.8398 21.3454 36.9686C22.1804 37.5785 23.1015 37.9791 24.0398 38.1793C24.9953 38.3796 25.9766 38.3796 26.9149 38.1793C27.044 38.152 27.1731 38.1247 27.2936 38.0883C27.2247 37.4966 27.0956 36.9231 26.9149 36.3678C26.4156 34.893 25.4945 33.5639 24.1861 32.6081C24.1344 32.5717 24.0914 32.5353 24.0398 32.508C22.3095 31.3063 20.2694 30.9877 18.3843 31.452Z" fill="#386B52"/>
<path d="M22.5764 27.7287C23.0326 28.1475 23.5233 28.4934 24.0397 28.7756C24.9436 29.2672 25.9249 29.5403 26.9148 29.5949C27.3969 29.6222 27.8875 29.604 28.361 29.5312C28.3524 27.9108 27.8617 26.2904 26.9148 24.9431C26.6049 24.5062 26.252 24.0965 25.8474 23.7324C25.2879 23.2226 24.6767 22.813 24.0397 22.5125C22.7743 21.9208 21.3884 21.7206 20.0456 21.9208C20.0628 24.0601 20.915 26.1994 22.5764 27.7287Z" fill="#386B52"/>
<path d="M14.7172 39.5631C14.3815 39.4812 14.0544 39.4175 13.7273 39.3811C11.9368 39.1808 10.198 39.6997 8.79488 40.7375C9.72455 42.6492 11.3945 44.1421 13.5207 44.7065C13.5896 44.7247 13.6584 44.7429 13.7273 44.7611C14.502 44.9341 15.2768 44.9796 16.0257 44.8977C16.8606 44.8067 17.6612 44.57 18.3929 44.1967C18.763 44.0056 19.1159 43.7871 19.4517 43.5413C19.1676 42.9496 18.8061 42.4034 18.3929 41.9118C17.7387 41.1471 16.9381 40.5099 16.0257 40.0547C15.6039 39.8544 15.1735 39.6906 14.7172 39.5631Z" fill="#386B52"/>
<path d="M7.9513 35.53C9.70734 36.8045 11.7991 37.1595 13.7187 36.6952C13.779 36.677 13.8306 36.6679 13.8909 36.6497C13.8564 36.3129 13.7962 35.9761 13.7187 35.6484C13.3055 33.8914 12.307 32.271 10.7834 31.1695C9.37163 30.1408 7.7361 29.713 6.15222 29.8222C5.7046 29.8495 5.26559 29.9315 4.83518 30.0407C4.97291 31.3334 5.42053 32.5805 6.15222 33.6547C6.63427 34.3739 7.23683 35.002 7.9513 35.53Z" fill="#386B52"/>
<path d="M20.6832 82.1289L20.8238 84.6953C20.8238 84.8359 20.8121 85.0938 20.7887 85.4688C20.7887 85.8438 20.648 86.1836 20.3668 86.4883C20.109 86.7695 19.7809 86.9102 19.3824 86.9102C19.0074 86.9102 18.7144 86.8984 18.5035 86.875C17.7301 86.875 17.3434 86.5352 17.3434 85.8555C17.3434 85.293 17.6012 83.0313 18.1168 79.0703C18.6324 75.0859 18.9605 72.5195 19.1012 71.3711C19.2418 70.2227 19.359 69.2617 19.4527 68.4883C19.5699 67.6914 19.6519 67.1055 19.6988 66.7305C19.7457 66.3555 19.816 65.9805 19.9098 65.6055C20.0035 65.2305 20.1441 64.9258 20.3316 64.6914C20.6832 64.2461 21.3629 64.0234 22.3707 64.0234C24.0582 64.8672 25.7926 67.2578 27.5738 71.1953C28.8394 74.0078 29.6832 75.7891 30.1051 76.5391C30.5269 77.2891 30.9371 77.8047 31.3355 78.0859L38.3668 65.8516C38.859 65.5 39.234 65.3242 39.4918 65.3242C40.2418 65.3242 40.816 65.6641 41.2144 66.3438C41.6129 67.0234 41.941 67.8555 42.1988 68.8399C42.4801 69.8008 42.7144 70.8672 42.9019 72.0391C43.1129 73.2109 43.2887 74.4414 43.4293 75.7305C43.5934 76.9961 43.7457 78.2383 43.8863 79.457C44.2144 82.3867 44.4605 84.2266 44.6246 84.9766C44.8121 85.7266 44.9059 86.2656 44.9059 86.5938C44.9059 86.8984 44.8004 87.2031 44.5894 87.5078C44.3785 87.7891 44.0855 87.9297 43.7105 87.9297C43.3355 87.9297 42.9605 87.7891 42.5855 87.5078C42.2105 87.2031 41.9762 86.8399 41.8824 86.418C41.8121 85.9727 41.7301 85.3984 41.6363 84.6953C41.566 83.9922 41.4723 83.207 41.3551 82.3399C41.2379 81.4492 41.1207 80.5234 41.0035 79.5625C40.8863 78.5781 40.7691 77.6406 40.6519 76.75C40.5348 75.8594 40.4293 75.0742 40.3355 74.3945C40.2418 73.6914 40.1715 73.1641 40.1246 72.8125C40.1246 72.3438 40.1129 71.9102 40.0894 71.5117C40.066 71.1133 39.9723 70.8672 39.8082 70.7734C39.6441 70.6797 39.3863 70.7969 39.0348 71.125C38.7066 71.4297 38.2379 72.0625 37.6285 73.0234C36.316 75.0625 34.4176 78.4961 31.9332 83.3242C31.6051 83.9102 31.1715 84.0391 30.6324 83.7109C29.9996 83.3594 29.4605 82.457 29.0152 81.0039L22.5465 67.2578C21.984 68.3828 21.4684 72.1094 20.9996 78.4375C20.9293 79.2109 20.8824 79.8672 20.859 80.4063C20.7418 80.9922 20.6832 81.5664 20.6832 82.1289Z" fill="black"/>
<path d="M50.8082 78.0859C50.7379 78.8828 50.7027 80.0195 50.7027 81.4961C50.7027 82.9492 50.9254 84.7188 51.3707 86.8047L48.5934 88.2109L47.3277 78.6484C46.5074 78.5312 46.0973 78.25 46.0973 77.8047C46.0973 77.4766 46.2848 77.0898 46.6598 76.6445C47.0582 76.1992 47.3512 75.8359 47.5387 75.5547C47.7262 75.25 47.8316 74.9219 47.8551 74.5703C47.9019 74.1953 47.9605 73.5391 48.0309 72.6016C48.1012 71.6641 48.1598 70.668 48.2066 69.6133C48.2769 68.5586 48.3355 67.5625 48.3824 66.625C48.4527 65.6875 48.4879 65.0312 48.4879 64.6562C49.0035 64.1406 49.3785 63.8242 49.6129 63.707C50.1988 63.4023 50.5973 63.5195 50.8082 64.0586L50.5973 75.1328C56.3863 75.1328 59.8668 74.7578 61.0387 74.0078V62.8984C61.1793 62.5 61.8355 62.3008 63.0074 62.3008C63.2652 62.3008 63.4762 62.3125 63.6402 62.3359C63.6402 62.7812 63.6519 63.4609 63.6754 64.375C63.7223 65.2656 63.7574 66.2852 63.7809 67.4336C63.8277 68.582 63.8746 69.8008 63.9215 71.0898C63.9684 72.3555 64.0152 73.5625 64.0621 74.7109C64.1324 77.1016 64.191 78.8594 64.2379 79.9844C64.4019 82.7969 64.9762 85.0703 65.9605 86.8047C64.9059 87.2266 63.7457 87.4375 62.4801 87.4375C61.4019 84.7656 60.8277 81.2617 60.7574 76.9258C59.2105 76.8789 58.1559 76.8555 57.5934 76.8555C57.0309 76.8555 56.398 76.8906 55.6949 76.9609C54.2418 77.0547 52.6129 77.4297 50.8082 78.0859Z" fill="black"/>
</svg>
