<svg width="64" height="85" viewBox="0 0 64 85" fill="none" xmlns="http://www.w3.org/2000/svg">
<path d="M19.3998 75.06C19.1598 74.508 18.7918 74.076 18.2958 73.764C17.8078 73.444 17.2318 73.284 16.5678 73.284C15.9438 73.284 15.3838 73.428 14.8878 73.716C14.3918 74.004 13.9998 74.416 13.7118 74.952C13.4238 75.48 13.2798 76.096 13.2798 76.8C13.2798 77.504 13.4238 78.124 13.7118 78.66C13.9998 79.196 14.3918 79.608 14.8878 79.896C15.3838 80.184 15.9438 80.328 16.5678 80.328C17.1518 80.328 17.6758 80.204 18.1398 79.956C18.6118 79.7 18.9878 79.34 19.2678 78.876C19.5558 78.404 19.7198 77.856 19.7598 77.232H16.2318V76.548H20.6478V77.16C20.6078 77.896 20.4078 78.564 20.0478 79.164C19.6878 79.756 19.2038 80.224 18.5958 80.568C17.9958 80.912 17.3198 81.084 16.5678 81.084C15.7918 81.084 15.0878 80.904 14.4558 80.544C13.8238 80.176 13.3238 79.668 12.9558 79.02C12.5958 78.364 12.4158 77.624 12.4158 76.8C12.4158 75.976 12.5958 75.24 12.9558 74.592C13.3238 73.936 13.8238 73.428 14.4558 73.068C15.0878 72.7 15.7918 72.516 16.5678 72.516C17.4638 72.516 18.2478 72.74 18.9198 73.188C19.5918 73.636 20.0798 74.26 20.3838 75.06H19.3998ZM21.8026 77.712C21.8026 77.04 21.9346 76.452 22.1986 75.948C22.4706 75.436 22.8426 75.044 23.3146 74.772C23.7946 74.492 24.3346 74.352 24.9346 74.352C25.5586 74.352 26.0946 74.496 26.5426 74.784C26.9986 75.072 27.3266 75.44 27.5266 75.888V74.448H28.3666V81H27.5266V79.548C27.3186 79.996 26.9866 80.368 26.5306 80.664C26.0826 80.952 25.5466 81.096 24.9226 81.096C24.3306 81.096 23.7946 80.956 23.3146 80.676C22.8426 80.396 22.4706 80 22.1986 79.488C21.9346 78.976 21.8026 78.384 21.8026 77.712ZM27.5266 77.724C27.5266 77.196 27.4186 76.732 27.2026 76.332C26.9866 75.932 26.6906 75.624 26.3146 75.408C25.9466 75.192 25.5386 75.084 25.0906 75.084C24.6266 75.084 24.2106 75.188 23.8426 75.396C23.4746 75.604 23.1826 75.908 22.9666 76.308C22.7586 76.7 22.6546 77.168 22.6546 77.712C22.6546 78.248 22.7586 78.72 22.9666 79.128C23.1826 79.528 23.4746 79.836 23.8426 80.052C24.2106 80.26 24.6266 80.364 25.0906 80.364C25.5386 80.364 25.9466 80.256 26.3146 80.04C26.6906 79.824 26.9866 79.516 27.2026 79.116C27.4186 78.716 27.5266 78.252 27.5266 77.724ZM31.1242 72.12V81H30.2842V72.12H31.1242ZM33.8664 72.12V81H33.0264V72.12H33.8664ZM41.6966 77.388C41.6966 77.676 41.6886 77.896 41.6726 78.048H36.2366C36.2606 78.544 36.3806 78.968 36.5966 79.32C36.8126 79.672 37.0966 79.94 37.4486 80.124C37.8006 80.3 38.1846 80.388 38.6006 80.388C39.1446 80.388 39.6006 80.256 39.9686 79.992C40.3446 79.728 40.5926 79.372 40.7126 78.924H41.6006C41.4406 79.564 41.0966 80.088 40.5686 80.496C40.0486 80.896 39.3926 81.096 38.6006 81.096C37.9846 81.096 37.4326 80.96 36.9446 80.688C36.4566 80.408 36.0726 80.016 35.7926 79.512C35.5206 79 35.3846 78.404 35.3846 77.724C35.3846 77.044 35.5206 76.448 35.7926 75.936C36.0646 75.424 36.4446 75.032 36.9326 74.76C37.4206 74.488 37.9766 74.352 38.6006 74.352C39.2246 74.352 39.7686 74.488 40.2326 74.76C40.7046 75.032 41.0646 75.4 41.3126 75.864C41.5686 76.32 41.6966 76.828 41.6966 77.388ZM40.8446 77.364C40.8526 76.876 40.7526 76.46 40.5446 76.116C40.3446 75.772 40.0686 75.512 39.7166 75.336C39.3646 75.16 38.9806 75.072 38.5646 75.072C37.9406 75.072 37.4086 75.272 36.9686 75.672C36.5286 76.072 36.2846 76.636 36.2366 77.364H40.8446ZM44.0734 75.612C44.2574 75.204 44.5374 74.888 44.9134 74.664C45.2974 74.44 45.7654 74.328 46.3174 74.328V75.204H46.0894C45.4814 75.204 44.9934 75.368 44.6254 75.696C44.2574 76.024 44.0734 76.572 44.0734 77.34V81H43.2334V74.448H44.0734V75.612ZM52.9811 74.448L49.0931 84.084H48.2171L49.4891 80.964L46.8011 74.448H47.7251L49.9571 80.04L52.1171 74.448H52.9811Z" fill="black"/>
<path d="M56.96 54.8325H7.04C5.6319 54.8311 4.28188 54.2711 3.28628 53.2753C2.29069 52.2796 1.73087 50.9294 1.72973 49.5213V36.1644C1.73019 35.8122 1.87029 35.4746 2.11932 35.2255C2.36835 34.9765 2.70598 34.8364 3.05816 34.8359H8.35373C8.52848 34.8356 8.70159 34.8697 8.86316 34.9363C9.02473 35.0029 9.17159 35.1006 9.29536 35.224C9.41913 35.3474 9.51738 35.4939 9.58449 35.6553C9.6516 35.8166 9.68626 35.9896 9.68649 36.1644V38.586C9.68671 38.7767 9.76263 38.9595 9.89755 39.0942C10.0325 39.229 10.2154 39.3047 10.4061 39.3047H18.6811C18.8718 39.3047 19.0547 39.229 19.1896 39.0942C19.3245 38.9595 19.4004 38.7767 19.4006 38.586V36.1644C19.4011 35.8122 19.5412 35.4746 19.7902 35.2255C20.0393 34.9765 20.3769 34.8364 20.7291 34.8359H26.0246C26.3768 34.8364 26.7145 34.9765 26.9635 35.2255C27.2125 35.4746 27.3526 35.8122 27.3531 36.1644V38.586C27.3533 38.7765 27.4291 38.9592 27.5638 39.0939C27.6986 39.2287 27.8812 39.3045 28.0718 39.3047H35.7613C35.952 39.3047 36.1349 39.229 36.2698 39.0942C36.4047 38.9595 36.4806 38.7767 36.4809 38.586V36.1644C36.4813 35.8122 36.6214 35.4746 36.8705 35.2255C37.1195 34.9765 37.4571 34.8364 37.8093 34.8359H43.2934C43.4682 34.8355 43.6414 34.8695 43.8031 34.936C43.9648 35.0026 44.1117 35.1003 44.2356 35.2237C44.3595 35.3471 44.4578 35.4937 44.5249 35.6551C44.5921 35.8165 44.6268 35.9895 44.627 36.1644V38.586C44.6273 38.7765 44.703 38.9592 44.8378 39.0939C44.9725 39.2287 45.1552 39.3045 45.3457 39.3047H53.6216C53.8122 39.3045 53.9948 39.2287 54.1296 39.0939C54.2643 38.9592 54.3401 38.7765 54.3403 38.586V36.1644C54.3408 35.812 54.481 35.4743 54.7302 35.2252C54.9794 34.9762 55.3173 34.8362 55.6696 34.8359H60.9384C61.1131 34.8357 61.2861 34.8699 61.4475 34.9365C61.609 35.0032 61.7558 35.101 61.8795 35.2243C62.0031 35.3477 62.1013 35.4942 62.1684 35.6555C62.2354 35.8168 62.27 35.9897 62.2703 36.1644V49.5213C62.2691 50.9294 61.7093 52.2796 60.7137 53.2753C59.7181 54.2711 58.3681 54.8311 56.96 54.8325V54.8325ZM3.45946 36.5657V49.5213C3.46015 50.4708 3.83757 51.3812 4.50888 52.0527C5.18019 52.7242 6.09051 53.1018 7.04 53.1028H56.96C57.9095 53.1018 58.8198 52.7242 59.4911 52.0527C60.1624 51.3812 60.5399 50.4708 60.5405 49.5213V36.5657H56.0735V38.5895C56.0728 39.2392 55.8142 39.8621 55.3544 40.3212C54.8946 40.7803 54.2714 41.0381 53.6216 41.0379H45.3431C44.6944 41.0365 44.0727 40.778 43.6143 40.3191C43.1558 39.8601 42.898 39.2382 42.8973 38.5895V36.5657H38.2132V38.5895C38.2123 39.2387 37.9539 39.8611 37.4947 40.3201C37.0356 40.779 36.4131 41.0372 35.7639 41.0379H28.0744C27.4252 41.0372 26.8029 40.779 26.3438 40.32C25.8848 39.861 25.6266 39.2386 25.6259 38.5895V36.5657H21.133V38.5895C21.1321 39.2391 20.8733 39.8619 20.4136 40.321C19.9539 40.78 19.3308 41.0379 18.6811 41.0379H10.4017C9.75325 41.0361 9.1319 40.7774 8.67367 40.3185C8.21545 39.8597 7.95767 39.2379 7.95676 38.5895V36.5657H3.45946Z" fill="black"/>
<path d="M61.4054 48.0959H2.59459C2.36522 48.0959 2.14524 48.0048 1.98304 47.8426C1.82085 47.6804 1.72973 47.4605 1.72973 47.2311C1.72973 47.0017 1.82085 46.7817 1.98304 46.6195C2.14524 46.4573 2.36522 46.3662 2.59459 46.3662H61.4054C61.6348 46.3662 61.8548 46.4573 62.017 46.6195C62.1792 46.7817 62.2703 47.0017 62.2703 47.2311C62.2703 47.4605 62.1792 47.6804 62.017 47.8426C61.8548 48.0048 61.6348 48.0959 61.4054 48.0959Z" fill="black"/>
<path d="M49.235 41.0378C49.0057 41.0378 48.7857 40.9467 48.6235 40.7845C48.4613 40.6223 48.3702 40.4023 48.3702 40.1729V18.6205C48.3702 18.3911 48.4613 18.1711 48.6235 18.0089C48.7857 17.8467 49.0057 17.7556 49.235 17.7556C49.4644 17.7556 49.6844 17.8467 49.8466 18.0089C50.0088 18.1711 50.0999 18.3911 50.0999 18.6205V40.1729C50.0999 40.4023 50.0088 40.6223 49.8466 40.7845C49.6844 40.9467 49.4644 41.0378 49.235 41.0378Z" fill="black"/>
<path d="M49.235 19.4853C46.729 19.4823 44.3265 18.4854 42.5547 16.7132C40.7828 14.941 39.7863 12.5384 39.7838 10.0323C39.7838 9.80297 39.8749 9.58299 40.0371 9.42079C40.1993 9.2586 40.4193 9.16748 40.6486 9.16748C43.1547 9.17046 45.5572 10.1674 47.329 11.9396C49.1009 13.7118 50.0974 16.1144 50.0999 18.6205C50.0999 18.8498 50.0088 19.0698 49.8466 19.232C49.6844 19.3942 49.4644 19.4853 49.235 19.4853ZM41.5671 10.9534C41.776 12.67 42.5539 14.2671 43.7766 15.4899C44.9994 16.7126 46.5965 17.4905 48.3131 17.6994C48.1042 15.9828 47.3263 14.3857 46.1036 13.1629C44.8808 11.9402 43.2837 11.1623 41.5671 10.9534V10.9534Z" fill="black"/>
<path d="M49.235 30.7668C49.0057 30.7668 48.7857 30.6757 48.6235 30.5135C48.4613 30.3513 48.3702 30.1313 48.3702 29.9019C48.3729 27.3961 49.3695 24.9938 51.1414 23.2219C52.9133 21.4501 55.3156 20.4534 57.8214 20.4507C58.0508 20.4507 58.2708 20.5418 58.433 20.704C58.5952 20.8662 58.6863 21.0862 58.6863 21.3155C58.6833 23.8213 57.6866 26.2235 55.9148 27.9953C54.143 29.7671 51.7407 30.7638 49.235 30.7668V30.7668ZM56.9029 22.234C55.1866 22.4435 53.5898 23.2216 52.3671 24.4442C51.1445 25.6668 50.3664 27.2636 50.157 28.98C51.8735 28.771 53.4705 27.993 54.6933 26.7703C55.916 25.5476 56.6939 23.9506 56.9029 22.234V22.234Z" fill="black"/>
<path d="M32 41.0378C31.7706 41.0378 31.5506 40.9467 31.3884 40.7845C31.2263 40.6223 31.1351 40.4023 31.1351 40.1729V18.6205C31.1351 18.3911 31.2263 18.1711 31.3884 18.0089C31.5506 17.8467 31.7706 17.7556 32 17.7556C32.2294 17.7556 32.4494 17.8467 32.6116 18.0089C32.7738 18.1711 32.8649 18.3911 32.8649 18.6205V40.1729C32.8649 40.4023 32.7738 40.6223 32.6116 40.7845C32.4494 40.9467 32.2294 41.0378 32 41.0378Z" fill="black"/>
<path d="M32 19.4853C29.4939 19.4823 27.0913 18.4854 25.3193 16.7133C23.5473 14.9411 22.5506 12.5384 22.5479 10.0323C22.5479 9.80297 22.639 9.58299 22.8012 9.42079C22.9634 9.2586 23.1834 9.16748 23.4128 9.16748C25.919 9.17 28.3218 10.1668 30.0939 11.939C31.866 13.7113 32.8626 16.1142 32.8649 18.6205C32.8649 18.8498 32.7738 19.0698 32.6116 19.232C32.4494 19.3942 32.2294 19.4853 32 19.4853ZM24.3321 10.9534C24.541 12.67 25.3189 14.2671 26.5416 15.4899C27.7644 16.7126 29.3615 17.4905 31.0781 17.6994C30.8689 15.9829 30.0909 14.386 28.8682 13.1633C27.6455 11.9406 26.0486 11.1626 24.3321 10.9534V10.9534Z" fill="black"/>
<path d="M32 30.7668C31.7706 30.7668 31.5506 30.6757 31.3884 30.5135C31.2263 30.3513 31.1351 30.1313 31.1351 29.9019C31.1379 27.396 32.1346 24.9935 33.9067 23.2216C35.6787 21.4497 38.0813 20.4532 40.5872 20.4507C40.8166 20.4507 41.0366 20.5418 41.1988 20.704C41.361 20.8662 41.4521 21.0862 41.4521 21.3155C41.4489 23.8213 40.452 26.2236 38.6801 27.9954C36.9081 29.7671 34.5058 30.7638 32 30.7668V30.7668ZM39.6679 22.234C37.9515 22.4435 36.3547 23.2216 35.1321 24.4442C33.9095 25.6668 33.1314 27.2636 32.9219 28.98C34.6385 28.7711 36.2356 27.9932 37.4584 26.7705C38.6811 25.5477 39.459 23.9506 39.6679 22.234V22.234Z" fill="black"/>
<path d="M14.765 41.0378C14.5356 41.0378 14.3156 40.9467 14.1534 40.7845C13.9912 40.6223 13.9001 40.4023 13.9001 40.1729V18.6205C13.9001 18.3911 13.9912 18.1711 14.1534 18.0089C14.3156 17.8467 14.5356 17.7556 14.765 17.7556C14.9944 17.7556 15.2143 17.8467 15.3765 18.0089C15.5387 18.1711 15.6298 18.3911 15.6298 18.6205V40.1729C15.6298 40.4023 15.5387 40.6223 15.3765 40.7845C15.2143 40.9467 14.9944 41.0378 14.765 41.0378Z" fill="black"/>
<path d="M14.765 19.4853C12.2589 19.4823 9.8563 18.4854 8.08431 16.7133C6.31231 14.9411 5.31561 12.5384 5.31287 10.0323C5.31287 9.80297 5.40399 9.58299 5.56618 9.42079C5.72837 9.2586 5.94835 9.16748 6.17773 9.16748C8.68389 9.17023 11.0866 10.1671 12.8587 11.9393C14.6307 13.7115 15.6273 16.1143 15.6298 18.6205C15.6298 18.8498 15.5387 19.0698 15.3765 19.232C15.2143 19.3942 14.9944 19.4853 14.765 19.4853ZM7.09622 10.9534C7.30557 12.6705 8.08417 14.268 9.30773 15.4908C10.5313 16.7135 12.1293 17.4911 13.8465 17.6994C13.637 15.9823 12.8583 14.3849 11.6348 13.1622C10.4113 11.9395 8.8134 11.1618 7.09622 10.9534V10.9534Z" fill="black"/>
<path d="M14.765 30.7668C14.5356 30.7668 14.3156 30.6757 14.1534 30.5135C13.9912 30.3513 13.9001 30.1313 13.9001 29.9019C13.9031 27.3962 14.8998 24.994 16.6716 23.2222C18.4434 21.4504 20.8456 20.4537 23.3513 20.4507C23.5807 20.4507 23.8007 20.5418 23.9629 20.704C24.1251 20.8662 24.2162 21.0862 24.2162 21.3155C24.2132 23.8213 23.2165 26.2235 21.4447 27.9953C19.6729 29.7671 17.2707 30.7638 14.765 30.7668V30.7668ZM22.4329 22.234C20.7164 22.4432 19.1194 23.2212 17.8967 24.4439C16.674 25.6666 15.8961 27.2635 15.6869 28.98C17.4035 28.7711 19.0006 27.9932 20.2234 26.7705C21.4461 25.5477 22.224 23.9506 22.4329 22.234V22.234Z" fill="black"/>
</svg>
