<svg width="64" height="64" viewBox="0 0 64 64" fill="none" xmlns="http://www.w3.org/2000/svg">
<path d="M45.3175 41.0926C45.3162 41.0913 45.3162 41.0913 45.315 41.0901L32.7262 30.1313C32.3975 29.8451 31.9062 29.8451 31.5775 30.1313L19.2675 40.8476L18.9887 41.0901C18.9875 41.0913 18.9875 41.0913 18.9862 41.0926L16.8337 42.9663L14.2675 40.0188L22.0462 33.2463C22.4112 32.9288 22.4487 32.3763 22.1312 32.0113C21.8137 31.6463 21.2612 31.6088 20.8962 31.9263L12.4575 39.2738C12.0925 39.5913 12.055 40.1438 12.3725 40.5088L16.0875 44.7763C16.24 44.9513 16.455 45.0588 16.6875 45.0751C16.9212 45.0913 17.1475 45.0151 17.3225 44.8626L32.1512 31.9538L43.3625 41.7138L43.5875 41.9101L43.865 42.1513V57.1751H32.1625V45.6938C32.1625 45.2101 31.7712 44.8188 31.2875 44.8188H25.0187C24.535 44.8188 24.1437 45.2101 24.1437 45.6938V57.1751H20.4375V46.2076C20.4375 45.7238 20.0462 45.3326 19.5625 45.3326C19.0787 45.3326 18.6875 45.7238 18.6875 46.2076V58.0501C18.6875 58.5338 19.0787 58.9251 19.5625 58.9251H25.02H31.2887H44.7412C45.225 58.9251 45.6162 58.5338 45.6162 58.0501V43.6751L46.9812 44.8626C47.1412 45.0013 47.345 45.0776 47.5562 45.0776C47.5762 45.0776 47.5962 45.0763 47.6162 45.0751C47.8475 45.0588 48.0637 44.9513 48.2162 44.7763L51.9312 40.5088C52.2487 40.1438 52.21 39.5913 51.8462 39.2738L44.815 33.1513V24.1726C44.815 23.6888 44.4237 23.2976 43.94 23.2976H38.9612C38.4775 23.2976 38.0862 23.6888 38.0862 24.1726V27.2926L32.7275 22.6263C32.3987 22.3401 31.9075 22.3401 31.5787 22.6263L25.375 28.0276C25.01 28.3451 24.9725 28.8976 25.29 29.2626C25.6075 29.6276 26.16 29.6651 26.525 29.3476L32.1525 24.4476L38.385 29.8751C38.6437 30.1001 39.01 30.1538 39.3225 30.0113C39.635 29.8688 39.835 29.5576 39.835 29.2151V25.0476H43.0637V33.5488C43.0637 33.8013 43.1737 34.0426 43.3637 34.2088L50.0362 40.0176L47.47 42.9651L45.3175 41.0926ZM25.895 57.1726V46.5663H30.4137V57.1726H25.895Z" fill="#474747"/>
<path d="M24.565 30.2625C24.5425 30.21 24.515 30.1587 24.4837 30.1112C24.4525 30.0637 24.415 30.0187 24.375 29.9787C24.335 29.9387 24.29 29.9012 24.2425 29.87C24.195 29.8387 24.1437 29.8112 24.0912 29.79C24.0387 29.7675 23.9837 29.7512 23.9275 29.74C23.815 29.7162 23.6987 29.7162 23.585 29.74C23.53 29.7512 23.475 29.7675 23.4212 29.79C23.3687 29.8112 23.3187 29.8387 23.2712 29.87C23.2225 29.9012 23.1775 29.9387 23.1375 29.9787C22.975 30.1425 22.8812 30.3675 22.8812 30.5975C22.8812 30.8275 22.975 31.0525 23.1375 31.2162C23.1775 31.2562 23.2225 31.2925 23.2712 31.325C23.3187 31.3562 23.3687 31.3837 23.4212 31.405C23.475 31.4275 23.53 31.4437 23.585 31.455C23.6412 31.4662 23.7 31.4725 23.7562 31.4725C23.8137 31.4725 23.8712 31.4662 23.9275 31.455C23.9837 31.4437 24.0387 31.4275 24.0912 31.405C24.1437 31.3837 24.195 31.3562 24.2425 31.325C24.29 31.2925 24.335 31.2562 24.375 31.2162C24.5375 31.0537 24.6312 30.8275 24.6312 30.5975C24.6312 30.54 24.6262 30.4825 24.6137 30.4262C24.6025 30.3712 24.5862 30.315 24.565 30.2625Z" fill="#474747"/>
<path d="M39.2837 51.8887C39.7675 51.8887 40.1587 51.4974 40.1587 51.0137V45.6912C40.1587 45.2074 39.7675 44.8162 39.2837 44.8162H35.3037C34.82 44.8162 34.4287 45.2074 34.4287 45.6912V51.0137C34.4287 51.4974 34.82 51.8887 35.3037 51.8887H39.2837ZM36.1787 46.5662H38.4087V50.1387H36.1787V46.5662Z" fill="#474747"/>
<path d="M44.8275 17.2437C46.1625 16.53 47.0225 15.4587 47.3825 14.0625C48.3338 10.3712 45.3275 5.67497 45.1988 5.47747C45.0013 5.17247 44.635 5.01747 44.28 5.09497C43.925 5.17247 43.6538 5.45747 43.6013 5.81747C43.5975 5.83622 43.2563 7.76122 40.94 10.2887C38.6812 12.7537 40.0625 15.9412 41.315 17.5887C40.8213 19.4325 40.9538 20.57 40.9725 20.7025C41.0325 21.1412 41.4075 21.4575 41.8388 21.4575C41.8788 21.4575 41.9188 21.455 41.9588 21.4487C42.4375 21.3825 42.7725 20.9412 42.7063 20.4625C42.705 20.4537 42.6013 19.5575 43.0063 18.0425C43.5375 17.8262 44.4375 17.4525 44.8275 17.2437ZM42.23 11.4712C43.4238 10.1687 44.165 8.98747 44.6213 8.06497C45.375 9.66997 46.1275 11.9187 45.6875 13.625C45.4513 14.5412 44.9 15.22 44.0025 15.7C43.7425 15.8387 43.0975 16.1125 42.5713 16.3275C41.9038 15.3637 40.6938 13.1475 42.23 11.4712Z" fill="#474747"/>
<path d="M11.855 27.4925C11.855 29.0225 13.1 30.2663 14.6287 30.2663C16.1575 30.2663 17.4025 29.0225 17.4025 27.4925C17.4025 25.9625 16.1587 24.7188 14.6287 24.7188C13.0987 24.7188 11.855 25.9625 11.855 27.4925ZM15.6525 27.4925C15.6525 28.0575 15.1937 28.5163 14.6287 28.5163C14.0637 28.5163 13.605 28.0575 13.605 27.4925C13.605 26.9275 14.0637 26.4688 14.6287 26.4688C15.1937 26.4688 15.6525 26.9275 15.6525 27.4925Z" fill="#474747"/>
<path d="M19.9725 16.075C17.7425 16.075 15.9287 17.8887 15.9287 20.1187C15.9287 22.3487 17.7425 24.1625 19.9725 24.1625C22.2025 24.1625 24.0162 22.3487 24.0162 20.1187C24.0162 17.8887 22.2025 16.075 19.9725 16.075ZM19.9725 22.4125C18.7075 22.4125 17.6787 21.3837 17.6787 20.1187C17.6787 18.8537 18.7075 17.825 19.9725 17.825C21.2375 17.825 22.2662 18.8537 22.2662 20.1187C22.2662 21.3837 21.2375 22.4125 19.9725 22.4125Z" fill="#474747"/>
<path d="M31.1612 17.77C31.1612 16.3062 29.97 15.115 28.5062 15.115C27.0425 15.115 25.8512 16.3062 25.8512 17.77C25.8512 19.2337 27.0425 20.425 28.5062 20.425C29.97 20.425 31.1612 19.2337 31.1612 17.77ZM27.6 17.77C27.6 17.2712 28.0062 16.865 28.505 16.865C29.0037 16.865 29.41 17.2712 29.41 17.77C29.41 18.2687 29.0037 18.675 28.505 18.675C28.0062 18.675 27.6 18.2687 27.6 17.77Z" fill="#474747"/>
</svg>
