<svg width="60" height="78" viewBox="0 0 60 78" fill="none" xmlns="http://www.w3.org/2000/svg">
<path d="M42.4852 38.5244C42.484 38.5232 42.484 38.5232 42.4828 38.522L30.6809 28.2482C30.3727 27.9798 29.9121 27.9798 29.6039 28.2482L18.0633 38.2947L17.8019 38.522C17.8008 38.5232 17.8008 38.5232 17.7996 38.5244L15.7816 40.281L13.3758 37.5177L20.6684 31.1685C21.0105 30.8709 21.0457 30.3529 20.748 30.0107C20.4504 29.6685 19.9324 29.6334 19.5902 29.931L11.6789 36.8193C11.3367 37.1169 11.3016 37.6349 11.5992 37.9771L15.082 41.9779C15.225 42.1419 15.4266 42.2427 15.6445 42.258C15.8637 42.2732 16.0758 42.2017 16.2398 42.0587L30.1418 29.9568L40.6523 39.1068L40.8633 39.2908L41.1234 39.5169V53.6017H30.1523V42.838C30.1523 42.3845 29.7855 42.0177 29.332 42.0177H23.4551C23.0016 42.0177 22.6348 42.3845 22.6348 42.838V53.6017H19.1602V43.3197C19.1602 42.8662 18.7934 42.4994 18.3398 42.4994C17.8863 42.4994 17.5195 42.8662 17.5195 43.3197V54.422C17.5195 54.8755 17.8863 55.2423 18.3398 55.2423H23.4562H29.3332H41.9449C42.3984 55.2423 42.7652 54.8755 42.7652 54.422V40.9455L44.0449 42.0587C44.1949 42.1888 44.3859 42.2603 44.584 42.2603C44.6027 42.2603 44.6215 42.2591 44.6402 42.258C44.857 42.2427 45.0598 42.1419 45.2027 41.9779L48.6855 37.9771C48.9832 37.6349 48.9469 37.1169 48.6059 36.8193L42.0141 31.0794V22.6619C42.0141 22.2084 41.6473 21.8416 41.1937 21.8416H36.5262C36.0727 21.8416 35.7059 22.2084 35.7059 22.6619V25.5869L30.682 21.2123C30.3738 20.9439 29.9133 20.9439 29.6051 21.2123L23.7891 26.2759C23.4469 26.5736 23.4117 27.0916 23.7094 27.4337C24.007 27.7759 24.525 27.8111 24.8672 27.5134L30.143 22.9197L35.9859 28.008C36.2285 28.2189 36.5719 28.2693 36.8648 28.1357C37.1578 28.0021 37.3453 27.7103 37.3453 27.3892V23.4822H40.3723V31.4521C40.3723 31.6888 40.4754 31.915 40.6535 32.0709L46.909 37.5166L44.5031 40.2798L42.4852 38.5244ZM24.2766 53.5994V43.656H28.5129V53.5994H24.2766Z" fill="#474747"/>
<path d="M23.0297 28.371C23.0086 28.3218 22.9828 28.2738 22.9535 28.2292C22.9242 28.1847 22.8891 28.1425 22.8516 28.105C22.8141 28.0675 22.7719 28.0324 22.7273 28.0031C22.6828 27.9738 22.6348 27.948 22.5855 27.9281C22.5363 27.907 22.4848 27.8917 22.432 27.8812C22.3266 27.8589 22.2176 27.8589 22.1109 27.8812C22.0594 27.8917 22.0078 27.907 21.9574 27.9281C21.9082 27.948 21.8613 27.9738 21.8168 28.0031C21.7711 28.0324 21.7289 28.0675 21.6914 28.105C21.5391 28.2585 21.4512 28.4695 21.4512 28.6851C21.4512 28.9007 21.5391 29.1117 21.6914 29.2652C21.7289 29.3027 21.7711 29.3367 21.8168 29.3671C21.8613 29.3964 21.9082 29.4222 21.9574 29.4421C22.0078 29.4632 22.0594 29.4785 22.1109 29.489C22.1637 29.4996 22.2188 29.5054 22.2715 29.5054C22.3254 29.5054 22.3793 29.4996 22.432 29.489C22.4848 29.4785 22.5363 29.4632 22.5855 29.4421C22.6348 29.4222 22.6828 29.3964 22.7273 29.3671C22.7719 29.3367 22.8141 29.3027 22.8516 29.2652C23.0039 29.1128 23.0918 28.9007 23.0918 28.6851C23.0918 28.6312 23.0871 28.5773 23.0754 28.5246C23.0648 28.473 23.0496 28.4203 23.0297 28.371Z" fill="#474747"/>
<path d="M36.8285 48.6456C37.282 48.6456 37.6488 48.2788 37.6488 47.8253V42.8354C37.6488 42.3819 37.282 42.0151 36.8285 42.0151H33.0973C32.6437 42.0151 32.2769 42.3819 32.2769 42.8354V47.8253C32.2769 48.2788 32.6437 48.6456 33.0973 48.6456H36.8285ZM33.9176 43.6558H36.0082V47.005H33.9176V43.6558Z" fill="#474747"/>
<path d="M42.0258 16.166C43.2773 15.4969 44.0836 14.4926 44.4211 13.1836C45.3129 9.72308 42.4945 5.32035 42.3738 5.13519C42.1887 4.84925 41.8453 4.70394 41.5125 4.7766C41.1797 4.84925 40.9254 5.11644 40.8762 5.45394C40.8726 5.47152 40.5527 7.2762 38.3812 9.64574C36.2637 11.9567 37.5586 14.945 38.7328 16.4895C38.2699 18.218 38.3941 19.2844 38.4117 19.4086C38.468 19.82 38.8195 20.1164 39.2238 20.1164C39.2613 20.1164 39.2988 20.1141 39.3363 20.1082C39.7851 20.0461 40.0992 19.6325 40.0371 19.1836C40.0359 19.1754 39.9387 18.3352 40.3183 16.9149C40.8164 16.7121 41.6601 16.3618 42.0258 16.166ZM39.5906 10.7543C40.7098 9.53324 41.4047 8.42581 41.8324 7.56097C42.5391 9.06566 43.2445 11.1739 42.832 12.7735C42.6105 13.6325 42.0937 14.2688 41.2523 14.7188C41.0086 14.8489 40.4039 15.1055 39.9105 15.3071C39.2848 14.4035 38.1504 12.3258 39.5906 10.7543Z" fill="#474747"/>
<path d="M11.1141 25.7742C11.1141 27.2086 12.2812 28.3746 13.7145 28.3746C15.1477 28.3746 16.3148 27.2086 16.3148 25.7742C16.3148 24.3398 15.1488 23.1738 13.7145 23.1738C12.2801 23.1738 11.1141 24.3398 11.1141 25.7742ZM14.6742 25.7742C14.6742 26.3039 14.2441 26.734 13.7145 26.734C13.1848 26.734 12.7547 26.3039 12.7547 25.7742C12.7547 25.2445 13.1848 24.8145 13.7145 24.8145C14.2441 24.8145 14.6742 25.2445 14.6742 25.7742Z" fill="#474747"/>
<path d="M18.7242 15.0703C16.6336 15.0703 14.9332 16.7707 14.9332 18.8613C14.9332 20.952 16.6336 22.6523 18.7242 22.6523C20.8148 22.6523 22.5152 20.952 22.5152 18.8613C22.5152 16.7707 20.8148 15.0703 18.7242 15.0703ZM18.7242 21.0117C17.5383 21.0117 16.5738 20.0473 16.5738 18.8613C16.5738 17.6754 17.5383 16.7109 18.7242 16.7109C19.9102 16.7109 20.8746 17.6754 20.8746 18.8613C20.8746 20.0473 19.9102 21.0117 18.7242 21.0117Z" fill="#474747"/>
<path d="M29.2137 16.6595C29.2137 15.2872 28.0969 14.1704 26.7246 14.1704C25.3523 14.1704 24.2355 15.2872 24.2355 16.6595C24.2355 18.0317 25.3523 19.1485 26.7246 19.1485C28.0969 19.1485 29.2137 18.0317 29.2137 16.6595ZM25.875 16.6595C25.875 16.1919 26.2559 15.811 26.7234 15.811C27.191 15.811 27.5719 16.1919 27.5719 16.6595C27.5719 17.1271 27.191 17.5079 26.7234 17.5079C26.2559 17.5079 25.875 17.1271 25.875 16.6595Z" fill="#474747"/>
<path d="M18.188 68.612V77H17.348V73.076H12.8V77H11.96V68.612H12.8V72.38H17.348V68.612H18.188ZM22.9725 77.096C22.3565 77.096 21.8005 76.96 21.3045 76.688C20.8165 76.408 20.4285 76.016 20.1405 75.512C19.8605 75 19.7205 74.404 19.7205 73.724C19.7205 73.044 19.8645 72.452 20.1525 71.948C20.4405 71.436 20.8325 71.044 21.3285 70.772C21.8245 70.492 22.3805 70.352 22.9965 70.352C23.6125 70.352 24.1685 70.492 24.6645 70.772C25.1685 71.044 25.5605 71.436 25.8405 71.948C26.1285 72.452 26.2725 73.044 26.2725 73.724C26.2725 74.396 26.1285 74.988 25.8405 75.5C25.5525 76.012 25.1565 76.408 24.6525 76.688C24.1485 76.96 23.5885 77.096 22.9725 77.096ZM22.9725 76.364C23.4045 76.364 23.8045 76.268 24.1725 76.076C24.5405 75.876 24.8365 75.58 25.0605 75.188C25.2925 74.788 25.4085 74.3 25.4085 73.724C25.4085 73.148 25.2965 72.664 25.0725 72.272C24.8485 71.872 24.5525 71.576 24.1845 71.384C23.8165 71.184 23.4165 71.084 22.9845 71.084C22.5525 71.084 22.1525 71.184 21.7845 71.384C21.4165 71.576 21.1205 71.872 20.8965 72.272C20.6805 72.664 20.5725 73.148 20.5725 73.724C20.5725 74.3 20.6805 74.788 20.8965 75.188C21.1205 75.58 21.4125 75.876 21.7725 76.076C22.1405 76.268 22.5405 76.364 22.9725 76.364ZM35.6038 70.328C36.3718 70.328 36.9958 70.572 37.4758 71.06C37.9638 71.54 38.2078 72.24 38.2078 73.16V77H37.3798V73.256C37.3798 72.544 37.2078 72 36.8638 71.624C36.5198 71.248 36.0518 71.06 35.4598 71.06C34.8438 71.06 34.3518 71.264 33.9838 71.672C33.6158 72.08 33.4318 72.672 33.4318 73.448V77H32.6038V73.256C32.6038 72.544 32.4318 72 32.0878 71.624C31.7438 71.248 31.2718 71.06 30.6718 71.06C30.0558 71.06 29.5638 71.264 29.1958 71.672C28.8278 72.08 28.6438 72.672 28.6438 73.448V77H27.8038V70.448H28.6438V71.576C28.8518 71.168 29.1478 70.86 29.5318 70.652C29.9158 70.436 30.3438 70.328 30.8158 70.328C31.3838 70.328 31.8798 70.464 32.3038 70.736C32.7358 71.008 33.0478 71.408 33.2398 71.936C33.4158 71.416 33.7158 71.02 34.1398 70.748C34.5718 70.468 35.0598 70.328 35.6038 70.328ZM46.0013 73.388C46.0013 73.676 45.9933 73.896 45.9773 74.048H40.5413C40.5653 74.544 40.6853 74.968 40.9013 75.32C41.1173 75.672 41.4013 75.94 41.7533 76.124C42.1053 76.3 42.4893 76.388 42.9053 76.388C43.4493 76.388 43.9053 76.256 44.2733 75.992C44.6493 75.728 44.8973 75.372 45.0173 74.924H45.9053C45.7453 75.564 45.4013 76.088 44.8733 76.496C44.3533 76.896 43.6973 77.096 42.9053 77.096C42.2893 77.096 41.7373 76.96 41.2493 76.688C40.7613 76.408 40.3773 76.016 40.0973 75.512C39.8253 75 39.6893 74.404 39.6893 73.724C39.6893 73.044 39.8253 72.448 40.0973 71.936C40.3693 71.424 40.7493 71.032 41.2373 70.76C41.7253 70.488 42.2813 70.352 42.9053 70.352C43.5293 70.352 44.0733 70.488 44.5373 70.76C45.0093 71.032 45.3693 71.4 45.6173 71.864C45.8733 72.32 46.0013 72.828 46.0013 73.388ZM45.1493 73.364C45.1573 72.876 45.0573 72.46 44.8493 72.116C44.6493 71.772 44.3733 71.512 44.0213 71.336C43.6693 71.16 43.2853 71.072 42.8693 71.072C42.2453 71.072 41.7133 71.272 41.2733 71.672C40.8333 72.072 40.5893 72.636 40.5413 73.364H45.1493Z" fill="black"/>
</svg>
