<svg width="297" height="101" viewBox="0 0 297 101" fill="none" xmlns="http://www.w3.org/2000/svg">
<rect width="297" height="101" fill="#BFEB55"/>
<path d="M166.177 57.4668C167.119 57.1045 168.052 56.7624 168.955 56.3901C171.724 55.2731 174.265 53.965 176.082 51.6204C176.539 51.0267 176.958 50.3726 177.31 49.638C177.595 49.0644 177.843 48.4405 178.062 47.7563C177.824 47.9575 177.576 48.1487 177.31 48.3299C176.92 48.6015 176.511 48.8531 176.082 49.0946C174.084 50.2015 171.61 51.0568 168.955 51.8619C168.042 52.1336 167.11 52.4052 166.177 52.687C165.578 52.8581 164.978 53.0392 164.379 53.2203C164.892 52.2644 165.492 51.248 166.177 50.2216C166.986 49.0141 167.909 47.8066 168.955 46.6594C170.069 45.4419 171.325 44.2947 172.733 43.3186C171.487 43.7815 170.221 44.506 168.955 45.4117C168.023 46.0859 167.09 46.8506 166.177 47.6858C165.482 48.3198 164.788 48.994 164.112 49.6883C162.514 51.3386 161.01 53.1096 159.65 54.8002L159.374 54.9109C156.005 56.2089 152.96 57.8794 150.934 60.385C150.239 61.2403 149.668 62.1862 149.24 63.2528C149.173 59.6605 149.82 56.6517 150.934 54.0958C152.789 49.8393 155.958 46.8506 159.374 44.5966C160.934 43.5702 162.552 42.6847 164.112 41.9098C164.816 41.5577 165.501 41.2356 166.177 40.9237C167.157 40.4709 168.09 40.0482 168.955 39.6357C172.076 38.1766 174.303 36.9489 174.303 35.2685C172.704 36.6772 170.859 37.3615 168.955 37.7942C168.033 38.0055 167.09 38.1565 166.177 38.3074C165.473 38.4181 164.788 38.5288 164.112 38.6596C163.351 38.8105 162.609 38.9917 161.914 39.2332C163.741 33.437 164.388 30.8107 162.666 25.3366C162.666 32.3503 161.848 36.0534 159.374 39.1124C158.784 39.8369 158.108 40.5212 157.318 41.2155C155.596 42.7149 153.151 44.1136 150.934 46.0255C150.049 46.7903 149.202 47.6355 148.441 48.6015C148.298 48.7827 148.155 48.9739 148.022 49.1651C148.022 47.9676 148.174 46.8305 148.441 45.7236C148.964 43.5299 149.915 41.4771 150.934 39.4143C153.474 34.232 156.357 28.9793 153.655 21.1807C153.331 25.9101 152.228 29.2409 150.934 31.9578C150.125 33.6484 149.249 35.0974 148.441 36.4961C147.489 38.1464 146.642 39.7262 146.138 41.5375L145.929 41.3564C144.844 40.4306 143.921 39.525 143.16 38.6395C138.402 33.1452 139.296 28.1944 140.315 20.587C134.31 39.6256 143.131 36.4961 143.131 51.1675C140.248 47.2028 137.574 44.3953 135.414 41.5677C132.131 37.281 130 32.9339 130 24.3605C128.164 34.0207 131.532 39.3439 135.414 45.0997C138.402 49.5172 141.685 54.1763 143.16 61.2302C143.436 62.5484 143.645 63.9472 143.788 65.4364C143.578 65.1849 143.369 64.9333 143.16 64.6918C140.61 61.7032 138.098 59.4391 135.414 57.4467C134.977 57.1247 134.539 56.8026 134.092 56.4907C131.608 51.4694 131.189 45.633 126.936 40.813C126.622 40.4608 126.289 40.1086 125.927 39.7665C126.299 40.3501 126.632 40.9338 126.936 41.5174C129.201 45.9047 129.619 50.3826 131.104 54.4882C129.781 53.643 128.401 52.7977 126.936 51.9021C125.918 51.2782 124.862 50.6342 123.758 49.9499C121.826 48.7525 119.752 47.4443 117.506 45.9349C116.869 45.5022 116.222 45.0595 115.556 44.5966C115.584 45.8343 116.336 47.0016 117.506 48.1387C119.096 49.6984 121.455 51.2178 123.758 52.8379C124.862 53.6128 125.947 54.4077 126.936 55.253C128.268 56.38 129.429 57.5775 130.181 58.8856C129.581 58.6743 128.44 58.3926 126.936 58.0907C125.994 57.8995 124.919 57.7083 123.758 57.5171C121.845 57.2152 119.695 56.9435 117.506 56.7624C116.631 56.692 115.756 56.6316 114.89 56.5913C114.033 56.5511 113.177 56.531 112.349 56.541C108.867 56.5611 105.755 56.9838 103.985 58.1209C103.9 58.1812 103.814 58.2316 103.728 58.2919H103.985C106.84 58.302 109.647 58.4227 112.349 58.7045C113.206 58.7951 114.052 58.8957 114.89 59.0164C115.775 59.1372 116.65 59.2881 117.506 59.4491C119.695 59.8617 121.788 60.395 123.758 61.0692C124.862 61.4416 125.918 61.8642 126.936 62.3271C130.295 63.8667 133.178 65.8993 135.424 68.5458C137.346 70.8301 138.792 73.557 139.648 76.8174C140.219 79.011 140.4 88.0272 138.621 90.714H153.845C152.399 88.6008 151.248 82.5833 150.943 78.9909C150.857 77.9645 150.838 77.1394 150.896 76.6564C150.915 76.5457 150.924 76.435 150.943 76.3243C152.133 67.6704 155.434 63.3635 159.383 60.7472C160.896 59.741 162.504 58.9762 164.122 58.312C164.807 57.99 165.492 57.7284 166.177 57.4668Z" fill="#929292"/>
<path d="M135.424 32.2499C135.053 31.948 134.634 31.7065 134.187 31.5354C133.606 32.7128 133.492 34.1316 133.977 35.4599C134.282 36.2951 134.786 36.9794 135.414 37.4926C135.785 37.7944 136.204 38.0359 136.642 38.207C137.222 37.0397 137.336 35.6108 136.851 34.2825C136.546 33.4473 136.042 32.7631 135.424 32.2499Z" fill="#F9F68A"/>
<path d="M146.947 12.1143C147.584 11.6514 148.098 11.0175 148.45 10.2728C148.659 9.79988 148.812 9.28668 148.869 8.74329C148.973 7.80746 148.812 6.91188 148.45 6.11693C148.26 5.70436 148.022 5.33204 147.736 4.99997C146.88 5.62386 146.243 6.53956 145.948 7.6364C145.881 7.8779 145.833 8.11941 145.805 8.37097C145.738 9.00493 145.795 9.61875 145.948 10.2024C146.138 10.9168 146.48 11.5709 146.947 12.1143Z" fill="#F9F68A"/>
<path d="M158.689 14.3081C159.269 13.1408 159.393 11.7119 158.898 10.3836C158.403 9.05535 157.404 8.08933 156.224 7.63651C155.644 8.81384 155.529 10.2327 156.024 11.571C156.519 12.8993 157.509 13.8653 158.689 14.3081Z" fill="#F9F68A"/>
<path d="M138.64 12.9294C138.706 11.5105 138.174 10.2024 137.27 9.28668C136.29 10.1018 135.633 11.3596 135.576 12.7684C135.5 14.2073 136.042 15.5054 136.946 16.4312C137.926 15.6161 138.583 14.3583 138.64 12.9294Z" fill="#F9F68A"/>
<path d="M126.936 17.5986C127.478 18.5344 128.306 19.2086 129.239 19.5708C129.819 18.4036 129.933 16.9747 129.448 15.6464C128.982 14.3684 128.04 13.4427 126.936 12.9697C126.889 12.9496 126.831 12.9295 126.774 12.9093C126.194 14.0665 126.08 15.4954 126.565 16.8338C126.679 17.0954 126.803 17.3571 126.936 17.5986Z" fill="#F9F68A"/>
<path d="M177.319 26.9567C176.825 27.7415 176.568 28.6673 176.568 29.583C176.815 29.6233 177.062 29.6333 177.319 29.6233C178.328 29.5931 179.327 29.2107 180.136 28.456C181.154 27.5302 181.668 26.202 181.668 24.8837C180.431 24.7026 179.127 25.0749 178.109 26.0108C177.805 26.2925 177.538 26.6145 177.319 26.9567Z" fill="#F9F68A"/>
<path d="M184.056 38.5793C184.465 38.9114 184.932 39.163 185.426 39.324C186.14 39.5554 186.911 39.6057 187.681 39.4347C189.004 39.1529 190.07 38.2674 190.679 37.1202C189.689 36.3253 188.386 35.963 187.053 36.2548C186.454 36.3856 185.902 36.6372 185.417 36.9894C184.855 37.402 184.389 37.9554 184.056 38.5793Z" fill="#F9F68A"/>
<path d="M176.092 22.9013C176.511 22.851 176.92 22.7504 177.319 22.5692C177.491 22.4988 177.652 22.4082 177.814 22.3177C178.994 21.6133 179.746 20.436 180.003 19.1379C179.146 18.8159 178.214 18.7656 177.319 19.0272C176.977 19.1278 176.634 19.2687 176.311 19.47C176.235 19.5102 176.159 19.5605 176.092 19.6108C175.036 20.3253 174.351 21.4322 174.113 22.6498C174.741 22.8812 175.416 22.9718 176.092 22.9013Z" fill="#F9F68A"/>
<path d="M164.226 16.1996C164.978 15.9077 165.663 15.3945 166.177 14.7103C166.462 14.338 166.7 13.9053 166.872 13.4323C167.347 12.104 167.224 10.6751 166.643 9.50784C166.491 9.56822 166.329 9.63866 166.187 9.71916C165.302 10.182 164.569 10.9569 164.122 11.9531C164.074 12.0537 164.036 12.1644 163.998 12.265C163.551 13.5128 163.627 14.8411 164.122 15.9681C164.15 16.0486 164.188 16.1291 164.226 16.1996Z" fill="#F9F68A"/>
<path d="M111.417 26.5542C111.712 26.7856 112.026 26.9869 112.349 27.1278C113.158 27.5001 114.043 27.6007 114.89 27.4598C114.937 27.4498 114.985 27.4397 115.042 27.4296C115.023 27.1076 114.975 26.7856 114.89 26.4737C114.642 25.5077 114.1 24.6121 113.291 23.958C112.996 23.7165 112.682 23.5253 112.349 23.3744C111.493 22.9819 110.551 22.8813 109.666 23.0825C109.742 24.3907 110.341 25.6787 111.417 26.5542Z" fill="#F9F68A"/>
<path d="M165.206 63.9673C164.873 63.6252 164.512 63.3333 164.112 63.122C163.37 62.7095 162.533 62.5283 161.714 62.5887C161.629 63.917 162.057 65.2654 163.018 66.2717C163.351 66.6239 163.713 66.9056 164.103 67.1169C164.75 67.4792 165.454 67.6603 166.167 67.6603C166.282 67.6603 166.386 67.6603 166.5 67.6503C166.548 66.9157 166.434 66.1811 166.167 65.4968C165.958 64.9434 165.635 64.4201 165.206 63.9673Z" fill="#F9F68A"/>
<path d="M117.506 61.9346C117.335 61.9748 117.164 62.0251 116.983 62.0956C116.108 62.4277 115.394 63.0214 114.88 63.7559C114.652 64.088 114.462 64.4603 114.319 64.8427C114.5 64.9534 114.69 65.044 114.88 65.1245C115.699 65.4565 116.602 65.5471 117.497 65.3358C117.668 65.2955 117.849 65.2351 118.02 65.1748C119.286 64.6918 120.228 63.6654 120.685 62.4277C119.752 61.8641 118.62 61.6729 117.506 61.9346Z" fill="#F9F68A"/>
<path d="M183.247 61.5626C182.029 60.9487 180.678 60.9689 179.527 61.5022C179.869 62.7801 180.707 63.8971 181.925 64.5109C183.067 65.0845 184.323 65.1046 185.417 64.6719C185.493 64.6417 185.569 64.6116 185.645 64.5814C185.588 64.36 185.512 64.1386 185.417 63.9273C185.008 62.921 184.256 62.0758 183.247 61.5626Z" fill="#F9F68A"/>
<path d="M185.426 47.6959C185.227 47.6255 185.017 47.5752 184.798 47.5349C183.466 47.3136 182.172 47.7362 181.211 48.5815C181.887 49.7085 182.981 50.5236 184.323 50.755C184.694 50.8154 185.065 50.8255 185.426 50.7953C186.349 50.7047 187.215 50.3122 187.9 49.7085C187.348 48.7726 186.483 48.0481 185.426 47.6959Z" fill="#F9F68A"/>
<path d="M187.31 42.2822C186.616 42.3526 185.978 42.5941 185.426 42.9463C184.903 43.2885 184.446 43.7312 184.094 44.2545C184.484 44.6469 184.932 44.9589 185.426 45.1803C186.102 45.4822 186.844 45.613 187.615 45.5325C188.957 45.3916 190.108 44.6268 190.831 43.5501C189.927 42.6344 188.652 42.1413 187.31 42.2822Z" fill="#F9F68A"/>
<path d="M115.042 22.3783C115.508 23.6261 116.422 24.5619 117.516 25.0349C117.583 25.0651 117.649 25.0852 117.716 25.1154C118.296 23.9481 118.41 22.5192 117.925 21.1909C117.811 20.8891 117.678 20.5972 117.516 20.3356C116.974 19.44 116.165 18.7859 115.261 18.4438C115.109 18.7558 114.985 19.0878 114.899 19.44C114.699 20.2249 114.69 21.0702 114.899 21.8853C114.928 22.0563 114.975 22.2173 115.042 22.3783Z" fill="#F9F68A"/>
<path d="M103.985 54.3777C104.08 54.2469 104.166 54.1161 104.242 53.9752C104.157 53.9048 104.071 53.8343 103.985 53.774C103.043 53.0796 101.854 52.7778 100.636 53.0092C99.3038 53.2708 98.219 54.1161 97.5815 55.2633C98.5616 56.0884 99.8557 56.4708 101.188 56.2192C102.358 55.9878 103.329 55.3035 103.985 54.3777Z" fill="#F9F68A"/>
<path d="M102.387 49.296C102.948 49.3463 103.481 49.286 103.985 49.135C104.708 48.9136 105.355 48.5111 105.879 47.9677C105.403 47.2835 104.746 46.73 103.985 46.3879C103.567 46.2068 103.11 46.086 102.625 46.0458C101.292 45.925 100.027 46.4583 99.123 47.3841C99.8747 48.4407 101.045 49.1753 102.387 49.296Z" fill="#F9F68A"/>
<path d="M147.556 24.0587C146.975 24.3605 146.433 24.7329 145.938 25.1656C144.701 26.2523 143.759 27.7416 143.312 29.5026C143.255 29.724 143.207 29.9453 143.169 30.1667C142.988 31.2132 142.998 32.2598 143.169 33.256C143.369 34.4132 143.797 35.4999 144.406 36.466C144.948 36.1842 145.462 35.8421 145.938 35.4295C147.051 34.4836 147.936 33.2157 148.45 31.7164C148.526 31.4849 148.602 31.2535 148.659 31.022C149.107 29.2711 148.992 27.49 148.45 25.9102C148.222 25.2561 147.927 24.6322 147.556 24.0587Z" fill="#458766"/>
<path d="M143.169 21.714C143.654 22.1367 144.178 22.4889 144.739 22.7807C145.31 21.875 145.719 20.8587 145.938 19.7921C146.166 18.655 146.176 17.4575 145.938 16.25C145.909 16.1091 145.881 15.9582 145.843 15.8173C145.386 14.0261 144.425 12.5268 143.169 11.43C142.684 11.0073 142.151 10.6551 141.599 10.3633C140.353 12.3356 139.877 14.8412 140.505 17.3267C140.952 19.1179 141.913 20.6273 143.169 21.714Z" fill="#458766"/>
<path d="M148.269 15.8173C147.832 17.538 147.927 19.2889 148.45 20.8587C148.678 21.543 148.983 22.187 149.364 22.7807C149.925 22.4889 150.448 22.1367 150.934 21.714C152.19 20.6273 153.151 19.1179 153.607 17.3267C154.235 14.8513 153.76 12.3356 152.513 10.3633C151.952 10.6551 151.428 11.0073 150.934 11.43C149.82 12.396 148.945 13.6739 148.441 15.1934C148.383 15.4047 148.326 15.616 148.269 15.8173Z" fill="#458766"/>
<path d="M134.729 29.9352C134.976 29.6937 135.205 29.4422 135.424 29.1705C136.651 27.6309 137.374 25.6183 137.308 23.4347C137.251 21.4423 136.556 19.631 135.424 18.2122C135.1 17.8097 134.748 17.4374 134.358 17.1053C132.712 18.7354 131.713 21.0599 131.779 23.6159C131.855 26.1718 132.988 28.4359 134.729 29.9352Z" fill="#458766"/>
<path d="M177.319 33.6787C176.806 34.5542 176.444 35.5202 176.254 36.5265C176.606 36.6573 176.958 36.7579 177.319 36.8384C179.165 37.2309 181.145 36.9391 182.895 35.8825C183.923 35.2586 184.779 34.4334 185.426 33.4775C186.102 32.4813 186.568 31.3442 186.797 30.1568C186.349 29.9958 185.893 29.865 185.426 29.7945C183.676 29.4927 181.82 29.8046 180.145 30.8109C178.956 31.5153 177.995 32.5215 177.319 33.6787Z" fill="#458766"/>
<path d="M177.319 40.8232C177.072 40.944 176.825 41.0748 176.587 41.2157C176.415 41.3163 176.244 41.427 176.092 41.5377C174.275 42.8257 173.095 44.798 172.695 46.9313C173.78 47.3338 174.941 47.4848 176.092 47.3741C176.501 47.3338 176.92 47.2634 177.319 47.1527C178.004 46.9615 178.68 46.6798 179.327 46.2873C181.439 45.0194 182.791 42.8861 183.228 40.5616C181.354 39.8673 179.241 39.9176 177.319 40.8232Z" fill="#458766"/>
<path d="M156.709 21.3719C156.081 23.8474 156.557 26.363 157.813 28.3353C158.374 28.0435 158.898 27.6913 159.383 27.2687C160.649 26.1819 161.6 24.6725 162.057 22.8914C162.685 20.416 162.209 17.9003 160.963 15.928C160.401 16.2198 159.868 16.5821 159.383 16.9947C158.118 18.0814 157.166 19.5808 156.709 21.3719Z" fill="#458766"/>
<path d="M166.177 18.9367C165.197 20.8184 164.969 22.9718 165.406 24.9542C165.663 24.934 165.92 24.8938 166.177 24.8435C167.157 24.6422 168.109 24.2598 168.955 23.6863C169.802 23.1228 170.573 22.3781 171.192 21.4624C172.609 19.3895 173.019 16.8638 172.514 14.5393C171.258 14.66 170.04 15.0927 168.955 15.8072C168.109 16.3707 167.338 17.1153 166.71 18.031C166.52 18.3229 166.339 18.6247 166.177 18.9367Z" fill="#458766"/>
<path d="M168.965 27.8623C168.737 28.0636 168.518 28.2648 168.308 28.4963C167.224 29.6434 166.52 31.0422 166.187 32.5113C165.996 33.3666 165.93 34.2421 165.987 35.1075C166.053 35.1075 166.12 35.1175 166.187 35.1175C167.129 35.1578 168.071 35.027 168.965 34.7251C170.164 34.3226 171.277 33.6182 172.229 32.6119C173.941 30.8006 174.712 28.3655 174.55 25.9907C172.581 25.8599 170.573 26.4837 168.965 27.8623Z" fill="#458766"/>
<path d="M176.092 59.8416C174.75 58.7951 173.095 58.1712 171.306 58.1712C170.487 58.1712 169.698 58.302 168.955 58.5334C167.928 58.8655 166.986 59.4089 166.177 60.1133C165.834 60.4152 165.511 60.7472 165.225 61.0994C165.52 61.4516 165.834 61.7837 166.177 62.0755C166.986 62.7799 167.928 63.3233 168.955 63.6453C169.698 63.8868 170.487 64.0075 171.306 64.0075C173.095 64.0075 174.75 63.3937 176.092 62.3472C176.539 61.995 176.958 61.6026 177.319 61.1598L177.376 61.0894L177.319 61.0189C176.948 60.5963 176.539 60.1938 176.092 59.8416Z" fill="#458766"/>
<path d="M123.758 26.6949C124.738 27.3289 125.823 27.7314 126.936 27.8823C127.107 27.9024 127.269 27.9226 127.44 27.9326C127.764 26.232 127.612 24.4409 126.936 22.8107C126.679 22.1969 126.356 21.6032 125.956 21.0497C125.338 20.1843 124.586 19.48 123.758 18.9366C122.635 18.2121 121.37 17.7894 120.076 17.7089C119.619 20.0334 120.085 22.5491 121.56 24.5818C122.178 25.4572 122.93 26.1616 123.758 26.6949Z" fill="#458766"/>
<path d="M181.373 52.4855C179.784 52.8176 178.404 53.6125 177.319 54.7194C176.853 55.2024 176.434 55.7458 176.092 56.3395C176.044 56.4301 175.997 56.5106 175.949 56.6011C175.997 56.6414 176.044 56.6816 176.092 56.7219C176.482 57.0238 176.891 57.2854 177.319 57.5168C178.851 58.3118 180.631 58.6137 182.439 58.2313C183.542 57.9999 184.551 57.547 185.426 56.9131C186.435 56.1886 187.263 55.2326 187.862 54.1358C187.139 53.5421 186.311 53.0691 185.426 52.7673C184.161 52.3044 182.772 52.1937 181.373 52.4855Z" fill="#458766"/>
<path d="M112.349 61.9248C110.912 60.516 108.99 59.6606 106.878 59.6606C105.86 59.6606 104.889 59.8619 103.985 60.2242C102.748 60.7273 101.654 61.5424 100.807 62.5788C101.664 63.6153 102.748 64.4304 103.985 64.9335C104.88 65.3058 105.86 65.5071 106.878 65.5071C108.99 65.5071 110.912 64.6417 112.349 63.243C112.559 63.0317 112.768 62.8103 112.958 62.5788C112.768 62.3575 112.568 62.1361 112.349 61.9248Z" fill="#458766"/>
<path d="M110.57 35.842C111.141 36.2546 111.74 36.5766 112.359 36.8181C113.187 37.1401 114.043 37.3111 114.899 37.3413C115.661 37.3615 116.412 37.2709 117.145 37.0797C116.945 35.2282 116.174 33.4571 114.899 32.0785C114.538 31.6962 114.148 31.344 113.71 31.022C113.282 30.71 112.825 30.4484 112.359 30.227C110.684 29.4522 108.838 29.3214 107.135 29.7842C107.382 32.149 108.572 34.393 110.57 35.842Z" fill="#458766"/>
<path d="M117.506 39.7665C117.449 39.7766 117.402 39.7967 117.345 39.8067C117.383 40.1388 117.43 40.4709 117.506 40.7929C117.944 42.7853 119.067 44.6167 120.78 45.8645C121.703 46.5387 122.721 46.9815 123.758 47.2028C124.814 47.4242 125.899 47.4242 126.936 47.2028C127.079 47.1727 127.222 47.1425 127.355 47.1022C127.279 46.4481 127.136 45.8142 126.936 45.2004C126.384 43.5702 125.366 42.101 123.92 41.0445C123.863 41.0042 123.815 40.964 123.758 40.9338C121.845 39.6055 119.59 39.2533 117.506 39.7665Z" fill="#458766"/>
<path d="M122.14 35.651C122.645 36.1139 123.187 36.4963 123.758 36.8082C124.757 37.3516 125.842 37.6535 126.936 37.7139C127.469 37.7441 128.011 37.7239 128.535 37.6434C128.525 35.8523 127.983 34.0611 126.936 32.5718C126.594 32.0888 126.203 31.636 125.756 31.2335C125.138 30.67 124.462 30.2171 123.758 29.8851C122.359 29.231 120.827 29.0096 119.343 29.231C119.362 31.5957 120.304 33.9605 122.14 35.651Z" fill="#458766"/>
<path d="M113.453 48.7325C113.082 48.642 112.72 48.5715 112.359 48.5313C110.38 48.3099 108.457 48.8835 106.906 50.0306C107.934 52.1438 109.78 53.7941 112.13 54.418C112.206 54.4381 112.283 54.4582 112.359 54.4784C113.215 54.6695 114.071 54.7199 114.899 54.6293C115.822 54.5287 116.707 54.267 117.516 53.8545C117.925 53.6431 118.315 53.4016 118.686 53.1299C118.372 52.4759 117.973 51.8721 117.516 51.3287C116.793 50.4835 115.908 49.7791 114.899 49.2759C114.433 49.0545 113.957 48.8734 113.453 48.7325Z" fill="#458766"/>
<path d="M105.974 44.2745C107.915 45.6833 110.227 46.0757 112.349 45.5625C112.416 45.5424 112.473 45.5323 112.54 45.5122C112.501 45.1399 112.435 44.7675 112.349 44.4053C111.892 42.4632 110.789 40.672 109.104 39.4544C107.544 38.3174 105.736 37.8444 103.985 37.9652C103.49 37.9953 103.005 38.0859 102.529 38.2067C102.682 39.6356 103.176 41.0142 103.985 42.2016C104.518 42.9965 105.184 43.6908 105.974 44.2745Z" fill="#458766"/>
<path d="M10.9535 80.0478L11.0778 82.3173C11.0778 82.4417 11.0675 82.6697 11.0467 83.0013C11.0467 83.3329 10.9224 83.6334 10.6737 83.9029C10.4457 84.1516 10.1555 84.2759 9.80317 84.2759C9.47155 84.2759 9.21247 84.2656 9.02594 84.2449C8.34198 84.2449 8 83.9443 8 83.3433C8 82.8458 8.22799 80.8458 8.68396 77.3431C9.13993 73.8196 9.4301 71.5501 9.55445 70.5346C9.67881 69.519 9.78244 68.6692 9.86534 67.9853C9.96897 67.2806 10.0415 66.7624 10.083 66.4308C10.1244 66.0992 10.1866 65.7676 10.2695 65.436C10.3524 65.1043 10.4768 64.8349 10.6426 64.6276C10.9535 64.2339 11.5545 64.037 12.4457 64.037C13.938 64.7831 15.4717 66.8971 17.0469 70.3791C18.1661 72.8663 18.9123 74.4414 19.2853 75.1047C19.6584 75.7679 20.0211 76.2239 20.3735 76.4726L26.5913 65.6536C27.0265 65.3427 27.3581 65.1873 27.5861 65.1873C28.2493 65.1873 28.7571 65.4878 29.1095 66.0888C29.4618 66.6899 29.752 67.4257 29.98 68.2962C30.2287 69.1459 30.4359 70.089 30.6018 71.1253C30.7883 72.1616 30.9437 73.2497 31.0681 74.3896C31.2132 75.5088 31.3479 76.6073 31.4722 77.6851C31.7624 80.2758 31.98 81.9028 32.1251 82.566C32.2909 83.2293 32.3738 83.706 32.3738 83.9961C32.3738 84.2656 32.2806 84.535 32.094 84.8045C31.9075 85.0532 31.6484 85.1775 31.3168 85.1775C30.9852 85.1775 30.6536 85.0532 30.322 84.8045C29.9903 84.535 29.7831 84.2138 29.7002 83.8407C29.638 83.4469 29.5655 82.9391 29.4825 82.3173C29.4204 81.6955 29.3375 81.0012 29.2338 80.2344C29.1302 79.4468 29.0266 78.6281 28.9229 77.7783C28.8193 76.9078 28.7157 76.0788 28.6121 75.2912C28.5084 74.5036 28.4152 73.8093 28.3323 73.2082C28.2493 72.5864 28.1872 72.1201 28.1457 71.8092C28.1457 71.3947 28.1354 71.0113 28.1146 70.6589C28.0939 70.3066 28.011 70.089 27.8659 70.0061C27.7208 69.9232 27.4928 70.0268 27.182 70.3169C26.8918 70.5864 26.4773 71.146 25.9384 71.9958C24.7777 73.7989 23.0989 76.8353 20.902 81.1049C20.6118 81.623 20.2284 81.737 19.7517 81.4468C19.1921 81.1359 18.7154 80.338 18.3216 79.053L12.6012 66.8971C12.1038 67.892 11.6478 71.1874 11.2333 76.7835C11.1711 77.4674 11.1296 78.0478 11.1089 78.5245C11.0053 79.0426 10.9535 79.5504 10.9535 80.0478Z" fill="black"/>
<path d="M49.7029 80.0789C48.1484 82.5246 46.0758 84.0376 43.4851 84.6179C42.884 84.7423 42.3348 84.8045 41.8373 84.8045C41.3606 84.8045 40.9565 84.8045 40.6249 84.8045C40.314 84.7837 39.9616 84.7319 39.5678 84.649C39.174 84.5661 38.8113 84.4314 38.4797 84.2449C37.7129 83.8096 37.3294 83.1982 37.3294 82.4106C37.2465 82.0375 37.2051 81.623 37.2051 81.167C37.2051 80.6903 37.3087 80.0686 37.516 79.3017C37.7232 78.5348 38.0963 77.7058 38.6352 76.8146C39.1948 75.9233 39.8684 75.1047 40.656 74.3585C42.2933 72.7833 44.0654 71.7678 45.9722 71.3118C46.5318 71.1874 47.0396 71.1253 47.4956 71.1253C47.9723 71.1253 48.3971 71.1564 48.7702 71.2185C49.9723 71.2185 50.7806 72.0372 51.1952 73.6746C51.4646 74.7109 51.62 76.1617 51.6615 78.027C51.7237 79.8717 51.7755 81.3018 51.8169 82.3173C51.8791 83.3122 52.0138 84.2241 52.2211 85.0532H50.3868C50.3039 84.4936 50.2418 83.9961 50.2003 83.5609C50.1589 83.1256 50.1174 82.7215 50.0759 82.3484C49.9723 81.4779 49.848 80.7214 49.7029 80.0789ZM49.5785 75.2601C49.5785 74.058 48.9878 73.4569 47.8064 73.4569C47.6614 73.4362 47.5163 73.4259 47.3712 73.4259C45.8582 73.4259 44.2623 74.1513 42.5835 75.6021C41.7959 76.2653 41.1223 77.0115 40.5627 77.8405C39.7337 79.0219 39.3191 80.0789 39.3191 81.0116C39.3191 82.2344 40.0238 82.9598 41.4332 83.1878C43.2985 83.1464 45.081 82.2966 46.7805 80.6385C47.5059 79.9131 48.107 79.1255 48.5837 78.2757C49.2469 77.1358 49.5785 76.1306 49.5785 75.2601Z" fill="black"/>
<path d="M72.1305 73.8922C71.26 73.2704 70.1408 72.9595 68.7729 72.9595C67.4879 72.9595 66.2962 73.1979 65.1977 73.6746C63.1251 74.5451 61.7053 75.6643 60.9385 77.0322C60.6069 77.654 60.441 78.3172 60.441 79.0219C60.441 79.1462 60.441 79.4986 60.441 80.0789C60.441 80.6385 60.5447 81.4054 60.7519 82.3795C60.9592 83.3329 61.0628 84.307 61.0628 85.3019C60.6276 85.3226 60.2752 85.3744 60.0058 85.4573C59.7364 85.5402 59.5084 85.5817 59.3218 85.5817C59.1353 85.5817 58.9695 85.4988 58.8244 85.333C58.7001 85.1672 58.555 84.8459 58.3892 84.3692C58.3684 84.2449 58.327 83.8925 58.2648 83.3122C58.2026 82.7318 58.1197 82.0272 58.0161 81.1981C57.9332 80.3691 57.8296 79.4675 57.7052 78.4934C57.6016 77.4985 57.4979 76.5244 57.3943 75.571C57.1663 73.4984 56.9902 71.975 56.8658 71.0009C56.8658 70.5035 57.2285 70.2548 57.9539 70.2548C58.3892 70.2548 58.7311 70.4413 58.9799 70.8144C59.2286 71.1667 59.4255 71.5812 59.5706 72.0579C59.7156 72.5139 59.8089 72.9699 59.8504 73.4259C59.9125 73.8818 59.9643 74.2031 60.0058 74.3896C62.7416 71.9439 66.1407 70.7211 70.203 70.7211C70.659 70.7211 71.1357 70.7315 71.6331 70.7522C71.7575 70.7315 71.9129 70.7211 72.0994 70.7211C72.286 70.7211 72.4725 70.8455 72.659 71.0942C72.887 71.3843 73.001 71.7367 73.001 72.1512C73.001 73.1875 72.7109 73.7678 72.1305 73.8922Z" fill="black"/>
<path d="M82.3091 82.2552L82.3713 77.2809C82.3713 76.4933 82.2987 75.8197 82.1537 75.2601H77.3349L77.2727 73.115H81.936V65.094C81.9982 64.9074 82.1226 64.7209 82.3091 64.5344C82.5993 64.2442 82.8376 64.0991 83.0242 64.0991C83.2314 64.0991 83.4076 64.1199 83.5527 64.1613C83.6977 64.2028 83.8532 64.3478 84.019 64.5966C84.3506 65.9645 84.5164 68.0267 84.5164 70.7833C84.5164 71.4672 84.5475 72.1408 84.6097 72.8041C85.2729 72.7212 85.9362 72.6797 86.5994 72.6797C86.5994 72.6797 87.1383 72.6797 88.216 72.6797C88.6098 72.6797 88.9725 72.659 89.3041 72.6175L89.2109 74.856L84.6719 74.7316L84.8273 85.4573C84.4542 85.6231 84.133 85.706 83.8636 85.706C82.8273 85.706 82.3091 84.5557 82.3091 82.2552Z" fill="black"/>
<path d="M96.4671 70.6278C96.7365 74.5036 96.9645 78.9908 97.151 84.0894C97.0267 84.7319 96.5292 85.0532 95.6587 85.0532C95.4308 85.0532 95.1924 85.0117 94.9437 84.9288C94.7157 84.8252 94.5706 84.6905 94.5085 84.5247V70.6278H96.4671ZM93.5758 66.3997C93.5758 65.6743 94.0007 65.3116 94.8504 65.3116C95.41 65.3116 95.866 65.436 96.2184 65.6847C96.2805 65.9127 96.3116 66.1406 96.3116 66.3686C96.3116 66.5759 96.2287 66.7832 96.0629 66.9904C95.8971 67.1977 95.6484 67.3013 95.3168 67.3013C94.9852 67.3013 94.6535 67.2288 94.3219 67.0837C93.9903 66.9179 93.7416 66.6899 93.5758 66.3997Z" fill="black"/>
<path d="M113.796 78.4312C113.796 75.9648 113.661 74.1513 113.392 72.9906C113.558 72.6797 113.309 72.5243 112.646 72.5243C111.941 72.5243 111.029 72.7004 109.91 73.0528C108.791 73.4051 107.879 73.7575 107.174 74.1098C105.495 74.9181 104.563 75.7057 104.376 76.4726V84.9288H102.293C102.024 84.2241 101.889 82.2448 101.889 78.9908C101.889 76.0892 101.941 73.9544 102.044 72.5864C102.169 71.2185 102.262 70.4413 102.324 70.2548C102.863 69.9024 103.298 69.7263 103.63 69.7263C104.148 69.7263 104.407 70.3377 104.407 71.5605C104.407 72.0372 104.376 72.5035 104.314 72.9595C104.272 73.3948 104.252 73.6953 104.252 73.8611C107.609 71.3947 110.211 70.1615 112.055 70.1615C114.148 70.1615 115.34 71.8507 115.63 75.229C115.755 76.4104 115.817 78.0478 115.817 80.1411L115.786 82.5971C115.786 83.5091 115.807 84.3899 115.848 85.2397C115.641 85.3641 115.475 85.4262 115.351 85.4262C115.288 85.4055 115.154 85.3744 114.946 85.333C114.739 85.2915 114.47 85.2604 114.138 85.2397C113.931 84.4107 113.817 83.5713 113.796 82.7215C113.775 81.851 113.765 81.053 113.765 80.3276L113.796 78.4312Z" fill="black"/>
<path d="M178.865 76.4726C178.803 77.1773 178.772 78.1825 178.772 79.4882C178.772 80.7732 178.969 82.3381 179.362 84.1827L176.906 85.4262L175.787 76.97C175.062 76.8664 174.699 76.6177 174.699 76.2239C174.699 75.9337 174.865 75.5917 175.196 75.1979C175.549 74.8041 175.808 74.4829 175.974 74.2342C176.139 73.9647 176.233 73.6746 176.253 73.3637C176.295 73.0321 176.347 72.4517 176.409 71.6227C176.471 70.7936 176.523 69.9128 176.564 68.9801C176.627 68.0474 176.678 67.1666 176.72 66.3375C176.782 65.5085 176.813 64.9282 176.813 64.5966C177.269 64.1406 177.601 63.8608 177.808 63.7572C178.326 63.4877 178.678 63.5913 178.865 64.068L178.678 73.8611C183.798 73.8611 186.876 73.5295 187.912 72.8663V63.0421C188.036 62.6898 188.617 62.5136 189.653 62.5136C189.881 62.5136 190.067 62.524 190.212 62.5447C190.212 62.9385 190.223 63.5395 190.244 64.3478C190.285 65.1354 190.316 66.037 190.337 67.0526C190.378 68.0682 190.42 69.1459 190.461 70.2859C190.503 71.4051 190.544 72.4725 190.585 73.488C190.648 75.6021 190.699 77.1565 190.741 78.1514C190.886 80.6385 191.394 82.6489 192.264 84.1827C191.332 84.5557 190.306 84.7423 189.186 84.7423C188.233 82.3795 187.725 79.281 187.663 75.4466C186.295 75.4052 185.363 75.3845 184.865 75.3845C184.368 75.3845 183.808 75.4156 183.186 75.4777C181.901 75.5606 180.461 75.8923 178.865 76.4726Z" fill="black"/>
<path d="M198.121 79.3328C198.121 76.8871 199.179 74.9181 201.293 73.4259C202.971 72.2445 204.992 71.5294 207.355 71.2807C207.479 71.2807 207.769 71.2807 208.225 71.2807C208.681 71.2807 209.293 71.4154 210.06 71.6849C211.759 72.2652 212.92 73.2911 213.542 74.7627C213.79 75.343 213.915 75.8404 213.915 76.255C213.915 76.6488 213.904 76.9286 213.884 77.0944C213.884 79.6851 212.899 81.7266 210.93 83.2189C209.106 84.5868 206.826 85.2708 204.091 85.2708C202.122 85.2708 200.629 84.8148 199.614 83.9029C198.619 82.9909 198.121 81.4676 198.121 79.3328ZM200.267 80.0789C200.267 81.3639 200.609 82.2344 201.293 82.6904C201.811 83.022 202.681 83.1878 203.904 83.1878C205.127 83.1878 206.205 83.0946 207.137 82.908C208.07 82.7215 208.899 82.4002 209.624 81.9443C211.179 80.9494 211.956 79.4053 211.956 77.312C211.956 76.0684 211.625 75.0528 210.961 74.2653C210.236 73.4155 209.282 72.9906 208.101 72.9906C207.293 73.1357 206.474 73.2911 205.645 73.4569C204.837 73.6228 204.07 73.944 203.344 74.4207C201.769 75.4363 200.743 77.3224 200.267 80.0789Z" fill="black"/>
<path d="M218.995 73.1771C218.953 72.0579 218.912 71.0631 218.87 70.1926C218.829 69.3014 218.798 68.6485 218.777 68.234C218.777 67.7987 218.611 66.7521 218.28 65.094C218.466 64.8453 218.642 64.6069 218.808 64.3789C218.995 64.1509 219.254 64.037 219.585 64.037C220.311 64.037 220.87 67.094 221.264 73.2082C221.471 76.7524 221.575 80.2965 221.575 83.8407C221.575 84.7941 220.912 85.2708 219.585 85.2708L219.337 85.2397C219.337 84.1619 219.306 82.7837 219.243 81.1049C219.181 79.426 219.129 77.9649 219.088 76.7213C219.067 75.4777 219.036 74.2963 218.995 73.1771Z" fill="black"/>
<path d="M227.184 73.1771C227.142 72.0579 227.101 71.0631 227.059 70.1926C227.018 69.3014 226.987 68.6485 226.966 68.234C226.966 67.7987 226.8 66.7521 226.469 65.094C226.655 64.8453 226.831 64.6069 226.997 64.3789C227.184 64.1509 227.443 64.037 227.774 64.037C228.5 64.037 229.059 67.094 229.453 73.2082C229.66 76.7524 229.764 80.2965 229.764 83.8407C229.764 84.7941 229.101 85.2708 227.774 85.2708L227.526 85.2397C227.526 84.1619 227.494 82.7837 227.432 81.1049C227.37 79.426 227.318 77.9649 227.277 76.7213C227.256 75.4777 227.225 74.2963 227.184 73.1771Z" fill="black"/>
<path d="M247.031 80.0789C245.476 82.5246 243.404 84.0376 240.813 84.6179C240.212 84.7423 239.663 84.8045 239.165 84.8045C238.689 84.8045 238.284 84.8045 237.953 84.8045C237.642 84.7837 237.29 84.7319 236.896 84.649C236.502 84.5661 236.139 84.4314 235.808 84.2449C235.041 83.8096 234.657 83.1982 234.657 82.4106C234.574 82.0375 234.533 81.623 234.533 81.167C234.533 80.6903 234.637 80.0686 234.844 79.3017C235.051 78.5348 235.424 77.7058 235.963 76.8146C236.523 75.9233 237.196 75.1047 237.984 74.3585C239.621 72.7833 241.393 71.7678 243.3 71.3118C243.86 71.1874 244.368 71.1253 244.823 71.1253C245.3 71.1253 245.725 71.1564 246.098 71.2185C247.3 71.2185 248.109 72.0372 248.523 73.6746C248.793 74.7109 248.948 76.1617 248.989 78.027C249.052 79.8717 249.103 81.3018 249.145 82.3173C249.207 83.3122 249.342 84.2241 249.549 85.0532H247.715C247.632 84.4936 247.57 83.9961 247.528 83.5609C247.487 83.1256 247.445 82.7215 247.404 82.3484C247.3 81.4779 247.176 80.7214 247.031 80.0789ZM246.906 75.2601C246.906 74.058 246.316 73.4569 245.134 73.4569C244.989 73.4362 244.844 73.4259 244.699 73.4259C243.186 73.4259 241.59 74.1513 239.911 75.6021C239.124 76.2653 238.45 77.0115 237.891 77.8405C237.062 79.0219 236.647 80.0789 236.647 81.0116C236.647 82.2344 237.352 82.9598 238.761 83.1878C240.626 83.1464 242.409 82.2966 244.108 80.6385C244.834 79.9131 245.435 79.1255 245.912 78.2757C246.575 77.1358 246.906 76.1306 246.906 75.2601Z" fill="black"/>
<path d="M266.318 78.4312C266.318 75.9648 266.184 74.1513 265.914 72.9906C266.08 72.6797 265.831 72.5243 265.168 72.5243C264.463 72.5243 263.552 72.7004 262.432 73.0528C261.313 73.4051 260.401 73.7575 259.697 74.1098C258.018 74.9181 257.085 75.7057 256.898 76.4726V84.9288H254.816C254.546 84.2241 254.411 82.2448 254.411 78.9908C254.411 76.0892 254.463 73.9544 254.567 72.5864C254.691 71.2185 254.784 70.4413 254.847 70.2548C255.385 69.9024 255.821 69.7263 256.152 69.7263C256.671 69.7263 256.93 70.3377 256.93 71.5605C256.93 72.0372 256.898 72.5035 256.836 72.9595C256.795 73.3948 256.774 73.6953 256.774 73.8611C260.132 71.3947 262.733 70.1615 264.577 70.1615C266.671 70.1615 267.863 71.8507 268.153 75.229C268.277 76.4104 268.339 78.0478 268.339 80.1411L268.308 82.5971C268.308 83.5091 268.329 84.3899 268.37 85.2397C268.163 85.3641 267.997 85.4262 267.873 85.4262C267.811 85.4055 267.676 85.3744 267.469 85.333C267.262 85.2915 266.992 85.2604 266.66 85.2397C266.453 84.4107 266.339 83.5713 266.318 82.7215C266.298 81.851 266.287 81.053 266.287 80.3276L266.318 78.4312Z" fill="black"/>
<path d="M288 60.2752C288 62.2649 287.938 64.2131 287.813 66.1199C287.71 68.006 287.606 69.861 287.503 71.6849C287.42 73.488 287.378 75.4156 287.378 77.4674C287.378 79.4986 287.523 81.6541 287.813 83.934C287.813 84.4107 287.72 84.7526 287.534 84.9599C287.368 85.1672 287.078 85.2708 286.663 85.2708C285.689 85.2708 285.202 84.4625 285.202 82.8458V81.8199C282.259 84.0169 279.772 85.1153 277.741 85.1153C276.932 85.1153 276.103 84.9184 275.253 84.5247C274.424 84.1309 273.637 83.3329 272.891 82.1308C272.787 81.6334 272.735 81.1256 272.735 80.6074C272.735 80.0893 272.829 79.4675 273.015 78.7421C273.222 77.9959 273.626 77.2291 274.228 76.4415C274.849 75.6539 275.595 74.9596 276.466 74.3585C278.373 73.0735 280.435 72.431 282.653 72.431C283.606 72.431 284.518 72.5761 285.389 72.8663C285.389 72.4932 285.409 71.8403 285.451 70.9076C285.513 69.975 285.575 68.9905 285.637 67.9542C285.762 65.2598 285.844 63.6742 285.886 63.1975C285.927 62.7001 285.979 62.2856 286.041 61.954C286.124 61.6016 286.238 61.3011 286.383 61.0524C286.694 60.5343 287.233 60.2752 288 60.2752ZM275.005 80.3587C275.005 81.9961 275.595 82.8148 276.777 82.8148C276.963 82.8148 277.171 82.794 277.399 82.7526C278.248 82.7526 279.295 82.5039 280.539 82.0064C282.901 81.0738 284.342 80.2655 284.86 79.5815V75.4466C284.86 74.7212 284.269 74.3585 283.088 74.3585C282.943 74.3378 282.746 74.3274 282.497 74.3274C282.269 74.3274 281.907 74.3793 281.409 74.4829C280.912 74.5865 280.352 74.773 279.73 75.0425C279.109 75.3119 278.497 75.6435 277.896 76.0373C276.632 76.8871 275.761 77.882 275.285 79.0219C275.098 79.4571 275.005 79.9027 275.005 80.3587Z" fill="black"/>
</svg>
