<svg width="64" height="64" viewBox="0 0 64 64" fill="none" xmlns="http://www.w3.org/2000/svg">
<path d="M8.90811 53.8638H4.32432C3.63619 53.8638 2.97625 53.5905 2.48967 53.1039C2.00309 52.6173 1.72973 51.9574 1.72973 51.2692V31.5079C1.72973 30.8198 2.00309 30.1599 2.48967 29.6733C2.97625 29.1867 3.63619 28.9133 4.32432 28.9133H8.90811C9.59624 28.9133 10.2562 29.1867 10.7428 29.6733C11.2293 30.1599 11.5027 30.8198 11.5027 31.5079V51.2692C11.5027 51.9574 11.2293 52.6173 10.7428 53.1039C10.2562 53.5905 9.59624 53.8638 8.90811 53.8638ZM4.32432 30.6431C4.09495 30.6431 3.87497 30.7342 3.71277 30.8964C3.55058 31.0586 3.45946 31.2785 3.45946 31.5079V51.2692C3.45946 51.4986 3.55058 51.7186 3.71277 51.8808C3.87497 52.043 4.09495 52.1341 4.32432 52.1341H8.90811C9.13748 52.1341 9.35747 52.043 9.51966 51.8808C9.68185 51.7186 9.77297 51.4986 9.77297 51.2692V31.5079C9.77297 31.2785 9.68185 31.0586 9.51966 30.8964C9.35747 30.7342 9.13748 30.6431 8.90811 30.6431H4.32432Z" fill="black"/>
<path d="M38.9717 45.1954H23.9775C23.7481 45.1954 23.5282 45.1043 23.366 44.9421C23.2038 44.7799 23.1127 44.5599 23.1127 44.3305C23.1127 44.1011 23.2038 43.8812 23.366 43.719C23.5282 43.5568 23.7481 43.4657 23.9775 43.4657H38.9717C39.5983 43.4657 40.1993 43.2167 40.6424 42.7736C41.0856 42.3305 41.3345 41.7295 41.3345 41.1028C41.3345 40.4762 41.0856 39.8752 40.6424 39.4321C40.1993 38.989 39.5983 38.74 38.9717 38.74H33.6225C32.694 38.74 31.7763 38.5415 30.9308 38.1581C30.0852 37.7746 29.3313 37.2149 28.7196 36.5165C28.1315 35.8453 27.4068 35.3074 26.5941 34.9389C25.7814 34.5703 24.8993 34.3796 24.0069 34.3794H10.6378C10.4085 34.3794 10.1885 34.2883 10.0263 34.1261C9.8641 33.9639 9.77298 33.7439 9.77298 33.5145C9.77298 33.2851 9.8641 33.0652 10.0263 32.903C10.1885 32.7408 10.4085 32.6497 10.6378 32.6497H24.0069C25.1454 32.6492 26.2708 32.892 27.3079 33.3617C28.345 33.8314 29.2697 34.5171 30.0203 35.3731C30.4699 35.8862 31.0238 36.2973 31.645 36.579C32.2662 36.8608 32.9404 37.0066 33.6225 37.0068H38.9717C40.0571 37.0068 41.098 37.438 41.8655 38.2055C42.633 38.973 43.0642 40.014 43.0642 41.0994C43.0642 42.1848 42.633 43.2258 41.8655 43.9933C41.098 44.7608 40.0571 45.1919 38.9717 45.1919V45.1954Z" fill="black"/>
<path d="M31.8435 56.3648C29.6949 56.365 27.565 55.9664 25.5619 55.1894L10.3403 49.6249C10.1304 49.5422 9.96113 49.3807 9.86859 49.175C9.77605 48.9692 9.76759 48.7354 9.845 48.5235C9.92241 48.3116 10.0796 48.1383 10.2829 48.0406C10.4863 47.943 10.7198 47.9286 10.9336 48.0007L26.1673 53.5704C28.2608 54.3848 30.505 54.7387 32.7474 54.6083C34.9899 54.4779 37.1779 53.8661 39.1628 52.8145L60.3139 41.6154C59.338 40.6878 58.1228 40.0507 56.8048 39.7757C55.4868 39.5007 54.1182 39.5987 52.8527 40.0586L41.5663 44.1832C41.4589 44.2255 41.3441 44.2459 41.2288 44.2431C41.1134 44.2404 40.9997 44.2146 40.8945 44.1673C40.7892 44.12 40.6945 44.052 40.6159 43.9675C40.5373 43.883 40.4765 43.7837 40.4369 43.6753C40.3973 43.5669 40.3798 43.4516 40.3854 43.3364C40.391 43.2211 40.4196 43.1081 40.4696 43.0041C40.5196 42.9001 40.5898 42.8071 40.6763 42.7306C40.7627 42.6542 40.8636 42.5958 40.973 42.559L52.2594 38.4336C53.8613 37.8523 55.5954 37.7389 57.2593 38.1064C58.9233 38.4739 60.4483 39.3073 61.6562 40.5092L61.862 40.7159C62.0161 40.8699 62.1319 41.058 62.2001 41.2648C62.2682 41.4717 62.2869 41.6917 62.2546 41.9072C62.2223 42.1226 62.1399 42.3274 62.0141 42.5052C61.8882 42.683 61.7224 42.8288 61.5299 42.9309L39.9758 54.3471C37.4704 55.6735 34.6783 56.3663 31.8435 56.3648Z" fill="black"/>
<path d="M49.1425 41.0975C49.1183 41.0988 49.094 41.0988 49.0698 41.0975C48.8413 41.0785 48.6296 40.9696 48.4814 40.7946C48.3331 40.6196 48.2605 40.3928 48.2794 40.1643C48.3122 39.7725 48.3373 39.3729 48.3373 38.9734C48.3368 36.5383 47.5008 34.1771 45.9691 32.2841C44.4373 30.3911 42.3025 29.0809 39.9211 28.5724C37.5397 28.0638 35.0559 28.3877 32.8845 29.4899C30.7131 30.592 28.9856 32.4058 27.9905 34.6283C27.9456 34.7339 27.8801 34.8295 27.7978 34.9096C27.7156 34.9897 27.6182 35.0525 27.5114 35.0946C27.4046 35.1366 27.2905 35.157 27.1757 35.1545C27.061 35.152 26.9478 35.1267 26.843 35.08C26.7381 35.0333 26.6436 34.9663 26.5649 34.8827C26.4862 34.7991 26.425 34.7007 26.3847 34.5932C26.3444 34.4857 26.326 34.3713 26.3304 34.2566C26.3348 34.1419 26.362 34.0292 26.4104 33.9251C27.5666 31.341 29.5744 29.2317 32.0985 27.9496C34.6225 26.6675 37.5101 26.2902 40.2788 26.8806C43.0476 27.4711 45.53 28.9935 47.3115 31.1938C49.0929 33.394 50.0656 36.1389 50.067 38.9699C50.067 39.4179 50.0402 39.865 50.003 40.3044C49.9851 40.5204 49.8866 40.7217 49.7273 40.8686C49.5679 41.0154 49.3592 41.0971 49.1425 41.0975Z" fill="black"/>
<path d="M38.1587 28.3408C38.1385 28.3408 38.1186 28.3408 38.099 28.3408C37.8704 28.325 37.6574 28.2192 37.5067 28.0465C37.3561 27.8738 37.2801 27.6483 37.2956 27.4197C37.7531 20.7066 39.4863 15.5338 42.445 12.0433C44.1424 10.0036 46.3858 8.48985 48.9124 7.67914C49.0206 7.6445 49.1346 7.63151 49.2478 7.6409C49.361 7.6503 49.4712 7.6819 49.5722 7.7339C49.6732 7.7859 49.7629 7.85728 49.8363 7.94397C49.9097 8.03066 49.9654 8.13096 50 8.23914C50.0346 8.34732 50.0476 8.46127 50.0382 8.57447C50.0288 8.68767 49.9972 8.79792 49.9452 8.89891C49.8932 8.9999 49.8219 9.08965 49.7352 9.16306C49.6485 9.23646 49.5482 9.29207 49.44 9.32671C47.2215 10.0383 45.2519 11.3676 43.7622 13.1589C41.0465 16.3589 39.4508 21.2022 39.0184 27.5338C39.0037 27.7521 38.9069 27.9568 38.7474 28.1065C38.5878 28.2562 38.3775 28.3399 38.1587 28.3408Z" fill="black"/>
<path d="M33.8958 22.9007C32.6306 22.9021 31.3761 22.6702 30.195 22.2166C28.6841 21.613 27.3262 20.6812 26.2194 19.4887C25.1126 18.2962 24.2845 16.8727 23.795 15.321C23.7289 15.1288 23.7326 14.9194 23.8055 14.7296C23.8784 14.5398 24.0159 14.3817 24.1937 14.2832C25.5871 13.4353 27.1562 12.9181 28.7806 12.7711C30.405 12.6241 32.0414 12.8513 33.5643 13.4353C35.0872 14.0193 36.456 14.9445 37.5656 16.1399C38.6753 17.3353 39.4962 18.7691 39.9654 20.3312C40.0316 20.5234 40.028 20.7327 39.9553 20.9225C39.8825 21.1123 39.7453 21.2704 39.5676 21.369C37.8381 22.3538 35.8859 22.881 33.8958 22.9007ZM25.6951 15.4542C26.1368 16.6249 26.8214 17.6887 27.7037 18.5759C28.5861 19.463 29.6462 20.1532 30.8145 20.6013C31.9827 21.0493 33.2326 21.2449 34.4819 21.1752C35.7311 21.1056 36.9515 20.7722 38.0627 20.1971C37.6212 19.0263 36.9368 17.9623 36.0545 17.075C35.1722 16.1877 34.112 15.4973 32.9437 15.0493C31.7753 14.6012 30.5254 14.4057 29.276 14.4755C28.0267 14.5453 26.8063 14.8788 25.6951 15.4542Z" fill="black"/>
<path d="M47.4923 19.0901C46.1914 19.0727 44.9105 18.7674 43.7416 18.1961C42.5727 17.6249 41.5448 16.802 40.7317 15.7864C40.6009 15.6306 40.5292 15.4337 40.5292 15.2302C40.5292 15.0268 40.6009 14.8299 40.7317 14.6741C41.5409 13.6507 42.5673 12.8198 43.7367 12.2414C44.9062 11.663 46.1896 11.3516 47.4941 11.3297H47.5174C48.8183 11.3468 50.0992 11.6519 51.2681 12.223C52.4371 12.7941 53.465 13.617 54.2781 14.6326C54.4088 14.7884 54.4805 14.9853 54.4805 15.1887C54.4805 15.3921 54.4088 15.5891 54.2781 15.7448C53.4683 16.7683 52.4413 17.5991 51.2712 18.177C50.101 18.755 48.8171 19.0657 47.5122 19.0867L47.4923 19.0901ZM42.5626 15.2251C43.2017 15.89 43.9667 16.4212 44.813 16.7878C45.6593 17.1544 46.5701 17.349 47.4923 17.3604H47.5105C48.4357 17.3464 49.3487 17.148 50.1963 16.7767C51.0438 16.4055 51.8087 15.8688 52.4463 15.1982C51.8069 14.5337 51.0418 14.0029 50.1955 13.6365C49.3493 13.27 48.4387 13.0754 47.5165 13.0638H47.4984C46.5738 13.0772 45.6611 13.275 44.8139 13.6455C43.9667 14.016 43.2019 14.5518 42.5643 15.2216L42.5626 15.2251Z" fill="black"/>
</svg>
