<svg width="91" height="90" viewBox="0 0 91 90" fill="none" xmlns="http://www.w3.org/2000/svg">
<path d="M28.3982 80.024C28.3982 80.744 28.1622 81.324 27.6902 81.764C27.2182 82.204 26.5102 82.424 25.5662 82.424H23.8742V86H23.0342V77.612H25.5662C26.5022 77.612 27.2062 77.832 27.6782 78.272C28.1582 78.712 28.3982 79.296 28.3982 80.024ZM25.5662 81.704C26.8782 81.704 27.5342 81.144 27.5342 80.024C27.5342 79.464 27.3782 79.04 27.0662 78.752C26.7542 78.464 26.2542 78.32 25.5662 78.32H23.8742V81.704H25.5662ZM30.6477 80.612C30.8317 80.204 31.1117 79.888 31.4877 79.664C31.8717 79.44 32.3397 79.328 32.8917 79.328V80.204H32.6637C32.0557 80.204 31.5677 80.368 31.1997 80.696C30.8317 81.024 30.6477 81.572 30.6477 82.34V86H29.8077V79.448H30.6477V80.612ZM37.0233 86.096C36.4073 86.096 35.8513 85.96 35.3553 85.688C34.8673 85.408 34.4793 85.016 34.1913 84.512C33.9113 84 33.7713 83.404 33.7713 82.724C33.7713 82.044 33.9153 81.452 34.2033 80.948C34.4913 80.436 34.8833 80.044 35.3793 79.772C35.8753 79.492 36.4313 79.352 37.0473 79.352C37.6633 79.352 38.2193 79.492 38.7153 79.772C39.2193 80.044 39.6113 80.436 39.8913 80.948C40.1793 81.452 40.3233 82.044 40.3233 82.724C40.3233 83.396 40.1793 83.988 39.8913 84.5C39.6033 85.012 39.2073 85.408 38.7033 85.688C38.1993 85.96 37.6393 86.096 37.0233 86.096ZM37.0233 85.364C37.4553 85.364 37.8553 85.268 38.2233 85.076C38.5913 84.876 38.8873 84.58 39.1113 84.188C39.3433 83.788 39.4593 83.3 39.4593 82.724C39.4593 82.148 39.3473 81.664 39.1233 81.272C38.8993 80.872 38.6033 80.576 38.2353 80.384C37.8673 80.184 37.4673 80.084 37.0353 80.084C36.6033 80.084 36.2033 80.184 35.8353 80.384C35.4673 80.576 35.1713 80.872 34.9473 81.272C34.7313 81.664 34.6233 82.148 34.6233 82.724C34.6233 83.3 34.7313 83.788 34.9473 84.188C35.1713 84.58 35.4633 84.876 35.8233 85.076C36.1913 85.268 36.5913 85.364 37.0233 85.364ZM42.3345 78.212C42.1665 78.212 42.0225 78.152 41.9025 78.032C41.7825 77.912 41.7225 77.764 41.7225 77.588C41.7225 77.412 41.7825 77.268 41.9025 77.156C42.0225 77.036 42.1665 76.976 42.3345 76.976C42.5025 76.976 42.6425 77.036 42.7545 77.156C42.8745 77.268 42.9345 77.412 42.9345 77.588C42.9345 77.764 42.8745 77.912 42.7545 78.032C42.6425 78.152 42.5025 78.212 42.3345 78.212ZM42.7425 87.548C42.7425 88.076 42.6105 88.464 42.3465 88.712C42.0825 88.968 41.6865 89.096 41.1585 89.096H40.5705V88.376H41.0265C41.3385 88.376 41.5625 88.308 41.6985 88.172C41.8345 88.044 41.9025 87.824 41.9025 87.512V79.448H42.7425V87.548ZM50.595 82.388C50.595 82.676 50.587 82.896 50.571 83.048H45.135C45.159 83.544 45.279 83.968 45.495 84.32C45.711 84.672 45.995 84.94 46.347 85.124C46.699 85.3 47.083 85.388 47.499 85.388C48.043 85.388 48.499 85.256 48.867 84.992C49.243 84.728 49.491 84.372 49.611 83.924H50.499C50.339 84.564 49.995 85.088 49.467 85.496C48.947 85.896 48.291 86.096 47.499 86.096C46.883 86.096 46.331 85.96 45.843 85.688C45.355 85.408 44.971 85.016 44.691 84.512C44.419 84 44.283 83.404 44.283 82.724C44.283 82.044 44.419 81.448 44.691 80.936C44.963 80.424 45.343 80.032 45.831 79.76C46.319 79.488 46.875 79.352 47.499 79.352C48.123 79.352 48.667 79.488 49.131 79.76C49.603 80.032 49.963 80.4 50.211 80.864C50.467 81.32 50.595 81.828 50.595 82.388ZM49.743 82.364C49.751 81.876 49.651 81.46 49.443 81.116C49.243 80.772 48.967 80.512 48.615 80.336C48.263 80.16 47.879 80.072 47.463 80.072C46.839 80.072 46.307 80.272 45.867 80.672C45.427 81.072 45.183 81.636 45.135 82.364H49.743ZM51.7479 82.724C51.7479 82.044 51.8839 81.452 52.1559 80.948C52.4279 80.436 52.8039 80.044 53.2839 79.772C53.7639 79.492 54.3119 79.352 54.9279 79.352C55.7359 79.352 56.3999 79.552 56.9199 79.952C57.4479 80.352 57.7879 80.896 57.9399 81.584H57.0399C56.9279 81.112 56.6839 80.744 56.3079 80.48C55.9399 80.208 55.4799 80.072 54.9279 80.072C54.4879 80.072 54.0919 80.172 53.7399 80.372C53.3879 80.572 53.1079 80.872 52.8999 81.272C52.6999 81.664 52.5999 82.148 52.5999 82.724C52.5999 83.3 52.6999 83.788 52.8999 84.188C53.1079 84.588 53.3879 84.888 53.7399 85.088C54.0919 85.288 54.4879 85.388 54.9279 85.388C55.4799 85.388 55.9399 85.256 56.3079 84.992C56.6839 84.72 56.9279 84.344 57.0399 83.864H57.9399C57.7879 84.536 57.4479 85.076 56.9199 85.484C56.3919 85.892 55.7279 86.096 54.9279 86.096C54.3119 86.096 53.7639 85.96 53.2839 85.688C52.8039 85.408 52.4279 85.016 52.1559 84.512C51.8839 84 51.7479 83.404 51.7479 82.724ZM60.5833 80.156V84.224C60.5833 84.624 60.6593 84.9 60.8113 85.052C60.9633 85.204 61.2313 85.28 61.6152 85.28H62.3833V86H61.4833C60.8913 86 60.4513 85.864 60.1633 85.592C59.8753 85.312 59.7313 84.856 59.7313 84.224V80.156H58.8193V79.448H59.7313V77.804H60.5833V79.448H62.3833V80.156H60.5833ZM66.0246 86.096C65.2726 86.096 64.6566 85.924 64.1766 85.58C63.7046 85.228 63.4406 84.752 63.3846 84.152H64.2486C64.2886 84.52 64.4606 84.82 64.7646 85.052C65.0766 85.276 65.4926 85.388 66.0126 85.388C66.4686 85.388 66.8246 85.28 67.0806 85.064C67.3446 84.848 67.4766 84.58 67.4766 84.26C67.4766 84.036 67.4046 83.852 67.2606 83.708C67.1166 83.564 66.9326 83.452 66.7086 83.372C66.4926 83.284 66.1966 83.192 65.8206 83.096C65.3326 82.968 64.9366 82.84 64.6326 82.712C64.3286 82.584 64.0686 82.396 63.8526 82.148C63.6446 81.892 63.5406 81.552 63.5406 81.128C63.5406 80.808 63.6366 80.512 63.8286 80.24C64.0206 79.968 64.2926 79.752 64.6446 79.592C64.9966 79.432 65.3966 79.352 65.8446 79.352C66.5486 79.352 67.1166 79.532 67.5486 79.892C67.9806 80.244 68.2126 80.732 68.2446 81.356H67.4046C67.3806 80.972 67.2286 80.664 66.9486 80.432C66.6766 80.192 66.3006 80.072 65.8206 80.072C65.3966 80.072 65.0526 80.172 64.7886 80.372C64.5246 80.572 64.3926 80.82 64.3926 81.116C64.3926 81.372 64.4686 81.584 64.6206 81.752C64.7806 81.912 64.9766 82.04 65.2086 82.136C65.4406 82.224 65.7526 82.324 66.1446 82.436C66.6166 82.564 66.9926 82.688 67.2726 82.808C67.5526 82.928 67.7926 83.104 67.9926 83.336C68.1926 83.568 68.2966 83.876 68.3046 84.26C68.3046 84.612 68.2086 84.928 68.0166 85.208C67.8246 85.48 67.5566 85.696 67.2126 85.856C66.8686 86.016 66.4726 86.096 66.0246 86.096Z" fill="black"/>
<path d="M65.027 62.2703H26.973C26.7436 62.2703 26.5236 62.1792 26.3614 62.017C26.1992 61.8548 26.1081 61.6348 26.1081 61.4055V12.973C26.1081 12.7436 26.1992 12.5237 26.3614 12.3615C26.5236 12.1993 26.7436 12.1082 26.973 12.1082H33.8919C34.1213 12.1082 34.3412 12.1993 34.5034 12.3615C34.6656 12.5237 34.7568 12.7436 34.7568 12.973C34.7568 13.2024 34.6656 13.4224 34.5034 13.5846C34.3412 13.7468 34.1213 13.8379 33.8919 13.8379H27.8378V60.5406H64.1622V13.8379H58.1081C57.8787 13.8379 57.6587 13.7468 57.4965 13.5846C57.3344 13.4224 57.2432 13.2024 57.2432 12.973C57.2432 12.7436 57.3344 12.5237 57.4965 12.3615C57.6587 12.1993 57.8787 12.1082 58.1081 12.1082H65.027C65.2564 12.1082 65.4764 12.1993 65.6386 12.3615C65.8008 12.5237 65.8919 12.7436 65.8919 12.973V61.4055C65.8919 61.6348 65.8008 61.8548 65.6386 62.017C65.4764 62.1792 65.2564 62.2703 65.027 62.2703Z" fill="black"/>
<path d="M58.1081 17.2973H33.8919C33.6625 17.2973 33.4425 17.2062 33.2803 17.044C33.1181 16.8818 33.027 16.6618 33.027 16.4324V9.51352C33.027 9.28414 33.1181 9.06416 33.2803 8.90197C33.4425 8.73978 33.6625 8.64866 33.8919 8.64866H39.0811C39.0811 6.81364 39.81 5.05379 41.1076 3.75624C42.4051 2.45869 44.165 1.72974 46 1.72974C47.835 1.72974 49.5949 2.45869 50.8924 3.75624C52.19 5.05379 52.9189 6.81364 52.9189 8.64866H58.1081C58.3375 8.64866 58.5575 8.73978 58.7197 8.90197C58.8819 9.06416 58.973 9.28414 58.973 9.51352V16.4324C58.973 16.6618 58.8819 16.8818 58.7197 17.044C58.5575 17.2062 58.3375 17.2973 58.1081 17.2973ZM34.7568 15.5676H57.2432V10.3784H52.0541C51.8247 10.3784 51.6047 10.2873 51.4425 10.1251C51.2803 9.96288 51.1892 9.7429 51.1892 9.51352V8.64866C51.1892 7.2724 50.6425 5.95251 49.6693 4.97934C48.6961 4.00618 47.3763 3.45947 46 3.45947C44.6237 3.45947 43.3039 4.00618 42.3307 4.97934C41.3575 5.95251 40.8108 7.2724 40.8108 8.64866V9.51352C40.8108 9.7429 40.7197 9.96288 40.5575 10.1251C40.3953 10.2873 40.1753 10.3784 39.9459 10.3784H34.7568V15.5676Z" fill="black"/>
<path d="M46 11.3884C45.3717 11.3884 44.7576 11.2021 44.2353 10.853C43.7129 10.5039 43.3059 10.0077 43.0656 9.42717C42.8254 8.84667 42.7627 8.20795 42.8855 7.59181C43.0083 6.97568 43.3111 6.40981 43.7556 5.96581C44.2001 5.52181 44.7663 5.21961 45.3826 5.09747C45.9988 4.97532 46.6375 5.0387 47.2177 5.2796C47.798 5.5205 48.2937 5.92809 48.6422 6.4508C48.9908 6.97351 49.1765 7.58785 49.1758 8.21611C49.1739 9.0575 48.8387 9.86385 48.2434 10.4585C47.6481 11.0531 46.8414 11.3875 46 11.3884ZM46 6.76746C45.7141 6.76746 45.4346 6.85221 45.1969 7.01099C44.9591 7.16977 44.7738 7.39546 44.6643 7.65954C44.5547 7.92362 44.526 8.21424 44.5815 8.49467C44.6371 8.77511 44.7746 9.03277 44.9766 9.23511C45.1785 9.43745 45.436 9.57538 45.7163 9.63146C45.9966 9.68755 46.2873 9.65929 46.5516 9.55024C46.8159 9.44119 47.0419 9.25625 47.2011 9.01878C47.3603 8.78132 47.4455 8.502 47.4461 8.21611C47.4463 7.83228 47.2941 7.46407 47.0229 7.19242C46.7518 6.92077 46.3838 6.76792 46 6.76746Z" fill="black"/>
<path d="M46 34.6196C44.8814 34.618 43.8092 34.1729 43.0183 33.3819C42.2275 32.5909 41.7826 31.5185 41.7812 30.3999C41.7812 28.4246 44.6655 23.1126 45.2407 22.0678C45.3222 21.9413 45.4342 21.8372 45.5664 21.7651C45.6987 21.693 45.8468 21.6553 45.9974 21.6553C46.148 21.6553 46.2962 21.693 46.4284 21.7651C46.5606 21.8372 46.6726 21.9413 46.7542 22.0678C47.3319 23.1126 50.2136 28.4246 50.2136 30.3999C50.2123 31.5176 49.7681 32.5892 48.9783 33.38C48.1886 34.1709 47.1177 34.6166 46 34.6196ZM46 24.3217C44.7944 26.6508 43.5109 29.4771 43.5109 30.3999C43.5109 31.0601 43.7732 31.6932 44.24 32.16C44.7067 32.6268 45.3399 32.889 46 32.889C46.6601 32.889 47.2933 32.6268 47.76 32.16C48.2268 31.6932 48.4891 31.0601 48.4891 30.3999C48.4891 29.4763 47.2056 26.6508 46 24.3217Z" fill="black"/>
<path d="M43.3189 39.487C42.8529 39.4889 42.3913 39.398 41.9607 39.2199C41.5301 39.0417 41.1393 38.7797 40.8108 38.4492C39.6657 37.3041 38.2819 32.6382 38.0164 31.7145C37.9738 31.566 37.9717 31.4088 38.0104 31.2592C38.049 31.1096 38.1271 30.9731 38.2364 30.8639C38.3457 30.7547 38.4822 30.6768 38.6318 30.6382C38.7815 30.5996 38.9387 30.6019 39.0871 30.6446C40.0099 30.9102 44.6759 32.2931 45.821 33.439C46.3151 33.9353 46.6512 34.5667 46.787 35.2537C46.9227 35.9407 46.852 36.6526 46.5838 37.2994C46.3155 37.9463 45.8617 38.4993 45.2796 38.8886C44.6975 39.2779 44.0132 39.4861 43.3129 39.487H43.3189ZM40.1587 32.7783C40.7736 34.6741 41.5641 36.748 42.0398 37.2237C42.3852 37.5534 42.8444 37.7374 43.3219 37.7374C43.7995 37.7374 44.2587 37.5534 44.6041 37.2237C44.9434 36.8833 45.134 36.4222 45.134 35.9415C45.134 35.4609 44.9434 34.9998 44.6041 34.6594C44.1284 34.1863 42.0545 33.3958 40.1587 32.7783Z" fill="black"/>
<path d="M48.6811 39.487C47.9808 39.4861 47.2964 39.2779 46.7143 38.8886C46.1322 38.4993 45.6784 37.9463 45.4102 37.2994C45.1419 36.6526 45.0712 35.9407 45.2069 35.2537C45.3427 34.5667 45.6788 33.9353 46.173 33.439C47.3181 32.2931 51.984 30.9102 52.9068 30.6446C53.0553 30.6019 53.2125 30.5996 53.3621 30.6382C53.5117 30.6768 53.6483 30.7547 53.7576 30.8639C53.8668 30.9731 53.9449 31.1096 53.9836 31.2592C54.0223 31.4088 54.0202 31.566 53.9775 31.7145C53.712 32.6382 52.3282 37.3041 51.1831 38.4492C50.8554 38.779 50.4655 39.0406 50.036 39.2187C49.6066 39.3968 49.146 39.4881 48.6811 39.487ZM51.8413 32.7783C49.9455 33.3932 47.8716 34.1837 47.3959 34.6594C47.0568 34.9998 46.8665 35.4606 46.8665 35.9411C46.8665 36.4215 47.0568 36.8824 47.3959 37.2228C47.7412 37.5528 48.2004 37.7369 48.678 37.7369C49.1557 37.7369 49.6149 37.5528 49.9602 37.2228C50.4359 36.7506 51.2264 34.6758 51.8413 32.7783Z" fill="black"/>
<path d="M45.9135 42.3783C45.6841 42.3783 45.4642 42.2872 45.302 42.125C45.1398 41.9628 45.0487 41.7428 45.0487 41.5134V35.9471C45.0487 35.7178 45.1398 35.4978 45.302 35.3356C45.4642 35.1734 45.6841 35.0823 45.9135 35.0823C46.1429 35.0823 46.3629 35.1734 46.5251 35.3356C46.6873 35.4978 46.7784 35.7178 46.7784 35.9471V41.5134C46.7784 41.7428 46.6873 41.9628 46.5251 42.125C46.3629 42.2872 46.1429 42.3783 45.9135 42.3783Z" fill="black"/>
<path d="M59.8378 48.4324H32.1622C31.9328 48.4324 31.7128 48.3412 31.5506 48.1791C31.3884 48.0169 31.2973 47.7969 31.2973 47.5675C31.2973 47.3381 31.3884 47.1181 31.5506 46.9559C31.7128 46.7938 31.9328 46.7026 32.1622 46.7026H59.8378C60.0672 46.7026 60.2872 46.7938 60.4494 46.9559C60.6116 47.1181 60.7027 47.3381 60.7027 47.5675C60.7027 47.7969 60.6116 48.0169 60.4494 48.1791C60.2872 48.3412 60.0672 48.4324 59.8378 48.4324Z" fill="black"/>
<path d="M59.8378 54.4866H32.1622C31.9328 54.4866 31.7128 54.3954 31.5506 54.2333C31.3884 54.0711 31.2973 53.8511 31.2973 53.6217C31.2973 53.3923 31.3884 53.1723 31.5506 53.0101C31.7128 52.848 31.9328 52.7568 32.1622 52.7568H59.8378C60.0672 52.7568 60.2872 52.848 60.4494 53.0101C60.6116 53.1723 60.7027 53.3923 60.7027 53.6217C60.7027 53.8511 60.6116 54.0711 60.4494 54.2333C60.2872 54.3954 60.0672 54.4866 59.8378 54.4866Z" fill="black"/>
</svg>
