<svg width="64" height="86" viewBox="0 0 64 86" fill="none" xmlns="http://www.w3.org/2000/svg">
<path d="M10.576 76.8C10.576 75.976 10.756 75.24 11.116 74.592C11.476 73.936 11.968 73.428 12.592 73.068C13.216 72.7 13.912 72.516 14.68 72.516C15.616 72.516 16.416 72.74 17.08 73.188C17.752 73.628 18.24 74.252 18.544 75.06H17.56C17.32 74.492 16.952 74.048 16.456 73.728C15.968 73.408 15.376 73.248 14.68 73.248C14.064 73.248 13.508 73.392 13.012 73.68C12.524 73.968 12.14 74.384 11.86 74.928C11.58 75.464 11.44 76.088 11.44 76.8C11.44 77.512 11.58 78.136 11.86 78.672C12.14 79.208 12.524 79.62 13.012 79.908C13.508 80.196 14.064 80.34 14.68 80.34C15.376 80.34 15.968 80.184 16.456 79.872C16.952 79.552 17.32 79.112 17.56 78.552H18.544C18.24 79.352 17.752 79.972 17.08 80.412C16.408 80.852 15.608 81.072 14.68 81.072C13.912 81.072 13.216 80.892 12.592 80.532C11.968 80.164 11.476 79.656 11.116 79.008C10.756 78.36 10.576 77.624 10.576 76.8ZM23.0858 81.096C22.4698 81.096 21.9138 80.96 21.4178 80.688C20.9298 80.408 20.5418 80.016 20.2538 79.512C19.9738 79 19.8338 78.404 19.8338 77.724C19.8338 77.044 19.9778 76.452 20.2658 75.948C20.5538 75.436 20.9458 75.044 21.4418 74.772C21.9378 74.492 22.4938 74.352 23.1098 74.352C23.7258 74.352 24.2818 74.492 24.7778 74.772C25.2818 75.044 25.6738 75.436 25.9538 75.948C26.2418 76.452 26.3858 77.044 26.3858 77.724C26.3858 78.396 26.2418 78.988 25.9538 79.5C25.6658 80.012 25.2698 80.408 24.7658 80.688C24.2618 80.96 23.7018 81.096 23.0858 81.096ZM23.0858 80.364C23.5178 80.364 23.9178 80.268 24.2858 80.076C24.6538 79.876 24.9498 79.58 25.1738 79.188C25.4058 78.788 25.5218 78.3 25.5218 77.724C25.5218 77.148 25.4098 76.664 25.1858 76.272C24.9618 75.872 24.6658 75.576 24.2978 75.384C23.9298 75.184 23.5298 75.084 23.0978 75.084C22.6658 75.084 22.2658 75.184 21.8978 75.384C21.5298 75.576 21.2338 75.872 21.0098 76.272C20.7938 76.664 20.6858 77.148 20.6858 77.724C20.6858 78.3 20.7938 78.788 21.0098 79.188C21.2338 79.58 21.5258 79.876 21.8858 80.076C22.2538 80.268 22.6538 80.364 23.0858 80.364ZM27.533 77.712C27.533 77.04 27.669 76.452 27.941 75.948C28.213 75.436 28.585 75.044 29.057 74.772C29.537 74.492 30.077 74.352 30.677 74.352C31.253 74.352 31.773 74.492 32.237 74.772C32.701 75.052 33.041 75.416 33.257 75.864V72.12H34.097V81H33.257V79.536C33.057 79.992 32.729 80.368 32.273 80.664C31.817 80.952 31.281 81.096 30.665 81.096C30.065 81.096 29.525 80.956 29.045 80.676C28.573 80.396 28.201 80 27.929 79.488C27.665 78.976 27.533 78.384 27.533 77.712ZM33.257 77.724C33.257 77.196 33.149 76.732 32.933 76.332C32.717 75.932 32.421 75.624 32.045 75.408C31.677 75.192 31.269 75.084 30.821 75.084C30.357 75.084 29.941 75.188 29.573 75.396C29.205 75.604 28.913 75.908 28.697 76.308C28.489 76.7 28.385 77.168 28.385 77.712C28.385 78.248 28.489 78.72 28.697 79.128C28.913 79.528 29.205 79.836 29.573 80.052C29.941 80.26 30.357 80.364 30.821 80.364C31.269 80.364 31.677 80.256 32.045 80.04C32.421 79.824 32.717 79.516 32.933 79.116C33.149 78.716 33.257 78.252 33.257 77.724ZM36.4347 73.212C36.2667 73.212 36.1227 73.152 36.0027 73.032C35.8827 72.912 35.8227 72.764 35.8227 72.588C35.8227 72.412 35.8827 72.268 36.0027 72.156C36.1227 72.036 36.2667 71.976 36.4347 71.976C36.6027 71.976 36.7467 72.036 36.8667 72.156C36.9867 72.268 37.0467 72.412 37.0467 72.588C37.0467 72.764 36.9867 72.912 36.8667 73.032C36.7467 73.152 36.6027 73.212 36.4347 73.212ZM36.8547 74.448V81H36.0147V74.448H36.8547ZM41.8289 74.328C42.6129 74.328 43.2529 74.572 43.7489 75.06C44.2449 75.54 44.4929 76.24 44.4929 77.16V81H43.6649V77.256C43.6649 76.544 43.4849 76 43.1249 75.624C42.7729 75.248 42.2889 75.06 41.6729 75.06C41.0409 75.06 40.5369 75.26 40.1609 75.66C39.7849 76.06 39.5969 76.648 39.5969 77.424V81H38.7569V74.448H39.5969V75.564C39.8049 75.164 40.1049 74.86 40.4969 74.652C40.8889 74.436 41.3329 74.328 41.8289 74.328ZM49.0986 74.352C49.7146 74.352 50.2506 74.496 50.7066 74.784C51.1626 75.072 51.4906 75.436 51.6906 75.876V74.448H52.5306V81.168C52.5306 81.768 52.3986 82.3 52.1346 82.764C51.8786 83.228 51.5186 83.584 51.0546 83.832C50.5906 84.088 50.0626 84.216 49.4706 84.216C48.6306 84.216 47.9306 84.016 47.3706 83.616C46.8186 83.216 46.4746 82.672 46.3386 81.984H47.1666C47.3106 82.44 47.5826 82.804 47.9826 83.076C48.3906 83.348 48.8866 83.484 49.4706 83.484C49.8946 83.484 50.2746 83.392 50.6106 83.208C50.9466 83.032 51.2106 82.768 51.4026 82.416C51.5946 82.064 51.6906 81.648 51.6906 81.168V79.548C51.4826 79.996 51.1506 80.368 50.6946 80.664C50.2466 80.952 49.7146 81.096 49.0986 81.096C48.4986 81.096 47.9586 80.956 47.4786 80.676C47.0066 80.396 46.6346 80 46.3626 79.488C46.0986 78.976 45.9666 78.384 45.9666 77.712C45.9666 77.04 46.0986 76.452 46.3626 75.948C46.6346 75.436 47.0066 75.044 47.4786 74.772C47.9586 74.492 48.4986 74.352 49.0986 74.352ZM51.6906 77.724C51.6906 77.196 51.5826 76.732 51.3666 76.332C51.1506 75.932 50.8546 75.624 50.4786 75.408C50.1106 75.192 49.7026 75.084 49.2546 75.084C48.7906 75.084 48.3746 75.188 48.0066 75.396C47.6386 75.604 47.3466 75.908 47.1306 76.308C46.9226 76.7 46.8186 77.168 46.8186 77.712C46.8186 78.248 46.9226 78.72 47.1306 79.128C47.3466 79.528 47.6386 79.836 48.0066 80.052C48.3746 80.26 48.7906 80.364 49.2546 80.364C49.7026 80.364 50.1106 80.256 50.4786 80.04C50.8546 79.824 51.1506 79.516 51.3666 79.116C51.5826 78.716 51.6906 78.252 51.6906 77.724Z" fill="black"/>
<path d="M32 44.1825C31.8483 44.1827 31.6991 44.143 31.5676 44.0674L21.7661 38.4086C21.6345 38.3326 21.5252 38.2233 21.4493 38.0917C21.3734 37.9601 21.3335 37.8107 21.3336 37.6588V26.3412C21.3335 26.1892 21.3734 26.0399 21.4493 25.9083C21.5252 25.7766 21.6345 25.6673 21.7661 25.5913L31.5676 19.9325C31.699 19.8566 31.8482 19.8167 32 19.8167C32.1518 19.8167 32.301 19.8566 32.4324 19.9325L42.2339 25.5913C42.3655 25.6673 42.4748 25.7766 42.5507 25.9083C42.6266 26.0399 42.6665 26.1892 42.6664 26.3412V37.6588C42.6665 37.8107 42.6266 37.9601 42.5507 38.0917C42.4748 38.2233 42.3655 38.3326 42.2339 38.4086L32.4324 44.0674C32.3009 44.143 32.1517 44.1827 32 44.1825V44.1825ZM23.0634 37.1598L32 42.3195L40.9366 37.1598V26.8402L32 21.6804L23.0634 26.8402V37.1598Z" fill="black"/>
<path d="M51.6039 44.1825C51.4521 44.1827 51.303 44.143 51.1715 44.0674L41.3691 38.4086C41.2375 38.3326 41.1282 38.2233 41.0523 38.0917C40.9764 37.9601 40.9365 37.8107 40.9366 37.6588V26.3412C40.9365 26.1892 40.9764 26.0399 41.0523 25.9083C41.1282 25.7766 41.2375 25.6673 41.3691 25.5913L51.1715 19.9325C51.3029 19.8566 51.4521 19.8167 51.6039 19.8167C51.7557 19.8167 51.9048 19.8566 52.0363 19.9325L61.8378 25.5913C61.9694 25.6673 62.0787 25.7766 62.1546 25.9083C62.2305 26.0399 62.2704 26.1892 62.2703 26.3412V37.6588C62.2704 37.8107 62.2305 37.9601 62.1546 38.0917C62.0787 38.2233 61.9694 38.3326 61.8378 38.4086L52.0363 44.0674C51.9048 44.143 51.7556 44.1827 51.6039 44.1825V44.1825ZM42.6664 37.1598L51.6039 42.3195L60.5405 37.1598V26.8402L51.6039 21.6804L42.6664 26.8402V37.1598Z" fill="black"/>
<path d="M12.3961 44.1825C12.2444 44.1827 12.0952 44.143 11.9637 44.0674L2.16217 38.4086C2.03057 38.3326 1.92131 38.2233 1.8454 38.0917C1.76948 37.9601 1.72959 37.8107 1.72974 37.6588V26.3412C1.72959 26.1892 1.76948 26.0399 1.8454 25.9083C1.92131 25.7766 2.03057 25.6673 2.16217 25.5913L11.9637 19.9325C12.0952 19.8566 12.2443 19.8167 12.3961 19.8167C12.5479 19.8167 12.6971 19.8566 12.8285 19.9325L22.6309 25.5913C22.7625 25.6673 22.8718 25.7766 22.9477 25.9083C23.0236 26.0399 23.0635 26.1892 23.0634 26.3412V37.6588C23.0635 37.8107 23.0236 37.9601 22.9477 38.0917C22.8718 38.2233 22.7625 38.3326 22.6309 38.4086L12.8285 44.0674C12.697 44.143 12.5479 44.1827 12.3961 44.1825V44.1825ZM3.45947 37.1598L12.3961 42.3195L21.3336 37.1598V26.8402L12.3961 21.6804L3.45947 26.8402V37.1598Z" fill="black"/>
<path d="M41.8015 27.2061C41.6496 27.2066 41.5004 27.1666 41.3691 27.0903L31.5676 21.4314C31.4361 21.3555 31.3269 21.2464 31.251 21.1149C31.1751 20.9834 31.1351 20.8343 31.1351 20.6825V9.36398C31.1351 9.21217 31.1751 9.06304 31.251 8.93156C31.3269 8.80009 31.4361 8.69092 31.5676 8.61501L41.3691 2.9562C41.5006 2.88029 41.6497 2.84033 41.8015 2.84033C41.9533 2.84033 42.1025 2.88029 42.2339 2.9562L52.0363 8.61501C52.1678 8.69092 52.277 8.80009 52.3529 8.93156C52.4288 9.06304 52.4687 9.21217 52.4687 9.36398V20.6825C52.4687 20.8343 52.4288 20.9834 52.3529 21.1149C52.277 21.2464 52.1678 21.3555 52.0363 21.4314L42.2339 27.0903C42.1026 27.1666 41.9534 27.2066 41.8015 27.2061V27.2061ZM32.8649 20.1834L41.8015 25.3406L50.739 20.1817V9.85955L41.8015 4.70409L32.8649 9.85955V20.1834Z" fill="black"/>
<path d="M22.1985 27.2061C22.0466 27.2066 21.8974 27.1666 21.7661 27.0903L11.9637 21.4314C11.8322 21.3555 11.723 21.2464 11.6471 21.1149C11.5712 20.9834 11.5312 20.8343 11.5312 20.6825V9.36398C11.5312 9.21217 11.5712 9.06304 11.6471 8.93156C11.723 8.80009 11.8322 8.69092 11.9637 8.61501L21.7661 2.9562C21.8975 2.88029 22.0467 2.84033 22.1985 2.84033C22.3503 2.84033 22.4994 2.88029 22.6309 2.9562L32.4324 8.61501C32.5639 8.69092 32.6731 8.80009 32.749 8.93156C32.8249 9.06304 32.8649 9.21217 32.8649 9.36398V20.6825C32.8649 20.8343 32.8249 20.9834 32.749 21.1149C32.6731 21.2464 32.5639 21.3555 32.4324 21.4314L22.6309 27.0903C22.4996 27.1666 22.3504 27.2066 22.1985 27.2061V27.2061ZM13.261 20.1834L22.1985 25.3406L31.1351 20.1834V9.85955L22.1985 4.70409L13.261 9.85955V20.1834Z" fill="black"/>
<path d="M41.8015 61.1598C41.6497 61.1597 41.5005 61.1198 41.3691 61.0439L31.5676 55.3851C31.4361 55.3091 31.3269 55.2 31.251 55.0685C31.1751 54.937 31.1351 54.7879 31.1351 54.6361V43.3176C31.1351 43.1658 31.1751 43.0166 31.251 42.8852C31.3269 42.7537 31.4361 42.6445 31.5676 42.5686L41.3691 36.9098C41.5006 36.8339 41.6497 36.7939 41.8015 36.7939C41.9533 36.7939 42.1025 36.8339 42.2339 36.9098L52.0363 42.5686C52.1678 42.6445 52.277 42.7537 52.3529 42.8852C52.4288 43.0166 52.4687 43.1658 52.4687 43.3176V54.6361C52.4687 54.7879 52.4288 54.937 52.3529 55.0685C52.277 55.2 52.1678 55.3091 52.0363 55.3851L42.2339 61.0439C42.1025 61.1198 41.9533 61.1597 41.8015 61.1598V61.1598ZM32.8649 54.1405L41.8015 59.2994L50.739 54.1405V43.8166L41.8015 38.6594L32.8649 43.8166V54.1405Z" fill="black"/>
<path d="M22.1985 61.1598C22.0467 61.1597 21.8975 61.1198 21.7661 61.0439L11.9637 55.3851C11.8322 55.3091 11.723 55.2 11.6471 55.0685C11.5712 54.937 11.5312 54.7879 11.5312 54.6361V43.3176C11.5312 43.1658 11.5712 43.0166 11.6471 42.8852C11.723 42.7537 11.8322 42.6445 11.9637 42.5686L21.7661 36.9098C21.8975 36.8339 22.0467 36.7939 22.1985 36.7939C22.3503 36.7939 22.4994 36.8339 22.6309 36.9098L32.4324 42.5686C32.5639 42.6445 32.6731 42.7537 32.749 42.8852C32.8249 43.0166 32.8649 43.1658 32.8649 43.3176V54.6361C32.8649 54.7879 32.8249 54.937 32.749 55.0685C32.6731 55.2 32.5639 55.3091 32.4324 55.3851L22.6309 61.0439C22.4994 61.1198 22.3503 61.1597 22.1985 61.1598V61.1598ZM13.261 54.1405L22.1985 59.2994L31.1351 54.1405V43.8166L22.1985 38.6594L13.261 43.8166V54.1405Z" fill="black"/>
</svg>
