<svg width="50" height="50" viewBox="0 0 50 50" fill="none" xmlns="http://www.w3.org/2000/svg">
<path d="M36.7806 26.904C37.2857 26.7182 37.7857 26.5428 38.2704 26.3518C39.7551 25.7791 41.1174 25.1083 42.0919 23.906C42.3368 23.6016 42.5612 23.2662 42.75 22.8895C42.9031 22.5954 43.0357 22.2755 43.1531 21.9246C43.0255 22.0278 42.8929 22.1258 42.75 22.2187C42.5408 22.358 42.3214 22.487 42.0919 22.6109C41.0204 23.1785 39.6939 23.6171 38.2704 24.0299C37.7806 24.1692 37.2806 24.3085 36.7806 24.453C36.4592 24.5407 36.1378 24.6336 35.8163 24.7265C36.0919 24.2363 36.4133 23.7151 36.7806 23.1888C37.2143 22.5696 37.7092 21.9504 38.2704 21.3622C38.8674 20.7378 39.5408 20.1496 40.2959 19.649C39.6276 19.8864 38.949 20.2579 38.2704 20.7223C37.7704 21.068 37.2704 21.4602 36.7806 21.8885C36.4082 22.2136 36.0357 22.5593 35.6735 22.9153C34.8163 23.7615 34.0102 24.6697 33.2806 25.5366L33.1327 25.5933C31.3265 26.259 29.6939 27.1155 28.6072 28.4004C28.2347 28.839 27.9286 29.324 27.699 29.8709C27.6633 28.0288 28.0102 26.486 28.6072 25.1754C29.6021 22.9927 31.301 21.4602 33.1327 20.3044C33.9694 19.778 34.8368 19.324 35.6735 18.9267C36.051 18.7461 36.4184 18.5809 36.7806 18.421C37.3061 18.1888 37.8061 17.9721 38.2704 17.7605C39.9439 17.0123 41.1378 16.3828 41.1378 15.5211C40.2806 16.2435 39.2908 16.5943 38.2704 16.8162C37.7755 16.9246 37.2704 17.002 36.7806 17.0794C36.4031 17.1361 36.0357 17.1929 35.6735 17.26C35.2653 17.3374 34.8674 17.4303 34.4949 17.5541C35.4745 14.582 35.8214 13.2352 34.898 10.4282C34.898 14.0247 34.4592 15.9235 33.1327 17.4922C32.8163 17.8637 32.4541 18.2146 32.0306 18.5706C31.1072 19.3394 29.7959 20.0567 28.6072 21.0371C28.1327 21.4292 27.6786 21.8627 27.2704 22.358C27.1939 22.4509 27.1174 22.5489 27.0459 22.647C27.0459 22.033 27.1276 21.4499 27.2704 20.8823C27.551 19.7574 28.0612 18.7048 28.6072 17.647C29.9694 14.9896 31.5153 12.2961 30.0663 8.29711C29.8929 10.7223 29.301 12.4303 28.6072 13.8234C28.1735 14.6903 27.7041 15.4334 27.2704 16.1506C26.7602 16.9968 26.3061 17.8069 26.0357 18.7357L25.9235 18.6429C25.3418 18.1681 24.847 17.7037 24.4388 17.2497C21.8878 14.4323 22.3674 11.8936 22.9133 7.99268C19.6939 17.7553 24.4235 16.1506 24.4235 23.6738C22.8776 21.6408 21.4439 20.2012 20.2857 18.7512C18.5255 16.5531 17.3827 14.324 17.3827 9.92767C16.398 14.8812 18.2041 17.6109 20.2857 20.5624C21.8878 22.8276 23.648 25.2167 24.4388 28.8338C24.5867 29.5097 24.699 30.227 24.7755 30.9907C24.6633 30.8617 24.551 30.7327 24.4388 30.6088C23.0714 29.0763 21.7245 27.9153 20.2857 26.8936C20.051 26.7285 19.8163 26.5634 19.5765 26.4034C18.2449 23.8286 18.0204 20.8358 15.7398 18.3642C15.5714 18.1836 15.3929 18.003 15.199 17.8276C15.398 18.1269 15.5765 18.4261 15.7398 18.7254C16.9541 20.9752 17.1786 23.2713 17.9745 25.3766C17.2653 24.9432 16.5255 24.5097 15.7398 24.0505C15.1939 23.7306 14.6276 23.4003 14.0357 23.0495C13 22.4354 11.8878 21.7646 10.6837 20.9906C10.3418 20.7688 9.99491 20.5417 9.63777 20.3044C9.65307 20.939 10.0561 21.5376 10.6837 22.1207C11.5357 22.9205 12.801 23.6996 14.0357 24.5304C14.6276 24.9277 15.2092 25.3353 15.7398 25.7688C16.4541 26.3467 17.0765 26.9607 17.4796 27.6315C17.1582 27.5232 16.5459 27.3787 15.7398 27.2239C15.2347 27.1258 14.6582 27.0278 14.0357 26.9298C13.0102 26.775 11.8572 26.6356 10.6837 26.5428C10.2143 26.5066 9.74491 26.4757 9.28062 26.455C8.82144 26.4344 8.36226 26.4241 7.91838 26.4292C6.05103 26.4396 4.38266 26.6563 3.43368 27.2394C3.38777 27.2703 3.34185 27.2961 3.29593 27.3271H3.43368C4.9643 27.3322 6.4694 27.3942 7.91838 27.5386C8.37756 27.5851 8.83164 27.6367 9.28062 27.6986C9.75511 27.7605 10.2245 27.8379 10.6837 27.9205C11.8572 28.132 12.9796 28.4055 14.0357 28.7512C14.6276 28.9422 15.1939 29.1589 15.7398 29.3962C17.5408 30.1857 19.0867 31.228 20.2908 32.5851C21.3214 33.7564 22.097 35.1548 22.5561 36.8266C22.8623 37.9515 22.9592 42.5748 22.0051 43.9525H30.1684C29.3929 42.8689 28.7755 39.7832 28.6123 37.9411C28.5663 37.4148 28.5561 36.9917 28.5867 36.744C28.597 36.6873 28.6021 36.6305 28.6123 36.5737C29.25 32.1362 31.0204 29.9277 33.1378 28.5861C33.949 28.0701 34.8112 27.678 35.6786 27.3374C36.0459 27.1723 36.4133 27.0381 36.7806 26.904Z" fill="#97A6C0"/>
<path d="M20.2908 13.9733C20.0918 13.8185 19.8674 13.6947 19.6276 13.6069C19.3163 14.2107 19.2551 14.9382 19.5153 15.6193C19.6786 16.0476 19.949 16.3985 20.2857 16.6616C20.4847 16.8164 20.7092 16.9403 20.9439 17.028C21.2551 16.4294 21.3163 15.6967 21.0561 15.0156C20.8929 14.5873 20.6224 14.2365 20.2908 13.9733Z" fill="#72D2D0"/>
<path d="M26.4694 3.6481C26.8112 3.41074 27.0867 3.08566 27.2755 2.70382C27.3877 2.4613 27.4694 2.19815 27.5 1.91951C27.5561 1.43963 27.4694 0.980394 27.2755 0.572756C27.1735 0.361198 27.0459 0.170279 26.8929 0C26.4337 0.319918 26.0918 0.789475 25.9337 1.35191C25.898 1.47575 25.8724 1.59959 25.8571 1.72859C25.8214 2.05367 25.852 2.36842 25.9337 2.6677C26.0357 3.03406 26.2194 3.36946 26.4694 3.6481Z" fill="#72D2D0"/>
<path d="M32.7653 4.77299C33.0765 4.17443 33.1429 3.44172 32.8776 2.7606C32.6122 2.07948 32.0765 1.58413 31.4439 1.35193C31.1327 1.95565 31.0714 2.6832 31.3367 3.36948C31.602 4.05059 32.1327 4.54595 32.7653 4.77299Z" fill="#72D2D0"/>
<path d="M22.0153 4.06603C22.051 3.33847 21.7653 2.66768 21.2806 2.19812C20.7551 2.61608 20.4031 3.26107 20.3725 3.98347C20.3316 4.72134 20.6225 5.38698 21.1071 5.86169C21.6327 5.44374 21.9847 4.79874 22.0153 4.06603Z" fill="#72D2D0"/>
<path d="M15.7398 6.46021C16.0306 6.94009 16.4745 7.28581 16.9745 7.47157C17.2857 6.87301 17.347 6.14029 17.0868 5.45918C16.8367 4.80386 16.3316 4.32914 15.7398 4.08662C15.7143 4.0763 15.6837 4.06598 15.6531 4.05566C15.3419 4.64906 15.2806 5.38178 15.5408 6.06805C15.6021 6.20221 15.6684 6.33637 15.7398 6.46021Z" fill="#72D2D0"/>
<path d="M42.7551 11.2589C42.4898 11.6614 42.3521 12.1361 42.3521 12.6057C42.4847 12.6263 42.6174 12.6315 42.7551 12.6263C43.2959 12.6109 43.8316 12.4148 44.2653 12.0278C44.8112 11.5531 45.0867 10.8719 45.0867 10.196C44.4235 10.1031 43.7245 10.294 43.1786 10.7739C43.0153 10.9184 42.8725 11.0835 42.7551 11.2589Z" fill="#72D2D0"/>
<path d="M46.3674 17.2188C46.5867 17.3891 46.8367 17.5181 47.102 17.6007C47.4847 17.7193 47.898 17.7451 48.3112 17.6574C49.0204 17.5129 49.5918 17.0589 49.9184 16.4706C49.3878 16.063 48.6888 15.8772 47.9745 16.0269C47.6531 16.094 47.3571 16.223 47.0969 16.4036C46.7959 16.6151 46.5459 16.8989 46.3674 17.2188Z" fill="#72D2D0"/>
<path d="M42.0969 9.17949C42.3214 9.15369 42.5408 9.10209 42.7551 9.00921C42.8469 8.97309 42.9337 8.92665 43.0204 8.88021C43.6531 8.51902 44.0561 7.9153 44.1939 7.24967C43.7347 7.08455 43.2347 7.05875 42.7551 7.19291C42.5714 7.24451 42.3878 7.31675 42.2143 7.41995C42.1735 7.44059 42.1327 7.46639 42.0969 7.49219C41.5306 7.85854 41.1633 8.42614 41.0357 9.05049C41.3725 9.16917 41.7347 9.21561 42.0969 9.17949Z" fill="#72D2D0"/>
<path d="M35.7347 5.74291C36.1378 5.59327 36.5051 5.33011 36.7806 4.97923C36.9337 4.78831 37.0612 4.56643 37.1531 4.32392C37.4082 3.6428 37.3418 2.91008 37.0306 2.31152C36.949 2.34248 36.8622 2.3786 36.7857 2.41988C36.3112 2.65724 35.9184 3.05456 35.6786 3.5654C35.6531 3.617 35.6327 3.67376 35.6123 3.72536C35.3725 4.3652 35.4133 5.04631 35.6786 5.62423C35.6939 5.66551 35.7143 5.70679 35.7347 5.74291Z" fill="#72D2D0"/>
<path d="M7.41837 11.0526C7.57654 11.1712 7.74491 11.2744 7.91837 11.3467C8.35205 11.5376 8.82654 11.5892 9.28062 11.517C9.30613 11.5118 9.33164 11.5066 9.36225 11.5015C9.35205 11.3364 9.32654 11.1712 9.28062 11.0113C9.14797 10.5159 8.85715 10.0567 8.42348 9.72129C8.26531 9.59745 8.09695 9.49941 7.91837 9.42201C7.45919 9.22077 6.95409 9.16917 6.4796 9.27237C6.52042 9.94317 6.84184 10.6036 7.41837 11.0526Z" fill="#72D2D0"/>
<path d="M36.2602 30.2373C36.0816 30.0618 35.8878 29.9122 35.6735 29.8038C35.2755 29.5923 34.8265 29.4994 34.3878 29.5304C34.3419 30.2115 34.5714 30.9029 35.0867 31.4189C35.2653 31.5995 35.4592 31.744 35.6684 31.8523C36.0153 32.0381 36.3929 32.131 36.7755 32.131C36.8367 32.131 36.8929 32.131 36.9541 32.1258C36.9796 31.7491 36.9184 31.3725 36.7755 31.0216C36.6633 30.7378 36.4898 30.4695 36.2602 30.2373Z" fill="#72D2D0"/>
<path d="M10.6837 29.195C10.5918 29.2157 10.5 29.2415 10.403 29.2776C9.93365 29.4479 9.551 29.7523 9.27549 30.129C9.15304 30.2993 9.051 30.4902 8.97447 30.6863C9.07141 30.743 9.17345 30.7895 9.27549 30.8307C9.71427 31.001 10.199 31.0475 10.6785 30.9391C10.7704 30.9185 10.8673 30.8875 10.9592 30.8565C11.6377 30.6089 12.1428 30.0826 12.3877 29.4479C11.8877 29.1589 11.2806 29.0609 10.6837 29.195Z" fill="#72D2D0"/>
<path d="M45.9337 29.0043C45.2806 28.6896 44.5561 28.6999 43.9388 28.9734C44.1225 29.6287 44.5714 30.2014 45.2245 30.5162C45.8367 30.8103 46.5102 30.8206 47.0969 30.5988C47.1378 30.5833 47.1786 30.5678 47.2194 30.5523C47.1888 30.4388 47.148 30.3253 47.0969 30.2169C46.8776 29.7009 46.4745 29.2675 45.9337 29.0043Z" fill="#72D2D0"/>
<path d="M47.102 21.8937C46.9949 21.8576 46.8827 21.8318 46.7653 21.8111C46.051 21.6976 45.3571 21.9143 44.8418 22.3478C45.2041 22.9257 45.7908 23.3436 46.5102 23.4623C46.7092 23.4933 46.9082 23.4984 47.102 23.483C47.5969 23.4365 48.0612 23.2353 48.4286 22.9257C48.1327 22.4458 47.6684 22.0743 47.102 21.8937Z" fill="#72D2D0"/>
<path d="M48.1122 19.1177C47.7398 19.1538 47.398 19.2776 47.102 19.4582C46.8214 19.6337 46.5765 19.8607 46.3878 20.129C46.5969 20.3303 46.8367 20.4902 47.102 20.6037C47.4643 20.7585 47.8622 20.8256 48.2755 20.7843C48.9949 20.7121 49.6122 20.3199 50 19.7678C49.5153 19.2983 48.8316 19.0454 48.1122 19.1177Z" fill="#72D2D0"/>
<path d="M9.36224 8.91123C9.61224 9.55106 10.102 10.0309 10.6888 10.2735C10.7245 10.2889 10.7602 10.2993 10.7959 10.3147C11.1071 9.71618 11.1684 8.98346 10.9082 8.30235C10.8469 8.14755 10.7755 7.99791 10.6888 7.86375C10.398 7.40451 9.96428 7.06912 9.47959 6.89368C9.39796 7.05364 9.33163 7.22392 9.28571 7.40451C9.17857 7.80699 9.17347 8.24043 9.28571 8.65839C9.30102 8.74611 9.32653 8.82867 9.36224 8.91123Z" fill="#72D2D0"/>
<path d="M3.43367 25.32C3.48469 25.2529 3.53061 25.1859 3.57143 25.1136C3.52551 25.0775 3.47959 25.0414 3.43367 25.0104C2.92857 24.6544 2.29082 24.4996 1.63775 24.6183C0.923469 24.7524 0.341837 25.1859 0 25.7741C0.52551 26.1972 1.21939 26.3933 1.93367 26.2643C2.56122 26.1456 3.08163 25.7947 3.43367 25.32Z" fill="#72D2D0"/>
<path d="M2.57652 22.7142C2.87754 22.74 3.16326 22.709 3.43367 22.6316C3.82142 22.5181 4.16836 22.3117 4.44897 22.0331C4.19387 21.6822 3.84183 21.3984 3.43367 21.2229C3.20918 21.1301 2.96428 21.0681 2.70407 21.0475C1.98979 20.9856 1.31122 21.2591 0.826523 21.7338C1.22958 22.2756 1.85713 22.6523 2.57652 22.7142Z" fill="#72D2D0"/>
<path d="M26.7959 9.77295C26.4847 9.92775 26.1939 10.1187 25.9286 10.3405C25.2653 10.8978 24.7602 11.6615 24.5204 12.5645C24.4898 12.678 24.4643 12.7915 24.4439 12.905C24.3469 13.4417 24.352 13.9783 24.4439 14.4892C24.551 15.0826 24.7806 15.6398 25.1071 16.1352C25.398 15.9907 25.6735 15.8153 25.9286 15.6037C26.5255 15.1187 27 14.4685 27.2755 13.6997C27.3163 13.581 27.3571 13.4623 27.3878 13.3436C27.6276 12.4458 27.5663 11.5325 27.2755 10.7224C27.1531 10.387 26.9949 10.0671 26.7959 9.77295Z" fill="#343A78"/>
<path d="M24.4439 8.57069C24.7041 8.78741 24.9847 8.96801 25.2857 9.11765C25.5918 8.65325 25.8112 8.13209 25.9286 7.58514C26.051 7.00206 26.0561 6.38802 25.9286 5.76883C25.9133 5.69659 25.8979 5.61919 25.8775 5.54695C25.6326 4.62847 25.1173 3.85964 24.4439 3.2972C24.1837 3.08048 23.898 2.89988 23.602 2.75024C22.9337 3.7616 22.6786 5.04643 23.0153 6.32094C23.2551 7.23942 23.7704 8.01341 24.4439 8.57069Z" fill="#343A78"/>
<path d="M27.1786 5.54695C26.9439 6.4293 26.9949 7.32714 27.2755 8.13209C27.398 8.48297 27.5612 8.81321 27.7653 9.11765C28.0663 8.96801 28.3469 8.78741 28.6072 8.57069C29.2806 8.01341 29.7959 7.23942 30.0408 6.32094C30.3776 5.05159 30.1225 3.7616 29.4541 2.75024C29.1531 2.89988 28.8725 3.08048 28.6072 3.2972C28.0102 3.79256 27.5408 4.44787 27.2704 5.22703C27.2398 5.33539 27.2092 5.44375 27.1786 5.54695Z" fill="#343A78"/>
<path d="M19.9184 12.7864C20.051 12.6625 20.1735 12.5335 20.2908 12.3942C20.949 11.6047 21.3367 10.5727 21.301 9.45302C21.2704 8.43134 20.898 7.50255 20.2908 6.77499C20.1173 6.5686 19.9286 6.37768 19.7194 6.2074C18.8367 7.04331 18.301 8.23526 18.3367 9.5459C18.3775 10.8565 18.9847 12.0175 19.9184 12.7864Z" fill="#343A78"/>
<path d="M42.7551 14.706C42.4796 15.1549 42.2857 15.6502 42.1837 16.1662C42.3725 16.2333 42.5612 16.2849 42.7551 16.3262C43.7449 16.5274 44.8061 16.3778 45.7449 15.836C46.2959 15.5161 46.7551 15.093 47.102 14.6028C47.4643 14.0919 47.7143 13.5088 47.8367 12.9C47.5969 12.8174 47.352 12.7503 47.102 12.7142C46.1633 12.5594 45.1684 12.7194 44.2704 13.2354C43.6327 13.5966 43.1174 14.1126 42.7551 14.706Z" fill="#343A78"/>
<path d="M42.7551 18.3695C42.6225 18.4314 42.4898 18.4985 42.3623 18.5707C42.2704 18.6223 42.1786 18.6791 42.097 18.7359C41.1225 19.3963 40.4898 20.4077 40.2755 21.5016C40.8572 21.708 41.4796 21.7854 42.097 21.7286C42.3163 21.708 42.5408 21.6719 42.7551 21.6151C43.1225 21.5171 43.4847 21.3726 43.8316 21.1714C44.9643 20.5212 45.6888 19.4273 45.9235 18.2353C44.9184 17.8793 43.7857 17.9051 42.7551 18.3695Z" fill="#343A78"/>
<path d="M31.7041 8.39518C31.3673 9.66454 31.6224 10.9545 32.2959 11.9659C32.5969 11.8162 32.8776 11.6356 33.1378 11.4189C33.8163 10.8616 34.3266 10.0877 34.5715 9.17434C34.9082 7.90499 34.6531 6.61499 33.9847 5.60364C33.6837 5.75328 33.398 5.93904 33.1378 6.15059C32.4592 6.70787 31.949 7.47671 31.7041 8.39518Z" fill="#343A78"/>
<path d="M36.7806 7.14651C36.2551 8.11142 36.1327 9.21565 36.3674 10.2322C36.5051 10.2218 36.6429 10.2012 36.7806 10.1754C37.3061 10.0722 37.8163 9.87613 38.2704 9.58201C38.7245 9.29305 39.1378 8.91122 39.4694 8.44166C40.2296 7.37871 40.449 6.08355 40.1786 4.8916C39.5051 4.95352 38.8521 5.1754 38.2704 5.54176C37.8163 5.83072 37.4031 6.21255 37.0663 6.68211C36.9643 6.83175 36.8674 6.98655 36.7806 7.14651Z" fill="#343A78"/>
<path d="M38.2755 11.7234C38.1531 11.8266 38.0357 11.9298 37.9235 12.0484C37.3418 12.6367 36.9643 13.3539 36.7857 14.1073C36.6837 14.5459 36.648 14.9948 36.6786 15.4385C36.7143 15.4385 36.75 15.4437 36.7857 15.4437C37.2908 15.4643 37.7959 15.3973 38.2755 15.2425C38.9184 15.0361 39.5153 14.6749 40.0255 14.1589C40.9439 13.2301 41.3572 11.9814 41.2704 10.7636C40.2143 10.6965 39.1378 11.0164 38.2755 11.7234Z" fill="#343A78"/>
<path d="M42.0969 28.1218C41.3776 27.5852 40.4898 27.2653 39.5306 27.2653C39.0918 27.2653 38.6684 27.3323 38.2704 27.451C37.7194 27.6213 37.2143 27.8999 36.7806 28.2611C36.5969 28.4159 36.4235 28.5862 36.2704 28.7668C36.4286 28.9474 36.5969 29.1177 36.7806 29.2673C37.2143 29.6285 37.7194 29.9072 38.2704 30.0723C38.6684 30.1961 39.0918 30.258 39.5306 30.258C40.4898 30.258 41.3776 29.9433 42.0969 29.4066C42.3367 29.226 42.5612 29.0248 42.7551 28.7978L42.7857 28.7617L42.7551 28.7255C42.5561 28.5088 42.3367 28.3024 42.0969 28.1218Z" fill="#343A78"/>
<path d="M14.0357 11.1248C14.5612 11.4499 15.1429 11.6563 15.7398 11.7337C15.8316 11.744 15.9184 11.7543 16.0102 11.7595C16.1837 10.8875 16.1021 9.96899 15.7398 9.13307C15.6021 8.81831 15.4286 8.51388 15.2143 8.23008C14.8827 7.78632 14.4796 7.42512 14.0357 7.14648C13.4337 6.77497 12.7551 6.55825 12.0612 6.51697C11.8163 7.70892 12.0663 8.99891 12.8572 10.0412C13.1888 10.4901 13.5919 10.8513 14.0357 11.1248Z" fill="#343A78"/>
<path d="M44.9286 24.3497C44.0765 24.52 43.3367 24.9276 42.7551 25.4952C42.5051 25.7429 42.2806 26.0216 42.0969 26.326C42.0714 26.3724 42.0459 26.4137 42.0204 26.4602C42.0459 26.4808 42.0714 26.5014 42.0969 26.5221C42.3061 26.6769 42.5255 26.811 42.7551 26.9297C43.5765 27.3373 44.5306 27.4921 45.5 27.2961C46.0918 27.1774 46.6327 26.9452 47.102 26.6201C47.6429 26.2486 48.0867 25.7584 48.4082 25.196C48.0204 24.8915 47.5765 24.649 47.102 24.4942C46.4235 24.2568 45.6786 24.2001 44.9286 24.3497Z" fill="#343A78"/>
<path d="M7.91835 29.19C7.14794 28.4677 6.11733 28.0291 4.98467 28.0291C4.43875 28.0291 3.91835 28.1323 3.43365 28.318C2.77039 28.576 2.18365 28.994 1.72957 29.5254C2.18875 30.0569 2.77039 30.4749 3.43365 30.7329C3.91324 30.9238 4.43875 31.027 4.98467 31.027C6.11733 31.027 7.14794 30.5832 7.91835 29.866C8.03059 29.7576 8.14284 29.6441 8.24488 29.5254C8.14284 29.4119 8.0357 29.2984 7.91835 29.19Z" fill="#343A78"/>
<path d="M6.96428 15.8153C7.2704 16.0268 7.59183 16.1919 7.92346 16.3158C8.36734 16.4809 8.82652 16.5686 9.28571 16.5841C9.69387 16.5944 10.0969 16.548 10.4898 16.4499C10.3826 15.5005 9.96938 14.5923 9.28571 13.8854C9.09183 13.6894 8.88265 13.5088 8.64795 13.3436C8.41836 13.1837 8.17346 13.0495 7.92346 12.936C7.0255 12.5387 6.0357 12.4716 5.12244 12.709C5.25509 13.9216 5.89285 15.0722 6.96428 15.8153Z" fill="#343A78"/>
<path d="M10.6837 17.8276C10.6531 17.8328 10.6276 17.8431 10.5969 17.8483C10.6173 18.0186 10.6429 18.1888 10.6837 18.354C10.9184 19.3756 11.5204 20.3147 12.4388 20.9546C12.9337 21.3003 13.4796 21.5273 14.0357 21.6409C14.6021 21.7544 15.1837 21.7544 15.7398 21.6409C15.8163 21.6254 15.8929 21.6099 15.9643 21.5893C15.9235 21.2539 15.847 20.9288 15.7398 20.614C15.4439 19.7781 14.898 19.0248 14.1225 18.483C14.0918 18.4623 14.0663 18.4417 14.0357 18.4262C13.0102 17.7451 11.801 17.5645 10.6837 17.8276Z" fill="#343A78"/>
<path d="M13.1684 15.7173C13.4388 15.9546 13.7296 16.1507 14.0357 16.3107C14.5714 16.5893 15.1531 16.7441 15.7398 16.7751C16.0255 16.7906 16.3163 16.7802 16.5969 16.739C16.5918 15.8205 16.301 14.902 15.7398 14.1383C15.5561 13.8906 15.3469 13.6585 15.1071 13.4521C14.7755 13.1631 14.4133 12.9309 14.0357 12.7606C13.2857 12.4252 12.4643 12.3117 11.6684 12.4252C11.6786 13.6378 12.1837 14.8504 13.1684 15.7173Z" fill="#343A78"/>
<path d="M8.5102 22.4253C8.31122 22.3789 8.11735 22.3428 7.92347 22.3221C6.86225 22.2086 5.83163 22.5027 5 23.091C5.55102 24.1746 6.54082 25.0208 7.80102 25.3407C7.84184 25.351 7.88265 25.3613 7.92347 25.3717C8.38265 25.4697 8.84184 25.4955 9.28571 25.4491C9.78061 25.3975 10.2551 25.2633 10.6888 25.0517C10.9082 24.9434 11.1173 24.8195 11.3163 24.6802C11.148 24.3448 10.9337 24.0352 10.6888 23.7566C10.301 23.3232 9.82653 22.962 9.28571 22.704C9.03571 22.5904 8.78061 22.4976 8.5102 22.4253Z" fill="#343A78"/>
<path d="M4.5 20.1392C5.54082 20.8616 6.78061 21.0629 7.91837 20.7997C7.95408 20.7894 7.98469 20.7842 8.02041 20.7739C8 20.583 7.96429 20.3921 7.91837 20.2063C7.67347 19.2104 7.08163 18.292 6.17857 17.6676C5.34184 17.0845 4.37245 16.842 3.43367 16.9039C3.16837 16.9194 2.90816 16.9659 2.65306 17.0278C2.73469 17.7605 3 18.4674 3.43367 19.0763C3.71939 19.4839 4.07653 19.84 4.5 20.1392Z" fill="#343A78"/>
<path d="M12.0463 46.5525L12.1296 48.0072C12.1296 48.0869 12.1227 48.2331 12.1088 48.4456C12.1088 48.6582 12.0254 48.8508 11.8587 49.0235C11.7059 49.1829 11.5114 49.2626 11.2753 49.2626C11.053 49.2626 10.8794 49.256 10.7544 49.2427C10.2959 49.2427 10.0667 49.0501 10.0667 48.6648C10.0667 48.346 10.2195 47.064 10.5251 44.8188C10.8308 42.5604 11.0252 41.1057 11.1086 40.4547C11.1919 39.8038 11.2614 39.2591 11.317 38.8207C11.3864 38.369 11.435 38.0369 11.4628 37.8243C11.4906 37.6118 11.5323 37.3992 11.5878 37.1867C11.6434 36.9741 11.7268 36.8014 11.8379 36.6685C12.0463 36.4161 12.4491 36.2899 13.0465 36.2899C14.0466 36.7682 15.0746 38.1232 16.1304 40.3551C16.8805 41.9493 17.3806 42.959 17.6307 43.3841C17.8807 43.8092 18.1238 44.1015 18.36 44.2609L22.5274 37.3261C22.8191 37.1269 23.0414 37.0272 23.1942 37.0272C23.6387 37.0272 23.9791 37.2199 24.2152 37.6051C24.4514 37.9904 24.6459 38.462 24.7987 39.02C24.9654 39.5647 25.1043 40.1691 25.2154 40.8334C25.3405 41.4976 25.4446 42.1951 25.528 42.9257C25.6252 43.6431 25.7155 44.3472 25.7989 45.038C25.9934 46.6987 26.1392 47.7415 26.2365 48.1666C26.3476 48.5918 26.4032 48.8973 26.4032 49.0833C26.4032 49.256 26.3406 49.4287 26.2156 49.6014C26.0906 49.7608 25.917 49.8405 25.6947 49.8405C25.4724 49.8405 25.2502 49.7608 25.0279 49.6014C24.8056 49.4287 24.6667 49.2228 24.6112 48.9837C24.5695 48.7312 24.5209 48.4058 24.4653 48.0072C24.4236 47.6087 24.3681 47.1636 24.2986 46.6721C24.2291 46.1673 24.1597 45.6425 24.0902 45.0978C24.0208 44.5399 23.9513 44.0085 23.8818 43.5036C23.8124 42.9988 23.7499 42.5538 23.6943 42.1685C23.6387 41.77 23.5971 41.471 23.5693 41.2718C23.5693 41.0061 23.5623 40.7603 23.5485 40.5345C23.5346 40.3086 23.479 40.1691 23.3818 40.116C23.2845 40.0628 23.1317 40.1293 22.9233 40.3153C22.7289 40.488 22.451 40.8466 22.0898 41.3913C21.3119 42.5471 20.1867 44.4934 18.7142 47.2301C18.5197 47.5622 18.2627 47.6352 17.9432 47.4493C17.5682 47.25 17.2486 46.7385 16.9847 45.9148L13.1506 38.1232C12.8172 38.7609 12.5116 40.8732 12.2338 44.4601C12.1921 44.8985 12.1643 45.2705 12.1505 45.5761C12.081 45.9082 12.0463 46.2337 12.0463 46.5525Z" fill="#72D2D0"/>
<path d="M29.9015 44.2609C29.8598 44.7126 29.839 45.3569 29.839 46.1938C29.839 47.0175 29.971 48.0205 30.2349 49.2029L28.5888 50L27.8386 44.5797C27.3524 44.5133 27.1093 44.3539 27.1093 44.1014C27.1093 43.9155 27.2204 43.6963 27.4427 43.4438C27.6789 43.1914 27.8525 42.9855 27.9636 42.8261C28.0748 42.6534 28.1373 42.4674 28.1512 42.2681C28.179 42.0556 28.2137 41.6836 28.2554 41.1522C28.297 40.6208 28.3318 40.0562 28.3596 39.4584C28.4012 38.8605 28.436 38.2959 28.4637 37.7645C28.5054 37.2331 28.5263 36.8612 28.5263 36.6486C28.8319 36.3563 29.0541 36.177 29.193 36.1106C29.5403 35.9379 29.7765 36.0043 29.9015 36.3098L29.7765 42.587C33.2077 42.587 35.2706 42.3744 35.9652 41.9493V35.6522C36.0485 35.4264 36.4375 35.3135 37.1321 35.3135C37.2849 35.3135 37.4099 35.3201 37.5071 35.3334C37.5071 35.5858 37.5141 35.9711 37.528 36.4892C37.5557 36.994 37.5766 37.5719 37.5905 38.2229C37.6183 38.8738 37.646 39.5646 37.6738 40.2953C37.7016 41.0127 37.7294 41.6969 37.7572 42.3478C37.7988 43.7029 37.8336 44.6993 37.8614 45.3369C37.9586 46.9311 38.2989 48.2198 38.8824 49.2029C38.2573 49.442 37.5696 49.5616 36.8195 49.5616C36.1805 48.0471 35.8401 46.061 35.7985 43.6033C34.8816 43.5767 34.2565 43.5634 33.9231 43.5634C33.5897 43.5634 33.2146 43.5833 32.7979 43.6232C31.9366 43.6763 30.9712 43.8889 29.9015 44.2609Z" fill="#72D2D0"/>
</svg>
