<svg width="64" height="91" viewBox="0 0 64 91" fill="none" xmlns="http://www.w3.org/2000/svg">
<path d="M7.82 84.008H4.004L3.272 86H2.384L5.444 77.72H6.392L9.44 86H8.552L7.82 84.008ZM7.568 83.312L5.912 78.776L4.256 83.312H7.568ZM11.6161 80.9C11.8321 80.444 12.1641 80.072 12.6121 79.784C13.0681 79.496 13.6041 79.352 14.2201 79.352C14.8201 79.352 15.3561 79.492 15.8281 79.772C16.3001 80.044 16.6681 80.436 16.9321 80.948C17.2041 81.452 17.3401 82.04 17.3401 82.712C17.3401 83.384 17.2041 83.976 16.9321 84.488C16.6681 85 16.2961 85.396 15.8161 85.676C15.3441 85.956 14.8121 86.096 14.2201 86.096C13.5961 86.096 13.0561 85.956 12.6001 85.676C12.1521 85.388 11.8241 85.016 11.6161 84.56V86H10.7881V77.12H11.6161V80.9ZM16.4881 82.712C16.4881 82.168 16.3801 81.7 16.1641 81.308C15.9561 80.908 15.6681 80.604 15.3001 80.396C14.9321 80.188 14.5161 80.084 14.0521 80.084C13.6041 80.084 13.1921 80.192 12.8161 80.408C12.4481 80.624 12.1561 80.932 11.9401 81.332C11.7241 81.732 11.6161 82.196 11.6161 82.724C11.6161 83.252 11.7241 83.716 11.9401 84.116C12.1561 84.516 12.4481 84.824 12.8161 85.04C13.1921 85.256 13.6041 85.364 14.0521 85.364C14.5161 85.364 14.9321 85.26 15.3001 85.052C15.6681 84.836 15.9561 84.528 16.1641 84.128C16.3801 83.72 16.4881 83.248 16.4881 82.712ZM21.7538 86.096C21.1378 86.096 20.5818 85.96 20.0858 85.688C19.5978 85.408 19.2098 85.016 18.9218 84.512C18.6418 84 18.5018 83.404 18.5018 82.724C18.5018 82.044 18.6458 81.452 18.9338 80.948C19.2218 80.436 19.6138 80.044 20.1098 79.772C20.6058 79.492 21.1618 79.352 21.7778 79.352C22.3938 79.352 22.9498 79.492 23.4458 79.772C23.9498 80.044 24.3418 80.436 24.6218 80.948C24.9098 81.452 25.0538 82.044 25.0538 82.724C25.0538 83.396 24.9098 83.988 24.6218 84.5C24.3338 85.012 23.9378 85.408 23.4338 85.688C22.9298 85.96 22.3698 86.096 21.7538 86.096ZM21.7538 85.364C22.1858 85.364 22.5858 85.268 22.9538 85.076C23.3218 84.876 23.6178 84.58 23.8418 84.188C24.0738 83.788 24.1898 83.3 24.1898 82.724C24.1898 82.148 24.0778 81.664 23.8538 81.272C23.6298 80.872 23.3338 80.576 22.9658 80.384C22.5978 80.184 22.1978 80.084 21.7658 80.084C21.3338 80.084 20.9338 80.184 20.5658 80.384C20.1978 80.576 19.9018 80.872 19.6778 81.272C19.4618 81.664 19.3538 82.148 19.3538 82.724C19.3538 83.3 19.4618 83.788 19.6778 84.188C19.9018 84.58 20.1938 84.876 20.5538 85.076C20.9218 85.268 21.3218 85.364 21.7538 85.364ZM32.261 79.448V86H31.421V84.848C31.229 85.256 30.933 85.568 30.533 85.784C30.133 86 29.685 86.108 29.189 86.108C28.405 86.108 27.765 85.868 27.269 85.388C26.773 84.9 26.525 84.196 26.525 83.276V79.448H27.353V83.18C27.353 83.892 27.529 84.436 27.881 84.812C28.241 85.188 28.729 85.376 29.345 85.376C29.977 85.376 30.481 85.176 30.857 84.776C31.233 84.376 31.421 83.788 31.421 83.012V79.448H32.261ZM35.2708 80.156V84.224C35.2708 84.624 35.3468 84.9 35.4988 85.052C35.6508 85.204 35.9188 85.28 36.3027 85.28H37.0708V86H36.1708C35.5788 86 35.1388 85.864 34.8508 85.592C34.5628 85.312 34.4188 84.856 34.4188 84.224V80.156H33.5068V79.448H34.4188V77.804H35.2708V79.448H37.0708V80.156H35.2708ZM49.9451 77.72V86H49.1051V79.388L46.1531 86H45.5411L42.5891 79.412V86H41.7491V77.72H42.6371L45.8411 84.896L49.0451 77.72H49.9451ZM57.7786 82.388C57.7786 82.676 57.7706 82.896 57.7546 83.048H52.3186C52.3426 83.544 52.4626 83.968 52.6786 84.32C52.8946 84.672 53.1786 84.94 53.5306 85.124C53.8826 85.3 54.2666 85.388 54.6826 85.388C55.2266 85.388 55.6826 85.256 56.0506 84.992C56.4266 84.728 56.6746 84.372 56.7946 83.924H57.6826C57.5226 84.564 57.1786 85.088 56.6506 85.496C56.1306 85.896 55.4746 86.096 54.6826 86.096C54.0666 86.096 53.5146 85.96 53.0266 85.688C52.5386 85.408 52.1546 85.016 51.8746 84.512C51.6026 84 51.4666 83.404 51.4666 82.724C51.4666 82.044 51.6026 81.448 51.8746 80.936C52.1466 80.424 52.5266 80.032 53.0146 79.76C53.5026 79.488 54.0586 79.352 54.6826 79.352C55.3066 79.352 55.8506 79.488 56.3146 79.76C56.7866 80.032 57.1466 80.4 57.3946 80.864C57.6506 81.32 57.7786 81.828 57.7786 82.388ZM56.9266 82.364C56.9346 81.876 56.8346 81.46 56.6266 81.116C56.4266 80.772 56.1506 80.512 55.7986 80.336C55.4466 80.16 55.0626 80.072 54.6466 80.072C54.0226 80.072 53.4906 80.272 53.0506 80.672C52.6106 81.072 52.3666 81.636 52.3186 82.364H56.9266Z" fill="#97A6C0"/>
<path d="M8.90811 53.8638H4.32433C3.6362 53.8638 2.97626 53.5905 2.48968 53.1039C2.00309 52.6173 1.72974 51.9574 1.72974 51.2692V31.5079C1.72974 30.8198 2.00309 30.1599 2.48968 29.6733C2.97626 29.1867 3.6362 28.9133 4.32433 28.9133H8.90811C9.59624 28.9133 10.2562 29.1867 10.7428 29.6733C11.2294 30.1599 11.5027 30.8198 11.5027 31.5079V51.2692C11.5027 51.9574 11.2294 52.6173 10.7428 53.1039C10.2562 53.5905 9.59624 53.8638 8.90811 53.8638ZM4.32433 30.6431C4.09495 30.6431 3.87497 30.7342 3.71278 30.8964C3.55059 31.0586 3.45947 31.2785 3.45947 31.5079V51.2692C3.45947 51.4986 3.55059 51.7186 3.71278 51.8808C3.87497 52.043 4.09495 52.1341 4.32433 52.1341H8.90811C9.13749 52.1341 9.35747 52.043 9.51967 51.8808C9.68186 51.7186 9.77298 51.4986 9.77298 51.2692V31.5079C9.77298 31.2785 9.68186 31.0586 9.51967 30.8964C9.35747 30.7342 9.13749 30.6431 8.90811 30.6431H4.32433Z" fill="#97A6C0"/>
<path d="M38.9717 45.1954H23.9775C23.7481 45.1954 23.5282 45.1043 23.366 44.9421C23.2038 44.7799 23.1127 44.5599 23.1127 44.3305C23.1127 44.1011 23.2038 43.8812 23.366 43.719C23.5282 43.5568 23.7481 43.4657 23.9775 43.4657H38.9717C39.5983 43.4657 40.1993 43.2167 40.6424 42.7736C41.0856 42.3305 41.3345 41.7295 41.3345 41.1028C41.3345 40.4762 41.0856 39.8752 40.6424 39.4321C40.1993 38.989 39.5983 38.74 38.9717 38.74H33.6225C32.694 38.74 31.7763 38.5415 30.9308 38.1581C30.0852 37.7746 29.3313 37.2149 28.7196 36.5165C28.1315 35.8453 27.4068 35.3074 26.5941 34.9389C25.7814 34.5703 24.8993 34.3796 24.0069 34.3794H10.6378C10.4085 34.3794 10.1885 34.2883 10.0263 34.1261C9.8641 33.9639 9.77298 33.7439 9.77298 33.5145C9.77298 33.2851 9.8641 33.0652 10.0263 32.903C10.1885 32.7408 10.4085 32.6497 10.6378 32.6497H24.0069C25.1454 32.6492 26.2708 32.892 27.3079 33.3617C28.345 33.8314 29.2697 34.5171 30.0203 35.3731C30.4699 35.8862 31.0238 36.2973 31.645 36.579C32.2662 36.8608 32.9404 37.0066 33.6225 37.0068H38.9717C40.0571 37.0068 41.098 37.438 41.8655 38.2055C42.633 38.973 43.0642 40.014 43.0642 41.0994C43.0642 42.1848 42.633 43.2258 41.8655 43.9933C41.098 44.7608 40.0571 45.1919 38.9717 45.1919V45.1954Z" fill="#97A6C0"/>
<path d="M31.8435 56.3648C29.6949 56.365 27.565 55.9664 25.5619 55.1894L10.3403 49.6249C10.1304 49.5422 9.96113 49.3807 9.86859 49.175C9.77605 48.9692 9.76759 48.7354 9.845 48.5235C9.92241 48.3116 10.0796 48.1383 10.2829 48.0406C10.4863 47.943 10.7198 47.9286 10.9336 48.0007L26.1673 53.5704C28.2608 54.3848 30.505 54.7387 32.7474 54.6083C34.9899 54.4779 37.1779 53.8661 39.1628 52.8145L60.3139 41.6154C59.338 40.6878 58.1228 40.0507 56.8048 39.7757C55.4868 39.5007 54.1182 39.5987 52.8527 40.0586L41.5663 44.1832C41.4589 44.2255 41.3441 44.2459 41.2288 44.2431C41.1134 44.2404 40.9997 44.2146 40.8945 44.1673C40.7892 44.12 40.6945 44.052 40.6159 43.9675C40.5373 43.883 40.4765 43.7837 40.4369 43.6753C40.3973 43.5669 40.3798 43.4516 40.3854 43.3364C40.391 43.2211 40.4196 43.1081 40.4696 43.0041C40.5196 42.9001 40.5898 42.8071 40.6763 42.7306C40.7627 42.6542 40.8636 42.5958 40.973 42.559L52.2594 38.4336C53.8613 37.8523 55.5954 37.7389 57.2593 38.1064C58.9233 38.4739 60.4483 39.3073 61.6562 40.5092L61.862 40.7159C62.0161 40.8699 62.1319 41.058 62.2001 41.2648C62.2682 41.4717 62.2869 41.6917 62.2546 41.9072C62.2223 42.1226 62.1399 42.3274 62.0141 42.5052C61.8882 42.683 61.7224 42.8288 61.5299 42.9309L39.9758 54.3471C37.4704 55.6735 34.6783 56.3663 31.8435 56.3648Z" fill="#97A6C0"/>
<path d="M49.1425 41.0975C49.1183 41.0988 49.094 41.0988 49.0698 41.0975C48.8413 41.0785 48.6296 40.9696 48.4814 40.7946C48.3331 40.6196 48.2605 40.3928 48.2794 40.1643C48.3122 39.7725 48.3373 39.3729 48.3373 38.9734C48.3368 36.5383 47.5008 34.1771 45.9691 32.2841C44.4373 30.3911 42.3025 29.0809 39.9211 28.5724C37.5397 28.0638 35.0559 28.3877 32.8845 29.4899C30.7131 30.592 28.9856 32.4058 27.9905 34.6283C27.9456 34.7339 27.8801 34.8295 27.7978 34.9096C27.7156 34.9897 27.6182 35.0525 27.5114 35.0946C27.4046 35.1366 27.2905 35.157 27.1757 35.1545C27.061 35.152 26.9478 35.1267 26.843 35.08C26.7381 35.0333 26.6436 34.9663 26.5649 34.8827C26.4862 34.7991 26.425 34.7007 26.3847 34.5932C26.3444 34.4857 26.326 34.3713 26.3304 34.2566C26.3348 34.1419 26.362 34.0292 26.4104 33.9251C27.5666 31.341 29.5744 29.2317 32.0985 27.9496C34.6225 26.6675 37.5101 26.2902 40.2788 26.8806C43.0476 27.4711 45.53 28.9935 47.3115 31.1938C49.0929 33.394 50.0656 36.1389 50.067 38.9699C50.067 39.4179 50.0402 39.865 50.003 40.3044C49.9851 40.5204 49.8866 40.7217 49.7273 40.8686C49.5679 41.0154 49.3592 41.0971 49.1425 41.0975Z" fill="#97A6C0"/>
<path d="M38.1587 28.3408C38.1385 28.3408 38.1186 28.3408 38.099 28.3408C37.8704 28.325 37.6574 28.2192 37.5067 28.0465C37.3561 27.8738 37.2801 27.6483 37.2956 27.4197C37.7531 20.7066 39.4863 15.5338 42.445 12.0433C44.1424 10.0036 46.3858 8.48985 48.9124 7.67914C49.0206 7.6445 49.1346 7.63151 49.2478 7.6409C49.361 7.6503 49.4712 7.6819 49.5722 7.7339C49.6732 7.7859 49.763 7.85728 49.8364 7.94397C49.9098 8.03066 49.9654 8.13096 50 8.23914C50.0346 8.34732 50.0476 8.46127 50.0382 8.57447C50.0289 8.68767 49.9973 8.79792 49.9453 8.89891C49.8933 8.9999 49.8219 9.08965 49.7352 9.16306C49.6485 9.23646 49.5482 9.29207 49.44 9.32671C47.2215 10.0383 45.2519 11.3676 43.7622 13.1589C41.0465 16.3589 39.4508 21.2022 39.0184 27.5338C39.0037 27.7521 38.9069 27.9568 38.7474 28.1065C38.5878 28.2562 38.3775 28.3399 38.1587 28.3408Z" fill="#97A6C0"/>
<path d="M33.8958 22.9006C32.6306 22.9019 31.3761 22.67 30.195 22.2165C28.6841 21.6129 27.3262 20.6811 26.2194 19.4886C25.1126 18.2961 24.2845 16.8725 23.795 15.3209C23.7289 15.1286 23.7326 14.9192 23.8055 14.7294C23.8784 14.5396 24.0159 14.3816 24.1937 14.2831C25.5871 13.4352 27.1562 12.9179 28.7806 12.771C30.405 12.624 32.0414 12.8512 33.5643 13.4352C35.0872 14.0192 36.456 14.9444 37.5657 16.1398C38.6753 17.3352 39.4962 18.769 39.9654 20.3311C40.0316 20.5232 40.028 20.7326 39.9553 20.9224C39.8825 21.1121 39.7453 21.2702 39.5676 21.3689C37.8381 22.3537 35.8859 22.8808 33.8958 22.9006ZM25.6951 15.4541C26.1368 16.6247 26.8214 17.6886 27.7037 18.5757C28.5861 19.4629 29.6462 20.1531 30.8145 20.6011C31.9827 21.0492 33.2326 21.2448 34.4819 21.1751C35.7311 21.1055 36.9515 20.7721 38.0627 20.197C37.6212 19.0262 36.9368 17.9621 36.0545 17.0749C35.1722 16.1876 34.112 15.4972 32.9437 15.0491C31.7753 14.6011 30.5254 14.4055 29.276 14.4753C28.0267 14.5451 26.8063 14.8787 25.6951 15.4541Z" fill="#97A6C0"/>
<path d="M47.4923 19.0903C46.1914 19.0728 44.9105 18.7675 43.7416 18.1963C42.5727 17.625 41.5448 16.8021 40.7317 15.7865C40.6009 15.6307 40.5292 15.4338 40.5292 15.2304C40.5292 15.027 40.6009 14.8301 40.7317 14.6743C41.5409 13.6508 42.5673 12.8199 43.7367 12.2415C44.9062 11.6632 46.1896 11.3518 47.494 11.3298H47.5174C48.8183 11.347 50.0992 11.652 51.2681 12.2231C52.4371 12.7942 53.465 13.6171 54.278 14.6328C54.4088 14.7885 54.4805 14.9854 54.4805 15.1889C54.4805 15.3923 54.4088 15.5892 54.278 15.745C53.4683 16.7685 52.4413 17.5992 51.2711 18.1772C50.101 18.7551 48.8171 19.0658 47.5122 19.0868L47.4923 19.0903ZM42.5626 15.2252C43.2017 15.8901 43.9667 16.4213 44.813 16.7879C45.6593 17.1545 46.5701 17.3491 47.4923 17.3605H47.5105C48.4357 17.3466 49.3487 17.1481 50.1963 16.7769C51.0438 16.4056 51.8087 15.869 52.4463 15.1984C51.8068 14.5339 51.0418 14.003 50.1955 13.6366C49.3493 13.2702 48.4386 13.0755 47.5165 13.0639H47.4984C46.5738 13.0773 45.6611 13.2751 44.8139 13.6456C43.9667 14.0161 43.2019 14.552 42.5643 15.2217L42.5626 15.2252Z" fill="#97A6C0"/>
</svg>
