<svg width="63" height="81" viewBox="0 0 63 81" fill="none" xmlns="http://www.w3.org/2000/svg">
<path d="M52.8883 47.2873H11.1117C8.84444 47.2873 7 45.2758 7 42.8024V11.4855C7 9.01212 8.84444 7 11.1117 7H52.8883C55.1556 7 57 9.01212 57 11.4855V42.8024C57 45.2758 55.1556 47.2873 52.8883 47.2873ZM11.1117 8.21152C9.45722 8.21152 8.11111 9.68 8.11111 11.4855V42.8024C8.11111 44.6073 9.45722 46.0751 11.1117 46.0751H52.8883C54.5433 46.0751 55.8889 44.6067 55.8889 42.8024V11.4855C55.8889 9.68 54.5428 8.21212 52.8883 8.21212H11.1117V8.21152Z" fill="#97A6C0"/>
<path d="M31.7691 31.0764C28.9558 31.0764 26.2552 29.7758 24.3602 27.5073L7.90909 7.81697L8.73075 7L25.1819 26.6909C26.8663 28.7079 29.2674 29.8642 31.7691 29.8642C34.2708 29.8642 36.6713 28.7079 38.3563 26.6909L54.8069 7.00061L55.6285 7.81758L39.178 27.5079C37.283 29.7758 34.5824 31.0764 31.7691 31.0764Z" fill="#97A6C0"/>
<path d="M24.1969 27.5704L8.20058 45.1174L8.98847 45.9722L24.9848 28.4252L24.1969 27.5704Z" fill="#97A6C0"/>
<path d="M39.8002 27.5697L39.0125 28.4246L55.0111 45.9666L55.7987 45.1117L39.8002 27.5697Z" fill="#97A6C0"/>
<path d="M8.576 71.8C8.576 70.976 8.756 70.24 9.116 69.592C9.476 68.936 9.968 68.428 10.592 68.068C11.216 67.7 11.912 67.516 12.68 67.516C13.616 67.516 14.416 67.74 15.08 68.188C15.752 68.628 16.24 69.252 16.544 70.06H15.56C15.32 69.492 14.952 69.048 14.456 68.728C13.968 68.408 13.376 68.248 12.68 68.248C12.064 68.248 11.508 68.392 11.012 68.68C10.524 68.968 10.14 69.384 9.86 69.928C9.58 70.464 9.44 71.088 9.44 71.8C9.44 72.512 9.58 73.136 9.86 73.672C10.14 74.208 10.524 74.62 11.012 74.908C11.508 75.196 12.064 75.34 12.68 75.34C13.376 75.34 13.968 75.184 14.456 74.872C14.952 74.552 15.32 74.112 15.56 73.552H16.544C16.24 74.352 15.752 74.972 15.08 75.412C14.408 75.852 13.608 76.072 12.68 76.072C11.912 76.072 11.216 75.892 10.592 75.532C9.968 75.164 9.476 74.656 9.116 74.008C8.756 73.36 8.576 72.624 8.576 71.8ZM21.0858 76.096C20.4698 76.096 19.9138 75.96 19.4178 75.688C18.9298 75.408 18.5418 75.016 18.2538 74.512C17.9738 74 17.8338 73.404 17.8338 72.724C17.8338 72.044 17.9778 71.452 18.2658 70.948C18.5538 70.436 18.9458 70.044 19.4418 69.772C19.9378 69.492 20.4938 69.352 21.1098 69.352C21.7258 69.352 22.2818 69.492 22.7778 69.772C23.2818 70.044 23.6738 70.436 23.9538 70.948C24.2418 71.452 24.3858 72.044 24.3858 72.724C24.3858 73.396 24.2418 73.988 23.9538 74.5C23.6658 75.012 23.2698 75.408 22.7658 75.688C22.2618 75.96 21.7018 76.096 21.0858 76.096ZM21.0858 75.364C21.5178 75.364 21.9178 75.268 22.2858 75.076C22.6538 74.876 22.9498 74.58 23.1738 74.188C23.4058 73.788 23.5218 73.3 23.5218 72.724C23.5218 72.148 23.4098 71.664 23.1858 71.272C22.9618 70.872 22.6658 70.576 22.2978 70.384C21.9298 70.184 21.5298 70.084 21.0978 70.084C20.6658 70.084 20.2658 70.184 19.8978 70.384C19.5298 70.576 19.2338 70.872 19.0098 71.272C18.7938 71.664 18.6858 72.148 18.6858 72.724C18.6858 73.3 18.7938 73.788 19.0098 74.188C19.2338 74.58 19.5258 74.876 19.8858 75.076C20.2538 75.268 20.6538 75.364 21.0858 75.364ZM28.989 69.328C29.773 69.328 30.413 69.572 30.909 70.06C31.405 70.54 31.653 71.24 31.653 72.16V76H30.825V72.256C30.825 71.544 30.645 71 30.285 70.624C29.933 70.248 29.449 70.06 28.833 70.06C28.201 70.06 27.697 70.26 27.321 70.66C26.945 71.06 26.757 71.648 26.757 72.424V76H25.917V69.448H26.757V70.564C26.965 70.164 27.265 69.86 27.657 69.652C28.049 69.436 28.493 69.328 28.989 69.328ZM34.6028 70.156V74.224C34.6028 74.624 34.6788 74.9 34.8308 75.052C34.9828 75.204 35.2508 75.28 35.6348 75.28H36.4028V76H35.5028C34.9108 76 34.4708 75.864 34.1828 75.592C33.8948 75.312 33.7508 74.856 33.7508 74.224V70.156H32.8388V69.448H33.7508V67.804H34.6028V69.448H36.4028V70.156H34.6028ZM37.4041 72.712C37.4041 72.04 37.5361 71.452 37.8001 70.948C38.0721 70.436 38.4441 70.044 38.9161 69.772C39.3961 69.492 39.9361 69.352 40.5361 69.352C41.1601 69.352 41.6961 69.496 42.1441 69.784C42.6001 70.072 42.9281 70.44 43.1281 70.888V69.448H43.9681V76H43.1281V74.548C42.9201 74.996 42.5881 75.368 42.1321 75.664C41.6841 75.952 41.1481 76.096 40.5241 76.096C39.9321 76.096 39.3961 75.956 38.9161 75.676C38.4441 75.396 38.0721 75 37.8001 74.488C37.5361 73.976 37.4041 73.384 37.4041 72.712ZM43.1281 72.724C43.1281 72.196 43.0201 71.732 42.8041 71.332C42.5881 70.932 42.2921 70.624 41.9161 70.408C41.5481 70.192 41.1401 70.084 40.6921 70.084C40.2281 70.084 39.8121 70.188 39.4441 70.396C39.0761 70.604 38.7841 70.908 38.5681 71.308C38.3601 71.7 38.2561 72.168 38.2561 72.712C38.2561 73.248 38.3601 73.72 38.5681 74.128C38.7841 74.528 39.0761 74.836 39.4441 75.052C39.8121 75.26 40.2281 75.364 40.6921 75.364C41.1401 75.364 41.5481 75.256 41.9161 75.04C42.2921 74.824 42.5881 74.516 42.8041 74.116C43.0201 73.716 43.1281 73.252 43.1281 72.724ZM45.5018 72.724C45.5018 72.044 45.6378 71.452 45.9098 70.948C46.1818 70.436 46.5578 70.044 47.0378 69.772C47.5178 69.492 48.0658 69.352 48.6818 69.352C49.4898 69.352 50.1538 69.552 50.6738 69.952C51.2018 70.352 51.5418 70.896 51.6938 71.584H50.7938C50.6818 71.112 50.4378 70.744 50.0618 70.48C49.6938 70.208 49.2338 70.072 48.6818 70.072C48.2418 70.072 47.8458 70.172 47.4938 70.372C47.1418 70.572 46.8618 70.872 46.6538 71.272C46.4538 71.664 46.3538 72.148 46.3538 72.724C46.3538 73.3 46.4538 73.788 46.6538 74.188C46.8618 74.588 47.1418 74.888 47.4938 75.088C47.8458 75.288 48.2418 75.388 48.6818 75.388C49.2338 75.388 49.6938 75.256 50.0618 74.992C50.4378 74.72 50.6818 74.344 50.7938 73.864H51.6938C51.5418 74.536 51.2018 75.076 50.6738 75.484C50.1458 75.892 49.4818 76.096 48.6818 76.096C48.0658 76.096 47.5178 75.96 47.0378 75.688C46.5578 75.408 46.1818 75.016 45.9098 74.512C45.6378 74 45.5018 73.404 45.5018 72.724ZM54.3372 70.156V74.224C54.3372 74.624 54.4132 74.9 54.5652 75.052C54.7172 75.204 54.9852 75.28 55.3692 75.28H56.1372V76H55.2372C54.6452 76 54.2052 75.864 53.9172 75.592C53.6292 75.312 53.4852 74.856 53.4852 74.224V70.156H52.5732V69.448H53.4852V67.804H54.3372V69.448H56.1372V70.156H54.3372Z" fill="#97A6C0"/>
</svg>
