<svg width="64" height="86" viewBox="0 0 64 86" fill="none" xmlns="http://www.w3.org/2000/svg">
<path d="M22.504 81.084C21.952 81.084 21.464 80.988 21.04 80.796C20.624 80.604 20.296 80.336 20.056 79.992C19.816 79.648 19.688 79.264 19.672 78.84H20.56C20.6 79.248 20.78 79.608 21.1 79.92C21.42 80.224 21.888 80.376 22.504 80.376C23.072 80.376 23.52 80.232 23.848 79.944C24.184 79.648 24.352 79.276 24.352 78.828C24.352 78.468 24.26 78.18 24.076 77.964C23.892 77.74 23.664 77.576 23.392 77.472C23.12 77.36 22.744 77.24 22.264 77.112C21.704 76.96 21.26 76.812 20.932 76.668C20.604 76.524 20.324 76.3 20.092 75.996C19.86 75.692 19.744 75.28 19.744 74.76C19.744 74.328 19.856 73.944 20.08 73.608C20.304 73.264 20.62 72.996 21.028 72.804C21.436 72.612 21.904 72.516 22.432 72.516C23.208 72.516 23.832 72.708 24.304 73.092C24.784 73.468 25.06 73.956 25.132 74.556H24.22C24.164 74.212 23.976 73.908 23.656 73.644C23.336 73.372 22.904 73.236 22.36 73.236C21.856 73.236 21.436 73.372 21.1 73.644C20.764 73.908 20.596 74.272 20.596 74.736C20.596 75.088 20.688 75.372 20.872 75.588C21.056 75.804 21.284 75.968 21.556 76.08C21.836 76.192 22.212 76.312 22.684 76.44C23.228 76.592 23.668 76.744 24.004 76.896C24.34 77.04 24.624 77.264 24.856 77.568C25.088 77.872 25.204 78.28 25.204 78.792C25.204 79.184 25.1 79.556 24.892 79.908C24.684 80.26 24.376 80.544 23.968 80.76C23.56 80.976 23.072 81.084 22.504 81.084ZM30.3672 81L27.6672 78.06V81H26.8272V72.12H27.6672V77.376L30.3072 74.448H31.4832L28.3752 77.712L31.5072 81H30.3672ZM33.0128 73.212C32.8448 73.212 32.7008 73.152 32.5808 73.032C32.4608 72.912 32.4008 72.764 32.4008 72.588C32.4008 72.412 32.4608 72.268 32.5808 72.156C32.7008 72.036 32.8448 71.976 33.0128 71.976C33.1808 71.976 33.3248 72.036 33.4448 72.156C33.5648 72.268 33.6248 72.412 33.6248 72.588C33.6248 72.764 33.5648 72.912 33.4448 73.032C33.3248 73.152 33.1808 73.212 33.0128 73.212ZM33.4328 74.448V81H32.5928V74.448H33.4328ZM36.175 72.12V81H35.335V72.12H36.175ZM38.9172 72.12V81H38.0772V72.12H38.9172ZM43.0754 81.096C42.3234 81.096 41.7074 80.924 41.2274 80.58C40.7554 80.228 40.4914 79.752 40.4354 79.152H41.2994C41.3394 79.52 41.5114 79.82 41.8154 80.052C42.1274 80.276 42.5434 80.388 43.0634 80.388C43.5194 80.388 43.8754 80.28 44.1314 80.064C44.3954 79.848 44.5274 79.58 44.5274 79.26C44.5274 79.036 44.4554 78.852 44.3114 78.708C44.1674 78.564 43.9834 78.452 43.7594 78.372C43.5434 78.284 43.2474 78.192 42.8714 78.096C42.3834 77.968 41.9874 77.84 41.6834 77.712C41.3794 77.584 41.1194 77.396 40.9034 77.148C40.6954 76.892 40.5914 76.552 40.5914 76.128C40.5914 75.808 40.6874 75.512 40.8794 75.24C41.0714 74.968 41.3434 74.752 41.6954 74.592C42.0474 74.432 42.4474 74.352 42.8954 74.352C43.5994 74.352 44.1674 74.532 44.5994 74.892C45.0314 75.244 45.2634 75.732 45.2954 76.356H44.4554C44.4314 75.972 44.2794 75.664 43.9994 75.432C43.7274 75.192 43.3514 75.072 42.8714 75.072C42.4474 75.072 42.1034 75.172 41.8394 75.372C41.5754 75.572 41.4434 75.82 41.4434 76.116C41.4434 76.372 41.5194 76.584 41.6714 76.752C41.8314 76.912 42.0274 77.04 42.2594 77.136C42.4914 77.224 42.8034 77.324 43.1954 77.436C43.6674 77.564 44.0434 77.688 44.3234 77.808C44.6034 77.928 44.8434 78.104 45.0434 78.336C45.2434 78.568 45.3474 78.876 45.3554 79.26C45.3554 79.612 45.2594 79.928 45.0674 80.208C44.8754 80.48 44.6074 80.696 44.2634 80.856C43.9194 81.016 43.5234 81.096 43.0754 81.096Z" fill="#97A6C0"/>
<path d="M32 44.1825C31.8483 44.1827 31.6991 44.143 31.5676 44.0674L21.7661 38.4086C21.6345 38.3326 21.5252 38.2233 21.4493 38.0917C21.3734 37.9601 21.3335 37.8107 21.3336 37.6588V26.3412C21.3335 26.1892 21.3734 26.0399 21.4493 25.9083C21.5252 25.7766 21.6345 25.6673 21.7661 25.5913L31.5676 19.9325C31.699 19.8566 31.8482 19.8167 32 19.8167C32.1518 19.8167 32.301 19.8566 32.4324 19.9325L42.2339 25.5913C42.3655 25.6673 42.4748 25.7766 42.5507 25.9083C42.6266 26.0399 42.6665 26.1892 42.6664 26.3412V37.6588C42.6665 37.8107 42.6266 37.9601 42.5507 38.0917C42.4748 38.2233 42.3655 38.3326 42.2339 38.4086L32.4324 44.0674C32.3009 44.143 32.1517 44.1827 32 44.1825ZM23.0634 37.1598L32 42.3195L40.9366 37.1598V26.8402L32 21.6804L23.0634 26.8402V37.1598Z" fill="#97A6C0"/>
<path d="M51.6039 44.1825C51.4521 44.1827 51.303 44.143 51.1715 44.0674L41.3691 38.4086C41.2375 38.3326 41.1282 38.2233 41.0523 38.0917C40.9764 37.9601 40.9365 37.8107 40.9366 37.6588V26.3412C40.9365 26.1892 40.9764 26.0399 41.0523 25.9083C41.1282 25.7766 41.2375 25.6673 41.3691 25.5913L51.1715 19.9325C51.3029 19.8566 51.4521 19.8167 51.6039 19.8167C51.7557 19.8167 51.9048 19.8566 52.0363 19.9325L61.8378 25.5913C61.9694 25.6673 62.0787 25.7766 62.1546 25.9083C62.2305 26.0399 62.2704 26.1892 62.2703 26.3412V37.6588C62.2704 37.8107 62.2305 37.9601 62.1546 38.0917C62.0787 38.2233 61.9694 38.3326 61.8378 38.4086L52.0363 44.0674C51.9048 44.143 51.7556 44.1827 51.6039 44.1825ZM42.6664 37.1598L51.6039 42.3195L60.5405 37.1598V26.8402L51.6039 21.6804L42.6664 26.8402V37.1598Z" fill="#97A6C0"/>
<path d="M12.3961 44.1825C12.2444 44.1827 12.0952 44.143 11.9637 44.0674L2.16217 38.4086C2.03057 38.3326 1.92131 38.2233 1.8454 38.0917C1.76948 37.9601 1.72959 37.8107 1.72974 37.6588V26.3412C1.72959 26.1892 1.76948 26.0399 1.8454 25.9083C1.92131 25.7766 2.03057 25.6673 2.16217 25.5913L11.9637 19.9325C12.0952 19.8566 12.2443 19.8167 12.3961 19.8167C12.5479 19.8167 12.6971 19.8566 12.8285 19.9325L22.6309 25.5913C22.7625 25.6673 22.8718 25.7766 22.9477 25.9083C23.0236 26.0399 23.0635 26.1892 23.0634 26.3412V37.6588C23.0635 37.8107 23.0236 37.9601 22.9477 38.0917C22.8718 38.2233 22.7625 38.3326 22.6309 38.4086L12.8285 44.0674C12.697 44.143 12.5479 44.1827 12.3961 44.1825ZM3.45947 37.1598L12.3961 42.3195L21.3336 37.1598V26.8402L12.3961 21.6804L3.45947 26.8402V37.1598Z" fill="#97A6C0"/>
<path d="M41.8015 27.2061C41.6496 27.2066 41.5004 27.1666 41.3691 27.0903L31.5676 21.4314C31.4361 21.3555 31.3269 21.2464 31.251 21.1149C31.1751 20.9834 31.1351 20.8343 31.1351 20.6825V9.36399C31.1351 9.21217 31.1751 9.06304 31.251 8.93156C31.3269 8.80009 31.4361 8.69092 31.5676 8.61501L41.3691 2.9562C41.5006 2.88029 41.6497 2.84033 41.8015 2.84033C41.9533 2.84033 42.1025 2.88029 42.2339 2.9562L52.0363 8.61501C52.1678 8.69092 52.277 8.80009 52.3529 8.93156C52.4288 9.06304 52.4687 9.21217 52.4687 9.36399V20.6825C52.4687 20.8343 52.4288 20.9834 52.3529 21.1149C52.277 21.2464 52.1678 21.3555 52.0363 21.4314L42.2339 27.0903C42.1026 27.1666 41.9534 27.2066 41.8015 27.2061ZM32.8649 20.1834L41.8015 25.3406L50.739 20.1817V9.85955L41.8015 4.70409L32.8649 9.85955V20.1834Z" fill="#97A6C0"/>
<path d="M22.1985 27.2061C22.0466 27.2066 21.8974 27.1666 21.7661 27.0903L11.9637 21.4314C11.8322 21.3555 11.723 21.2464 11.6471 21.1149C11.5712 20.9834 11.5312 20.8343 11.5312 20.6825V9.36399C11.5312 9.21217 11.5712 9.06304 11.6471 8.93156C11.723 8.80009 11.8322 8.69092 11.9637 8.61501L21.7661 2.9562C21.8975 2.88029 22.0467 2.84033 22.1985 2.84033C22.3503 2.84033 22.4994 2.88029 22.6309 2.9562L32.4324 8.61501C32.5639 8.69092 32.6731 8.80009 32.749 8.93156C32.8249 9.06304 32.8649 9.21217 32.8649 9.36399V20.6825C32.8649 20.8343 32.8249 20.9834 32.749 21.1149C32.6731 21.2464 32.5639 21.3555 32.4324 21.4314L22.6309 27.0903C22.4996 27.1666 22.3504 27.2066 22.1985 27.2061ZM13.261 20.1834L22.1985 25.3406L31.1351 20.1834V9.85955L22.1985 4.70409L13.261 9.85955V20.1834Z" fill="#97A6C0"/>
<path d="M41.8015 61.1598C41.6497 61.1597 41.5005 61.1198 41.3691 61.0439L31.5676 55.3851C31.4361 55.3091 31.3269 55.2 31.251 55.0685C31.1751 54.937 31.1351 54.7879 31.1351 54.6361V43.3176C31.1351 43.1658 31.1751 43.0166 31.251 42.8852C31.3269 42.7537 31.4361 42.6445 31.5676 42.5686L41.3691 36.9098C41.5006 36.8339 41.6497 36.7939 41.8015 36.7939C41.9533 36.7939 42.1025 36.8339 42.2339 36.9098L52.0363 42.5686C52.1678 42.6445 52.277 42.7537 52.3529 42.8852C52.4288 43.0166 52.4687 43.1658 52.4687 43.3176V54.6361C52.4687 54.7879 52.4288 54.937 52.3529 55.0685C52.277 55.2 52.1678 55.3091 52.0363 55.3851L42.2339 61.0439C42.1025 61.1198 41.9533 61.1597 41.8015 61.1598ZM32.8649 54.1405L41.8015 59.2994L50.739 54.1405V43.8166L41.8015 38.6594L32.8649 43.8166V54.1405Z" fill="#97A6C0"/>
<path d="M22.1985 61.1598C22.0467 61.1597 21.8975 61.1198 21.7661 61.0439L11.9637 55.3851C11.8322 55.3091 11.723 55.2 11.6471 55.0685C11.5712 54.937 11.5312 54.7879 11.5312 54.6361V43.3176C11.5312 43.1658 11.5712 43.0166 11.6471 42.8852C11.723 42.7537 11.8322 42.6445 11.9637 42.5686L21.7661 36.9098C21.8975 36.8339 22.0467 36.7939 22.1985 36.7939C22.3503 36.7939 22.4994 36.8339 22.6309 36.9098L32.4324 42.5686C32.5639 42.6445 32.6731 42.7537 32.749 42.8852C32.8249 43.0166 32.8649 43.1658 32.8649 43.3176V54.6361C32.8649 54.7879 32.8249 54.937 32.749 55.0685C32.6731 55.2 32.5639 55.3091 32.4324 55.3851L22.6309 61.0439C22.4994 61.1198 22.3503 61.1597 22.1985 61.1598ZM13.261 54.1405L22.1985 59.2994L31.1351 54.1405V43.8166L22.1985 38.6594L13.261 43.8166V54.1405Z" fill="#97A6C0"/>
</svg>
