<svg width="317" height="97" viewBox="0 0 317 97" fill="none" xmlns="http://www.w3.org/2000/svg">
<path d="M178.87 59.3307C179.936 58.921 180.99 58.5341 182.012 58.1131C185.143 56.85 188.016 55.3707 190.072 52.7194C190.588 52.048 191.061 51.3084 191.46 50.4777C191.782 49.8291 192.062 49.1236 192.31 48.3498C192.041 48.5774 191.761 48.7936 191.46 48.9984C191.018 49.3056 190.556 49.5901 190.072 49.8632C187.812 51.1149 185.014 52.0821 182.012 52.9925C180.979 53.2997 179.925 53.6069 178.87 53.9256C178.192 54.119 177.515 54.3238 176.837 54.5287C177.418 53.4476 178.096 52.2983 178.87 51.1377C179.785 49.7722 180.829 48.4067 182.012 47.1095C183.271 45.7326 184.691 44.4354 186.284 43.3316C184.874 43.855 183.443 44.6743 182.012 45.6984C180.958 46.4608 179.903 47.3257 178.87 48.2701C178.085 48.987 177.299 49.7494 176.535 50.5346C174.728 52.4008 173.028 54.4035 171.489 56.3152L171.177 56.4403C167.368 57.9083 163.925 59.7972 161.633 62.6306C160.847 63.5978 160.202 64.6675 159.717 65.8737C159.642 61.8113 160.374 58.4089 161.633 55.5186C163.731 50.7053 167.314 47.3257 171.177 44.7767C172.941 43.6161 174.771 42.6147 176.535 41.7385C177.332 41.3402 178.106 40.9761 178.87 40.6233C179.979 40.1113 181.033 39.6334 182.012 39.1668C185.542 37.5168 188.059 36.1286 188.059 34.2283C186.252 35.8213 184.164 36.5951 182.012 37.0844C180.968 37.3234 179.903 37.4941 178.87 37.6648C178.074 37.7899 177.299 37.9151 176.535 38.063C175.675 38.2337 174.835 38.4385 174.05 38.7116C176.116 32.1573 176.847 29.1873 174.9 22.9971C174.9 30.9283 173.974 35.1158 171.177 38.5751C170.51 39.3944 169.746 40.1682 168.853 40.9533C166.905 42.6488 164.14 44.2305 161.633 46.3926C160.632 47.2574 159.674 48.2132 158.813 49.3056C158.652 49.5105 158.491 49.7267 158.34 49.9429C158.34 48.5887 158.512 47.3029 158.813 46.0512C159.405 43.5705 160.481 41.2492 161.633 38.9165C164.506 33.0562 167.766 27.1163 164.71 18.2975C164.344 23.6457 163.096 27.4122 161.633 30.4845C160.718 32.3962 159.728 34.0348 158.813 35.6165C157.737 37.4827 156.78 39.2692 156.21 41.3175L155.973 41.1126C154.746 40.0658 153.702 39.0416 152.842 38.0403C147.462 31.8273 148.473 26.2287 149.624 17.6261C142.835 39.1554 152.809 35.6165 152.809 52.2073C149.549 47.7239 146.525 44.5492 144.083 41.3516C140.371 36.5041 137.96 31.5883 137.96 21.8933C135.884 32.8173 139.693 38.8368 144.083 45.3457C147.462 50.3411 151.174 55.6097 152.842 63.5864C153.154 65.0771 153.39 66.6588 153.552 68.3429C153.315 68.0585 153.078 67.774 152.842 67.5009C149.958 64.1213 147.117 61.561 144.083 59.3079C143.588 58.9438 143.093 58.5796 142.587 58.2269C139.779 52.5487 139.305 45.9488 134.496 40.4982C134.141 40.0999 133.764 39.7016 133.355 39.3147C133.775 39.9747 134.151 40.6347 134.496 41.2947C137.057 46.256 137.53 51.3197 139.209 55.9624C137.713 55.0066 136.153 54.0507 134.496 53.038C133.344 52.3325 132.15 51.6042 130.902 50.8304C128.718 49.4763 126.372 47.997 123.832 46.2902C123.112 45.8009 122.38 45.3002 121.627 44.7767C121.659 46.1764 122.509 47.4963 123.832 48.7822C125.629 50.546 128.298 52.2642 130.902 54.0962C132.15 54.9724 133.377 55.8714 134.496 56.8272C136.002 58.1017 137.315 59.4558 138.165 60.9351C137.487 60.6961 136.196 60.3775 134.496 60.0362C133.43 59.82 132.215 59.6038 130.902 59.3876C128.739 59.0462 126.307 58.7389 123.832 58.5341C122.843 58.4545 121.853 58.3862 120.873 58.3407C119.905 58.2952 118.937 58.2724 118.001 58.2838C114.062 58.3065 110.544 58.7845 108.542 60.0703C108.446 60.1386 108.349 60.1955 108.252 60.2637H108.542C111.77 60.2751 114.945 60.4117 118.001 60.7303C118.969 60.8327 119.927 60.9465 120.873 61.083C121.874 61.2196 122.864 61.3903 123.832 61.5723C126.307 62.0389 128.675 62.642 130.902 63.4044C132.15 63.8254 133.344 64.3033 134.496 64.8268C138.294 66.5678 141.554 68.8664 144.094 71.8591C146.267 74.4422 147.903 77.5259 148.871 81.2127C149.517 83.6934 149.721 93.8891 147.709 96.9273H164.925C163.29 94.5377 161.988 87.733 161.643 83.6706C161.547 82.51 161.525 81.5769 161.59 81.0307C161.611 80.9055 161.622 80.7803 161.643 80.6552C162.988 70.8691 166.722 65.9988 171.188 63.0403C172.898 61.9023 174.717 61.0375 176.546 60.2865C177.321 59.9224 178.096 59.6265 178.87 59.3307Z" fill="#929292"/>
<path d="M144.094 30.8148C143.674 30.4734 143.201 30.2003 142.695 30.0068C142.039 31.3382 141.909 32.9427 142.458 34.4447C142.802 35.3892 143.373 36.163 144.083 36.7433C144.503 37.0847 144.976 37.3578 145.471 37.5512C146.127 36.2312 146.256 34.6154 145.708 33.1133C145.363 32.1689 144.793 31.3951 144.094 30.8148Z" fill="#72D2D0"/>
<path d="M157.124 8.04505C157.845 7.52161 158.426 6.80472 158.824 5.96267C159.061 5.42785 159.233 4.84751 159.298 4.23304C159.416 3.17478 159.233 2.16204 158.824 1.26308C158.609 0.79654 158.34 0.375512 158.017 0C157.049 0.705507 156.328 1.74101 155.994 2.98133C155.919 3.25443 155.865 3.52753 155.833 3.81201C155.758 4.5289 155.822 5.22302 155.994 5.88301C156.21 6.69093 156.597 7.43058 157.124 8.04505Z" fill="#72D2D0"/>
<path d="M170.402 10.5258C171.058 9.20584 171.198 7.59 170.639 6.08795C170.079 4.58591 168.949 3.49351 167.615 2.98145C166.959 4.31281 166.83 5.91727 167.389 7.43069C167.949 8.93274 169.068 10.0251 170.402 10.5258Z" fill="#72D2D0"/>
<path d="M147.731 8.96678C147.806 7.36232 147.203 5.88303 146.181 4.84753C145.073 5.76924 144.33 7.19163 144.266 8.78471C144.18 10.4119 144.793 11.8798 145.815 12.9267C146.924 12.005 147.666 10.5826 147.731 8.96678Z" fill="#72D2D0"/>
<path d="M134.496 14.2468C135.109 15.305 136.045 16.0674 137.1 16.4771C137.756 15.1571 137.885 13.5413 137.336 12.0392C136.809 10.5941 135.744 9.54719 134.496 9.01237C134.442 8.98961 134.377 8.96685 134.313 8.94409C133.656 10.2527 133.527 11.8685 134.076 13.382C134.205 13.6778 134.345 13.9737 134.496 14.2468Z" fill="#72D2D0"/>
<path d="M191.47 24.8291C190.911 25.7167 190.62 26.7636 190.62 27.7991C190.9 27.8446 191.18 27.856 191.47 27.8446C192.611 27.8105 193.741 27.3781 194.655 26.5246C195.807 25.4778 196.388 23.9757 196.388 22.485C194.989 22.2802 193.515 22.7012 192.363 23.7595C192.019 24.0781 191.718 24.4423 191.47 24.8291Z" fill="#72D2D0"/>
<path d="M199.088 37.9723C199.551 38.3478 200.078 38.6323 200.638 38.8144C201.445 39.0761 202.316 39.133 203.188 38.9395C204.684 38.6209 205.889 37.6196 206.577 36.3223C205.458 35.4234 203.984 35.0137 202.478 35.3437C201.8 35.4916 201.176 35.7761 200.627 36.1744C199.992 36.6409 199.465 37.2668 199.088 37.9723Z" fill="#72D2D0"/>
<path d="M190.082 20.2433C190.556 20.1864 191.018 20.0726 191.47 19.8678C191.664 19.7881 191.847 19.6857 192.03 19.5833C193.364 18.7868 194.214 17.4554 194.505 15.9875C193.536 15.6234 192.482 15.5665 191.47 15.8623C191.083 15.9761 190.696 16.1354 190.33 16.363C190.244 16.4085 190.158 16.4654 190.082 16.5223C188.888 17.3302 188.113 18.5819 187.844 19.9588C188.554 20.2205 189.318 20.3229 190.082 20.2433Z" fill="#72D2D0"/>
<path d="M176.664 12.6647C177.514 12.3347 178.289 11.7543 178.87 10.9806C179.193 10.5595 179.462 10.0702 179.656 9.53541C180.194 8.03336 180.054 6.41752 179.397 5.09753C179.225 5.16581 179.042 5.24546 178.881 5.3365C177.88 5.85994 177.052 6.73613 176.546 7.86267C176.492 7.97646 176.449 8.10163 176.406 8.21543C175.9 9.62644 175.987 11.1285 176.546 12.403C176.578 12.494 176.621 12.585 176.664 12.6647Z" fill="#72D2D0"/>
<path d="M116.946 24.374C117.28 24.6357 117.635 24.8633 118.001 25.0226C118.915 25.4436 119.916 25.5574 120.873 25.3981C120.927 25.3868 120.981 25.3754 121.046 25.364C121.024 24.9999 120.97 24.6357 120.873 24.283C120.594 23.1906 119.98 22.1778 119.066 21.4382C118.732 21.1651 118.377 20.9489 118.001 20.7782C117.032 20.3344 115.967 20.2206 114.966 20.4482C115.052 21.9275 115.73 23.384 116.946 24.374Z" fill="#72D2D0"/>
<path d="M177.773 66.6816C177.396 66.2947 176.987 65.9648 176.535 65.7258C175.696 65.2592 174.749 65.0544 173.824 65.1227C173.727 66.6247 174.211 68.1496 175.298 69.2875C175.675 69.6857 176.083 70.0044 176.525 70.2433C177.256 70.653 178.052 70.8578 178.859 70.8578C178.989 70.8578 179.107 70.8578 179.236 70.8464C179.29 70.0157 179.161 69.1851 178.859 68.4113C178.623 67.7854 178.257 67.1937 177.773 66.6816Z" fill="#72D2D0"/>
<path d="M123.832 64.3829C123.639 64.4284 123.445 64.4853 123.241 64.565C122.251 64.9405 121.444 65.6119 120.863 66.4426C120.604 66.8181 120.389 67.2391 120.228 67.6715C120.432 67.7967 120.647 67.8991 120.863 67.9901C121.788 68.3656 122.81 68.4681 123.822 68.2291C124.015 68.1836 124.22 68.1153 124.413 68.047C125.845 67.5008 126.91 66.3401 127.426 64.9405C126.372 64.3033 125.091 64.0871 123.832 64.3829Z" fill="#72D2D0"/>
<path d="M198.174 63.9622C196.797 63.268 195.269 63.2908 193.967 63.8939C194.354 65.339 195.301 66.6021 196.678 67.2962C197.969 67.9448 199.39 67.9676 200.627 67.4783C200.713 67.4442 200.799 67.41 200.885 67.3759C200.821 67.1256 200.735 66.8752 200.627 66.6362C200.164 65.4983 199.314 64.5425 198.174 63.9622Z" fill="#72D2D0"/>
<path d="M200.638 48.2815C200.412 48.2019 200.175 48.145 199.928 48.0994C198.421 47.8491 196.958 48.327 195.871 49.2829C196.635 50.5573 197.873 51.4791 199.39 51.7408C199.809 51.8091 200.229 51.8204 200.638 51.7863C201.682 51.6839 202.661 51.2401 203.435 50.5573C202.811 49.4991 201.832 48.6798 200.638 48.2815Z" fill="#72D2D0"/>
<path d="M202.768 42.1596C201.983 42.2392 201.262 42.5123 200.638 42.9106C200.046 43.2975 199.53 43.7982 199.131 44.3899C199.573 44.8337 200.078 45.1864 200.638 45.4368C201.402 45.7782 202.241 45.9261 203.113 45.8351C204.63 45.6757 205.932 44.8109 206.75 43.5934C205.727 42.5579 204.286 42.0003 202.768 42.1596Z" fill="#72D2D0"/>
<path d="M121.046 19.6519C121.573 21.0629 122.606 22.1212 123.843 22.656C123.919 22.6901 123.994 22.7129 124.069 22.747C124.726 21.427 124.855 19.8112 124.306 18.3091C124.177 17.9678 124.026 17.6378 123.843 17.3419C123.23 16.3292 122.315 15.5895 121.293 15.2026C121.121 15.5554 120.981 15.9309 120.884 16.3292C120.658 17.2167 120.648 18.1726 120.884 19.0943C120.917 19.2878 120.97 19.4698 121.046 19.6519Z" fill="#72D2D0"/>
<path d="M108.542 55.8376C108.65 55.6896 108.747 55.5417 108.833 55.3824C108.736 55.3028 108.639 55.2231 108.542 55.1548C107.477 54.3697 106.132 54.0283 104.755 54.29C103.248 54.5859 102.022 55.5417 101.301 56.8389C102.409 57.772 103.873 58.2044 105.379 57.92C106.702 57.6582 107.8 56.8845 108.542 55.8376Z" fill="#72D2D0"/>
<path d="M106.735 50.091C107.37 50.1479 107.972 50.0796 108.542 49.9089C109.36 49.6586 110.092 49.2034 110.684 48.5889C110.146 47.8151 109.403 47.1893 108.542 46.8024C108.069 46.5976 107.552 46.461 107.004 46.4155C105.497 46.279 104.066 46.8821 103.044 47.9289C103.894 49.1237 105.218 49.9544 106.735 50.091Z" fill="#72D2D0"/>
<path d="M157.813 21.552C157.156 21.8934 156.543 22.3144 155.984 22.8037C154.585 24.0327 153.52 25.7168 153.014 27.7081C152.949 27.9585 152.895 28.2088 152.852 28.4591C152.648 29.6426 152.659 30.826 152.852 31.9525C153.078 33.2611 153.563 34.4901 154.251 35.5825C154.865 35.2639 155.446 34.877 155.984 34.4104C157.243 33.3408 158.243 31.907 158.824 30.2115C158.91 29.9498 158.996 29.6881 159.061 29.4264C159.567 27.4464 159.438 25.4323 158.824 23.6458C158.566 22.9061 158.232 22.2006 157.813 21.552Z" fill="#343A78"/>
<path d="M152.852 18.9007C153.401 19.3787 153.993 19.7769 154.628 20.1069C155.273 19.0828 155.736 17.9335 155.984 16.7273C156.242 15.4415 156.253 14.0874 155.984 12.7219C155.951 12.5626 155.919 12.3919 155.876 12.2326C155.359 10.2071 154.273 8.51158 152.852 7.27125C152.304 6.79333 151.701 6.39506 151.077 6.06506C149.667 8.29538 149.129 11.1288 149.84 13.9394C150.345 15.9649 151.432 17.6718 152.852 18.9007Z" fill="#343A78"/>
<path d="M158.62 12.2326C158.125 14.1784 158.232 16.1584 158.824 17.9335C159.082 18.7073 159.427 19.4356 159.857 20.1069C160.492 19.7769 161.084 19.3787 161.633 18.9007C163.053 17.6718 164.14 15.9649 164.656 13.9394C165.366 11.1402 164.828 8.29538 163.419 6.06506C162.784 6.39506 162.192 6.79333 161.633 7.27125C160.374 8.36365 159.384 9.8088 158.813 11.5271C158.749 11.766 158.684 12.005 158.62 12.2326Z" fill="#343A78"/>
<path d="M143.308 28.1974C143.588 27.9243 143.846 27.6398 144.094 27.3326C145.482 25.5915 146.299 23.3157 146.224 20.8464C146.16 18.5934 145.374 16.5451 144.094 14.9407C143.728 14.4855 143.33 14.0645 142.889 13.689C141.027 15.5324 139.897 18.161 139.973 21.0513C140.059 23.9416 141.339 26.5019 143.308 28.1974Z" fill="#343A78"/>
<path d="M191.47 32.4306C190.889 33.4206 190.48 34.513 190.265 35.6509C190.663 35.7989 191.061 35.9127 191.47 36.0037C193.558 36.4475 195.796 36.1175 197.776 34.9227C198.938 34.2172 199.906 33.2841 200.638 32.2031C201.402 31.0765 201.929 29.7907 202.187 28.4479C201.682 28.2659 201.165 28.1179 200.638 28.0383C198.658 27.6969 196.56 28.0497 194.666 29.1876C193.321 29.9841 192.234 31.122 191.47 32.4306Z" fill="#343A78"/>
<path d="M191.47 40.5099C191.191 40.6464 190.911 40.7944 190.642 40.9537C190.448 41.0675 190.254 41.1926 190.082 41.3178C188.027 42.7743 186.693 45.0046 186.241 47.417C187.468 47.8722 188.78 48.0429 190.082 47.9177C190.545 47.8722 191.018 47.7925 191.47 47.6674C192.245 47.4512 193.009 47.1325 193.741 46.6888C196.129 45.255 197.657 42.8426 198.152 40.214C196.033 39.4289 193.644 39.4857 191.47 40.5099Z" fill="#343A78"/>
<path d="M168.164 18.5139C167.454 21.3132 167.992 24.158 169.412 26.3883C170.047 26.0583 170.639 25.66 171.188 25.1821C172.619 23.9531 173.695 22.2463 174.211 20.2322C174.921 17.4329 174.383 14.5881 172.974 12.3578C172.339 12.6878 171.736 13.0974 171.188 13.564C169.756 14.7929 168.68 16.4884 168.164 18.5139Z" fill="#343A78"/>
<path d="M178.87 15.7599C177.762 17.8878 177.504 20.3229 177.999 22.5646C178.289 22.5419 178.58 22.4964 178.87 22.4395C179.979 22.2119 181.055 21.7795 182.012 21.1309C182.97 20.4936 183.841 19.6516 184.541 18.6161C186.144 16.272 186.607 13.4158 186.036 10.7872C184.616 10.9238 183.239 11.4131 182.012 12.221C181.055 12.8582 180.183 13.7003 179.473 14.7358C179.258 15.0658 179.053 15.4072 178.87 15.7599Z" fill="#343A78"/>
<path d="M182.023 25.8533C181.765 26.0809 181.517 26.3084 181.281 26.5702C180.054 27.8674 179.258 29.4491 178.881 31.1104C178.666 32.0777 178.59 33.0677 178.655 34.0463C178.73 34.0463 178.806 34.0576 178.881 34.0576C179.946 34.1032 181.012 33.9552 182.023 33.6139C183.379 33.1587 184.638 32.3622 185.714 31.2242C187.651 29.176 188.522 26.4222 188.339 23.7368C186.112 23.5888 183.841 24.2943 182.023 25.8533Z" fill="#343A78"/>
<path d="M190.082 62.0161C188.565 60.8327 186.693 60.1272 184.67 60.1272C183.745 60.1272 182.851 60.2751 182.012 60.5368C180.85 60.9124 179.785 61.5268 178.87 62.3234C178.483 62.6647 178.117 63.0403 177.794 63.4385C178.128 63.8368 178.483 64.2123 178.87 64.5423C179.785 65.3388 180.85 65.9533 182.012 66.3174C182.851 66.5905 183.745 66.7271 184.67 66.7271C186.693 66.7271 188.565 66.033 190.082 64.8495C190.588 64.4513 191.061 64.0075 191.47 63.5068L191.535 63.4272L191.47 63.3475C191.051 62.8696 190.588 62.4144 190.082 62.0161Z" fill="#343A78"/>
<path d="M130.902 24.5332C132.01 25.25 133.237 25.7052 134.496 25.8759C134.689 25.8987 134.872 25.9214 135.066 25.9328C135.432 24.0097 135.26 21.9842 134.496 20.1408C134.205 19.4467 133.839 18.7753 133.387 18.1495C132.688 17.1709 131.838 16.3743 130.902 15.7598C129.632 14.9405 128.201 14.4626 126.738 14.3716C126.221 17.0002 126.748 19.8449 128.416 22.1435C129.116 23.1335 129.966 23.9301 130.902 24.5332Z" fill="#343A78"/>
<path d="M196.054 53.6979C194.257 54.0734 192.697 54.9723 191.47 56.224C190.943 56.7702 190.47 57.3847 190.082 58.0561C190.028 58.1585 189.975 58.2495 189.921 58.3519C189.975 58.3974 190.028 58.443 190.082 58.4885C190.523 58.8299 190.986 59.1257 191.47 59.3874C193.203 60.2864 195.215 60.6278 197.259 60.1953C198.507 59.9336 199.648 59.4216 200.638 58.7047C201.778 57.8854 202.715 56.8044 203.392 55.564C202.575 54.8927 201.639 54.3579 200.638 54.0165C199.207 53.493 197.636 53.3679 196.054 53.6979Z" fill="#343A78"/>
<path d="M118 64.3718C116.376 62.7788 114.202 61.8115 111.813 61.8115C110.662 61.8115 109.565 62.0391 108.542 62.4488C107.144 63.0177 105.906 63.9394 104.948 65.1115C105.917 66.2835 107.144 67.2052 108.542 67.7742C109.554 68.1952 110.662 68.4228 111.813 68.4228C114.202 68.4228 116.376 67.4442 118 65.8625C118.237 65.6235 118.474 65.3732 118.689 65.1115C118.474 64.8611 118.248 64.6108 118 64.3718Z" fill="#343A78"/>
<path d="M115.988 34.8769C116.634 35.3435 117.312 35.7076 118.011 35.9807C118.947 36.3448 119.916 36.5383 120.884 36.5724C121.745 36.5952 122.595 36.4927 123.424 36.2765C123.198 34.1828 122.326 32.1801 120.884 30.6211C120.475 30.1887 120.034 29.7904 119.539 29.4263C119.055 29.0735 118.538 28.7777 118.011 28.5273C116.117 27.6512 114.03 27.5032 112.104 28.0267C112.384 30.7008 113.729 33.2383 115.988 34.8769Z" fill="#343A78"/>
<path d="M123.832 39.3149C123.768 39.3263 123.714 39.349 123.65 39.3604C123.693 39.7359 123.746 40.1114 123.832 40.4756C124.327 42.7286 125.597 44.7996 127.534 46.2106C128.578 46.973 129.729 47.4737 130.902 47.7241C132.096 47.9744 133.323 47.9744 134.496 47.7241C134.657 47.6899 134.819 47.6558 134.969 47.6103C134.883 46.8706 134.722 46.1537 134.496 45.4596C133.872 43.6162 132.72 41.9548 131.085 40.76C131.02 40.7145 130.966 40.669 130.902 40.6349C128.739 39.1328 126.189 38.7345 123.832 39.3149Z" fill="#343A78"/>
<path d="M129.073 34.661C129.643 35.1844 130.256 35.6168 130.902 35.9696C132.032 36.584 133.258 36.9254 134.496 36.9937C135.098 37.0278 135.712 37.0051 136.303 36.914C136.293 34.8885 135.679 32.8631 134.496 31.1789C134.108 30.6327 133.667 30.1207 133.161 29.6655C132.462 29.0283 131.698 28.5162 130.902 28.1407C129.32 27.4011 127.588 27.1507 125.909 27.4011C125.931 30.0752 126.996 32.7493 129.073 34.661Z" fill="#343A78"/>
<path d="M119.249 49.4538C118.829 49.3514 118.42 49.2717 118.011 49.2262C115.773 48.9759 113.6 49.6245 111.846 50.9217C113.008 53.3113 115.095 55.1775 117.753 55.883C117.839 55.9058 117.925 55.9285 118.011 55.9513C118.98 56.1675 119.948 56.2244 120.884 56.122C121.928 56.0082 122.929 55.7123 123.843 55.2458C124.306 55.0068 124.747 54.7337 125.167 54.4265C124.812 53.6868 124.36 53.0041 123.843 52.3896C123.025 51.4338 122.025 50.6372 120.884 50.0683C120.357 49.8179 119.819 49.6131 119.249 49.4538Z" fill="#343A78"/>
<path d="M110.791 44.4126C112.986 46.0056 115.601 46.4494 118.001 45.8691C118.076 45.8463 118.14 45.8349 118.216 45.8122C118.173 45.3912 118.097 44.9701 118.001 44.5605C117.484 42.3643 116.236 40.3388 114.331 38.9619C112.567 37.6761 110.522 37.1413 108.542 37.2778C107.983 37.312 107.434 37.4144 106.896 37.5509C107.068 39.1668 107.628 40.7257 108.542 42.0684C109.145 42.9674 109.898 43.7526 110.791 44.4126Z" fill="#343A78"/>
<path d="M3.33984 84.866L3.48047 87.4324C3.48047 87.573 3.46875 87.8308 3.44531 88.2058C3.44531 88.5808 3.30469 88.9207 3.02344 89.2253C2.76562 89.5066 2.4375 89.6472 2.03906 89.6472C1.66406 89.6472 1.37109 89.6355 1.16016 89.6121C0.386719 89.6121 0 89.2722 0 88.5925C0 88.03 0.257812 85.7683 0.773438 81.8074C1.28906 77.823 1.61719 75.2566 1.75781 74.1082C1.89844 72.9597 2.01562 71.9988 2.10938 71.2253C2.22656 70.4285 2.30859 69.8425 2.35547 69.4675C2.40234 69.0925 2.47266 68.7175 2.56641 68.3425C2.66016 67.9675 2.80078 67.6628 2.98828 67.4285C3.33984 66.9832 4.01953 66.7605 5.02734 66.7605C6.71484 67.6042 8.44922 69.9949 10.2305 73.9324C11.4961 76.7449 12.3398 78.5261 12.7617 79.2761C13.1836 80.0261 13.5938 80.5417 13.9922 80.823L21.0234 68.5886C21.5156 68.2371 21.8906 68.0613 22.1484 68.0613C22.8984 68.0613 23.4727 68.4011 23.8711 69.0808C24.2695 69.7605 24.5977 70.5925 24.8555 71.5769C25.1367 72.5378 25.3711 73.6042 25.5586 74.7761C25.7695 75.948 25.9453 77.1785 26.0859 78.4675C26.25 79.7332 26.4023 80.9753 26.543 82.1941C26.8711 85.1238 27.1172 86.9636 27.2812 87.7136C27.4688 88.4636 27.5625 89.0027 27.5625 89.3308C27.5625 89.6355 27.457 89.9402 27.2461 90.2449C27.0352 90.5261 26.7422 90.6667 26.3672 90.6667C25.9922 90.6667 25.6172 90.5261 25.2422 90.2449C24.8672 89.9402 24.6328 89.5769 24.5391 89.155C24.4688 88.7097 24.3867 88.1355 24.293 87.4324C24.2227 86.7292 24.1289 85.9441 24.0117 85.0769C23.8945 84.1863 23.7773 83.2605 23.6602 82.2996C23.543 81.3152 23.4258 80.3777 23.3086 79.4871C23.1914 78.5964 23.0859 77.8113 22.9922 77.1316C22.8984 76.4285 22.8281 75.9011 22.7812 75.5496C22.7812 75.0808 22.7695 74.6472 22.7461 74.2488C22.7227 73.8503 22.6289 73.6042 22.4648 73.5105C22.3008 73.4167 22.043 73.5339 21.6914 73.8621C21.3633 74.1667 20.8945 74.7996 20.2852 75.7605C18.9727 77.7996 17.0742 81.2332 14.5898 86.0613C14.2617 86.6472 13.8281 86.7761 13.2891 86.448C12.6562 86.0964 12.1172 85.1941 11.6719 83.741L5.20312 69.9949C4.64062 71.1199 4.125 74.8464 3.65625 81.1746C3.58594 81.948 3.53906 82.6042 3.51562 83.1433C3.39844 83.7292 3.33984 84.3035 3.33984 84.866Z" fill="#72D2D0"/>
<path d="M47.1586 84.9011C45.4008 87.6667 43.057 89.3777 40.1273 90.0339C39.4477 90.1746 38.8266 90.2449 38.2641 90.2449C37.725 90.2449 37.268 90.2449 36.893 90.2449C36.5414 90.2214 36.143 90.1628 35.6977 90.0691C35.2523 89.9753 34.8422 89.823 34.4672 89.6121C33.6 89.1199 33.1664 88.4285 33.1664 87.5378C33.0727 87.116 33.0258 86.6472 33.0258 86.1316C33.0258 85.5925 33.143 84.8894 33.3773 84.0222C33.6117 83.155 34.0336 82.2175 34.643 81.2097C35.2758 80.2019 36.0375 79.2761 36.9281 78.4324C38.7797 76.6511 40.7836 75.5027 42.9398 74.9871C43.5727 74.8464 44.1469 74.7761 44.6625 74.7761C45.2016 74.7761 45.682 74.8113 46.1039 74.8816C47.4633 74.8816 48.3773 75.8074 48.8461 77.6589C49.1508 78.8308 49.3266 80.4714 49.3734 82.5808C49.4437 84.6667 49.5023 86.2839 49.5492 87.4324C49.6195 88.5574 49.7719 89.5886 50.0062 90.5261H47.932C47.8383 89.8933 47.768 89.3308 47.7211 88.8386C47.6742 88.3464 47.6273 87.8894 47.5805 87.4675C47.4633 86.4832 47.3227 85.6277 47.1586 84.9011ZM47.018 79.4519C47.018 78.0925 46.35 77.4128 45.0141 77.4128C44.85 77.3894 44.6859 77.3777 44.5219 77.3777C42.8109 77.3777 41.0062 78.198 39.1078 79.8386C38.2172 80.5886 37.4555 81.4324 36.8227 82.3699C35.8852 83.7058 35.4164 84.9011 35.4164 85.9558C35.4164 87.3386 36.2133 88.1589 37.807 88.4167C39.9164 88.3699 41.932 87.4089 43.8539 85.5339C44.6742 84.7136 45.3539 83.823 45.893 82.8621C46.643 81.573 47.018 80.4363 47.018 79.4519Z" fill="#72D2D0"/>
<path d="M72.5203 77.905C71.5359 77.2019 70.2703 76.8503 68.7234 76.8503C67.2703 76.8503 65.9227 77.1199 64.6805 77.6589C62.3367 78.6433 60.7313 79.9089 59.8641 81.4558C59.4891 82.1589 59.3016 82.9089 59.3016 83.7058C59.3016 83.8464 59.3016 84.2449 59.3016 84.9011C59.3016 85.5339 59.4188 86.4011 59.6531 87.5027C59.8875 88.5808 60.0047 89.6824 60.0047 90.8074C59.5125 90.8308 59.1141 90.8894 58.8094 90.9832C58.5047 91.0769 58.2469 91.1238 58.0359 91.1238C57.825 91.1238 57.6375 91.03 57.4734 90.8425C57.3328 90.655 57.1688 90.2917 56.9813 89.7527C56.9578 89.6121 56.9109 89.2136 56.8406 88.5574C56.7703 87.9011 56.6766 87.1042 56.5594 86.1667C56.4656 85.2292 56.3484 84.2097 56.2078 83.1082C56.0906 81.9832 55.9734 80.8816 55.8563 79.8035C55.5984 77.4597 55.3992 75.7371 55.2586 74.6355C55.2586 74.073 55.6688 73.7917 56.4891 73.7917C56.9813 73.7917 57.368 74.0027 57.6492 74.4246C57.9305 74.823 58.1531 75.2917 58.3172 75.8308C58.4813 76.3464 58.5867 76.8621 58.6336 77.3777C58.7039 77.8933 58.7625 78.2566 58.8094 78.4675C61.9031 75.7019 65.7469 74.3191 70.3406 74.3191C70.8562 74.3191 71.3953 74.3308 71.9578 74.3542C72.0984 74.3308 72.2742 74.3191 72.4852 74.3191C72.6961 74.3191 72.907 74.4597 73.118 74.741C73.3758 75.0691 73.5047 75.4675 73.5047 75.9363C73.5047 77.1082 73.1766 77.7644 72.5203 77.905Z" fill="#72D2D0"/>
<path d="M84.0305 87.3621L84.1008 81.7371C84.1008 80.8464 84.0188 80.0847 83.8547 79.4519H78.4055L78.3352 77.0261H83.6086V67.9558C83.6789 67.7449 83.8195 67.5339 84.0305 67.323C84.3586 66.9949 84.6281 66.8308 84.8391 66.8308C85.0734 66.8308 85.2727 66.8542 85.4367 66.9011C85.6008 66.948 85.7766 67.1121 85.9641 67.3933C86.3391 68.9402 86.5266 71.2722 86.5266 74.3894C86.5266 75.1628 86.5617 75.9246 86.632 76.6746C87.382 76.5808 88.132 76.5339 88.882 76.5339C88.882 76.5339 89.4914 76.5339 90.7102 76.5339C91.1555 76.5339 91.5656 76.5105 91.9406 76.4636L91.8352 78.9949L86.7023 78.8542L86.8781 90.9832C86.4563 91.1707 86.093 91.2644 85.7883 91.2644C84.6164 91.2644 84.0305 89.9636 84.0305 87.3621Z" fill="#72D2D0"/>
<path d="M100.041 74.2136C100.345 78.5964 100.603 83.6707 100.814 89.4363C100.673 90.1628 100.111 90.5261 99.1266 90.5261C98.8688 90.5261 98.5992 90.4792 98.318 90.3855C98.0602 90.2683 97.8961 90.116 97.8258 89.9285V74.2136H100.041ZM96.7711 69.4324C96.7711 68.6121 97.2516 68.2019 98.2125 68.2019C98.8453 68.2019 99.3609 68.3425 99.7594 68.6238C99.8297 68.8816 99.8648 69.1394 99.8648 69.3972C99.8648 69.6316 99.7711 69.866 99.5836 70.1003C99.3961 70.3347 99.1148 70.4519 98.7398 70.4519C98.3648 70.4519 97.9898 70.3699 97.6148 70.2058C97.2398 70.0183 96.9586 69.7605 96.7711 69.4324Z" fill="#72D2D0"/>
<path d="M119.637 83.0378C119.637 80.2488 119.484 78.198 119.18 76.8855C119.367 76.5339 119.086 76.3582 118.336 76.3582C117.539 76.3582 116.508 76.5574 115.242 76.9558C113.977 77.3542 112.945 77.7527 112.148 78.1511C110.25 79.0652 109.195 79.9558 108.984 80.823V90.3855H106.629C106.324 89.5886 106.172 87.3503 106.172 83.6707C106.172 80.3894 106.23 77.9753 106.348 76.4285C106.488 74.8816 106.594 74.0027 106.664 73.7917C107.273 73.3933 107.766 73.1941 108.141 73.1941C108.727 73.1941 109.02 73.8855 109.02 75.2683C109.02 75.8074 108.984 76.3347 108.914 76.8503C108.867 77.3425 108.844 77.6824 108.844 77.8699C112.641 75.0808 115.582 73.6863 117.668 73.6863C120.035 73.6863 121.383 75.5964 121.711 79.4167C121.852 80.7527 121.922 82.6042 121.922 84.9714L121.887 87.7488C121.887 88.78 121.91 89.7761 121.957 90.7371C121.723 90.8777 121.535 90.948 121.395 90.948C121.324 90.9246 121.172 90.8894 120.938 90.8425C120.703 90.7957 120.398 90.7605 120.023 90.7371C119.789 89.7996 119.66 88.8503 119.637 87.8894C119.613 86.905 119.602 86.0027 119.602 85.1824L119.637 83.0378Z" fill="#72D2D0"/>
<path d="M193.218 80.823C193.148 81.6199 193.113 82.7566 193.113 84.2332C193.113 85.6863 193.335 87.4558 193.781 89.5417L191.003 90.948L189.738 81.3855C188.917 81.2683 188.507 80.9871 188.507 80.5417C188.507 80.2136 188.695 79.8269 189.07 79.3816C189.468 78.9363 189.761 78.573 189.949 78.2917C190.136 77.9871 190.241 77.6589 190.265 77.3074C190.312 76.9324 190.37 76.2761 190.441 75.3386C190.511 74.4011 190.57 73.405 190.616 72.3503C190.687 71.2957 190.745 70.2996 190.792 69.3621C190.863 68.4246 190.898 67.7683 190.898 67.3933C191.413 66.8777 191.788 66.5613 192.023 66.4441C192.609 66.1394 193.007 66.2566 193.218 66.7957L193.007 77.8699C198.796 77.8699 202.277 77.4949 203.449 76.7449V65.6355C203.589 65.2371 204.245 65.0378 205.417 65.0378C205.675 65.0378 205.886 65.0496 206.05 65.073C206.05 65.5183 206.062 66.198 206.085 67.1121C206.132 68.0027 206.167 69.0222 206.191 70.1707C206.238 71.3191 206.284 72.5378 206.331 73.8269C206.378 75.0925 206.425 76.2996 206.472 77.448C206.542 79.8386 206.601 81.5964 206.648 82.7214C206.812 85.5339 207.386 87.8074 208.37 89.5417C207.316 89.9636 206.156 90.1746 204.89 90.1746C203.812 87.5027 203.238 83.9988 203.167 79.6628C201.62 79.616 200.566 79.5925 200.003 79.5925C199.441 79.5925 198.808 79.6277 198.105 79.698C196.652 79.7917 195.023 80.1667 193.218 80.823Z" fill="#72D2D0"/>
<path d="M214.994 84.0574C214.994 81.2917 216.189 79.0652 218.58 77.3777C220.478 76.0417 222.763 75.2332 225.435 74.9519C225.576 74.9519 225.904 74.9519 226.42 74.9519C226.935 74.9519 227.627 75.1042 228.494 75.4089C230.416 76.0652 231.728 77.2253 232.431 78.8894C232.713 79.5457 232.853 80.1082 232.853 80.5769C232.853 81.0222 232.841 81.3386 232.818 81.5261C232.818 84.4558 231.705 86.7644 229.478 88.4519C227.416 89.9988 224.838 90.7722 221.744 90.7722C219.517 90.7722 217.83 90.2566 216.681 89.2253C215.556 88.1941 214.994 86.4714 214.994 84.0574ZM217.42 84.9011C217.42 86.3542 217.806 87.3386 218.58 87.8542C219.166 88.2292 220.15 88.4167 221.533 88.4167C222.916 88.4167 224.134 88.3113 225.189 88.1003C226.244 87.8894 227.181 87.5261 228.002 87.0105C229.759 85.8855 230.638 84.1394 230.638 81.7722C230.638 80.366 230.263 79.2175 229.513 78.3269C228.693 77.366 227.615 76.8855 226.279 76.8855C225.365 77.0496 224.439 77.2253 223.502 77.4128C222.588 77.6003 221.72 77.9636 220.9 78.5027C219.119 79.6511 217.959 81.7839 217.42 84.9011Z" fill="#72D2D0"/>
<path d="M238.598 77.0964C238.551 75.8308 238.504 74.7058 238.457 73.7214C238.41 72.7136 238.375 71.9753 238.352 71.5066C238.352 71.0144 238.164 69.8308 237.789 67.9558C238 67.6746 238.199 67.405 238.387 67.1472C238.598 66.8894 238.891 66.7605 239.266 66.7605C240.086 66.7605 240.719 70.2175 241.164 77.1316C241.399 81.1394 241.516 85.1472 241.516 89.155C241.516 90.2332 240.766 90.7722 239.266 90.7722L238.984 90.7371C238.984 89.5183 238.949 87.9597 238.879 86.0613C238.809 84.1628 238.75 82.5105 238.703 81.1042C238.68 79.698 238.645 78.3621 238.598 77.0964Z" fill="#72D2D0"/>
<path d="M247.858 77.0964C247.811 75.8308 247.764 74.7058 247.717 73.7214C247.67 72.7136 247.635 71.9753 247.612 71.5066C247.612 71.0144 247.424 69.8308 247.049 67.9558C247.26 67.6746 247.459 67.405 247.647 67.1472C247.858 66.8894 248.151 66.7605 248.526 66.7605C249.346 66.7605 249.979 70.2175 250.424 77.1316C250.659 81.1394 250.776 85.1472 250.776 89.155C250.776 90.2332 250.026 90.7722 248.526 90.7722L248.245 90.7371C248.245 89.5183 248.209 87.9597 248.139 86.0613C248.069 84.1628 248.01 82.5105 247.963 81.1042C247.94 79.698 247.905 78.3621 247.858 77.0964Z" fill="#72D2D0"/>
<path d="M270.302 84.9011C268.544 87.6667 266.2 89.3777 263.27 90.0339C262.591 90.1746 261.97 90.2449 261.407 90.2449C260.868 90.2449 260.411 90.2449 260.036 90.2449C259.684 90.2214 259.286 90.1628 258.841 90.0691C258.395 89.9753 257.985 89.823 257.61 89.6121C256.743 89.1199 256.309 88.4285 256.309 87.5378C256.216 87.116 256.169 86.6472 256.169 86.1316C256.169 85.5925 256.286 84.8894 256.52 84.0222C256.755 83.155 257.177 82.2175 257.786 81.2097C258.419 80.2019 259.181 79.2761 260.071 78.4324C261.923 76.6511 263.927 75.5027 266.083 74.9871C266.716 74.8464 267.29 74.7761 267.806 74.7761C268.345 74.7761 268.825 74.8113 269.247 74.8816C270.606 74.8816 271.52 75.8074 271.989 77.6589C272.294 78.8308 272.47 80.4714 272.516 82.5808C272.587 84.6667 272.645 86.2839 272.692 87.4324C272.763 88.5574 272.915 89.5886 273.149 90.5261H271.075C270.981 89.8933 270.911 89.3308 270.864 88.8386C270.817 88.3464 270.77 87.8894 270.724 87.4675C270.606 86.4832 270.466 85.6277 270.302 84.9011ZM270.161 79.4519C270.161 78.0925 269.493 77.4128 268.157 77.4128C267.993 77.3894 267.829 77.3777 267.665 77.3777C265.954 77.3777 264.149 78.198 262.251 79.8386C261.36 80.5886 260.599 81.4324 259.966 82.3699C259.028 83.7058 258.559 84.9011 258.559 85.9558C258.559 87.3386 259.356 88.1589 260.95 88.4167C263.059 88.3699 265.075 87.4089 266.997 85.5339C267.817 84.7136 268.497 83.823 269.036 82.8621C269.786 81.573 270.161 80.4363 270.161 79.4519Z" fill="#72D2D0"/>
<path d="M292.113 83.0378C292.113 80.2488 291.96 78.198 291.656 76.8855C291.843 76.5339 291.562 76.3582 290.812 76.3582C290.015 76.3582 288.984 76.5574 287.718 76.9558C286.452 77.3542 285.421 77.7527 284.624 78.1511C282.726 79.0652 281.671 79.9558 281.46 80.823V90.3855H279.105C278.8 89.5886 278.648 87.3503 278.648 83.6707C278.648 80.3894 278.706 77.9753 278.824 76.4285C278.964 74.8816 279.07 74.0027 279.14 73.7917C279.749 73.3933 280.241 73.1941 280.616 73.1941C281.202 73.1941 281.495 73.8855 281.495 75.2683C281.495 75.8074 281.46 76.3347 281.39 76.8503C281.343 77.3425 281.32 77.6824 281.32 77.8699C285.116 75.0808 288.058 73.6863 290.144 73.6863C292.511 73.6863 293.859 75.5964 294.187 79.4167C294.327 80.7527 294.398 82.6042 294.398 84.9714L294.363 87.7488C294.363 88.78 294.386 89.7761 294.433 90.7371C294.199 90.8777 294.011 90.948 293.87 90.948C293.8 90.9246 293.648 90.8894 293.413 90.8425C293.179 90.7957 292.874 90.7605 292.499 90.7371C292.265 89.7996 292.136 88.8503 292.113 87.8894C292.089 86.905 292.077 86.0027 292.077 85.1824L292.113 83.0378Z" fill="#72D2D0"/>
<path d="M316.631 62.5066C316.631 64.7566 316.56 66.9597 316.42 69.116C316.302 71.2488 316.185 73.3464 316.068 75.4089C315.974 77.448 315.927 79.6277 315.927 81.948C315.927 84.2449 316.091 86.6824 316.42 89.2605C316.42 89.7996 316.314 90.1863 316.103 90.4207C315.916 90.655 315.588 90.7722 315.119 90.7722C314.017 90.7722 313.466 89.8582 313.466 88.03V86.8699C310.138 89.3542 307.326 90.5964 305.029 90.5964C304.115 90.5964 303.177 90.3738 302.216 89.9285C301.279 89.4832 300.388 88.5808 299.545 87.2214C299.427 86.6589 299.369 86.0847 299.369 85.4988C299.369 84.9128 299.474 84.2097 299.685 83.3894C299.92 82.5457 300.377 81.6785 301.056 80.7878C301.759 79.8972 302.603 79.1121 303.588 78.4324C305.744 76.9792 308.076 76.2527 310.584 76.2527C311.662 76.2527 312.693 76.4167 313.677 76.7449C313.677 76.323 313.701 75.5847 313.748 74.53C313.818 73.4753 313.888 72.3621 313.959 71.1902C314.099 68.1433 314.193 66.3503 314.24 65.8113C314.287 65.2488 314.345 64.78 314.416 64.405C314.509 64.0066 314.638 63.6667 314.802 63.3855C315.154 62.7996 315.763 62.5066 316.631 62.5066ZM301.935 85.2175C301.935 87.0691 302.603 87.9949 303.939 87.9949C304.15 87.9949 304.384 87.9714 304.642 87.9246C305.603 87.9246 306.787 87.6433 308.193 87.0808C310.865 86.0261 312.494 85.1121 313.08 84.3386V79.6628C313.08 78.8425 312.412 78.4324 311.076 78.4324C310.912 78.4089 310.689 78.3972 310.408 78.3972C310.15 78.3972 309.74 78.4558 309.177 78.573C308.615 78.6902 307.982 78.9011 307.279 79.2058C306.576 79.5105 305.884 79.8855 305.205 80.3308C303.775 81.2917 302.791 82.4167 302.252 83.7058C302.041 84.198 301.935 84.7019 301.935 85.2175Z" fill="#72D2D0"/>
</svg>
